Tiejili-SC.glyphspackage
{
glyphname = exclam;
layers = (
{
layerId = master01;
shapes = (
{
closed = 1;
nodes = (
(210,192,l),
(330,801,l),
(134,779,l),
(154,192,l)
);
},
{
closed = 1;
nodes = (
(301,126,l),
(83,164,l),
(181,-21,l)
);
}
);
userData = {
public.verticalOrigin = "880";
};
vertWidth = 1000;
width = 400;
}
);
unicode = 33;
}
{
glyphname = quotedbl;
layers = (
{
layerId = master01;
shapes = (
{
closed = 1;
nodes = (
(355,469,l),
(439,780,l),
(278,780,l),
(343,469,l)
);
},
{
closed = 1;
nodes = (
(146,469,l),
(217,780,l),
(57,780,l),
(134,469,l)
);
}
);
userData = {
public.verticalOrigin = "880";
};
vertWidth = 1000;
width = 500;
}
);
unicode = 34;
}
{
glyphname = ampersand;
layers = (
{
layerId = master01;
shapes = (
{
closed = 1;
nodes = (
(396,-20,o),
(475,22,o),
(545,100,c),
(611,58,o),
(681,19,o),
(751,-11,c),
(758,-3,l),
(697,52,o),
(641,105,o),
(589,155,c),
(624,205,o),
(657,263,o),
(685,330,c),
(549,395,l),
(533,340,o),
(514,292,o),
(495,251,c),
(445,304,o),
(403,354,o),
(368,400,c),
(452,467,o),
(535,534,o),
(535,617,cs),
(535,727,o),
(439,801,o),
(345,801,cs),
(212,801,o),
(121,684,o),
(121,601,cs),
(121,549,o),
(147,488,o),
(191,424,c),
(124,370,o),
(65,307,o),
(47,226,cs),
(45,215,o),
(43,203,o),
(43,191,cs),
(43,96,o),
(122,-20,o),
(311,-20,cs)
);
},
{
closed = 1;
nodes = (
(225,61,o),
(191,119,o),
(191,176,cs),
(191,186,o),
(192,196,o),
(194,205,cs),
(203,247,o),
(234,285,o),
(274,322,c),
(324,269,o),
(383,217,o),
(449,168,c),
(401,96,o),
(351,61,o),
(313,61,cs)
);
},
{
closed = 1;
nodes = (
(278,546,o),
(266,584,o),
(266,617,cs),
(266,672,o),
(303,737,o),
(337,737,cs),
(388,737,o),
(438,707,o),
(438,650,cs),
(438,599,o),
(376,554,o),
(301,503,c)
);
}
);
vertWidth = 1000;
width = 756;
}
);
unicode = 38;
}
{
glyphname = parenright;
layers = (
{
layerId = master01;
shapes = (
{
closed = 1;
nodes = (
(233,3,o),
(341,220,o),
(341,340,cs),
(341,461,o),
(233,678,o),
(55,842,c),
(45,836,l),
(138,655,o),
(189,460,o),
(189,341,cs),
(189,219,o),
(138,26,o),
(45,-154,c),
(55,-160,l)
);
}
);
userData = {
public.verticalOrigin = "880";
};
vertWidth = 1000;
width = 400;
}
);
unicode = 41;
}
{
glyphname = hyphen;
kernLeft = hyphen;
layers = (
{
layerId = master01;
shapes = (
{
closed = 1;
nodes = (
(462,276,l),
(462,283,l),
(48,375,l),
(48,178,l)
);
}
);
userData = {
public.verticalOrigin = "880";
};
vertWidth = 1000;
width = 488;
}
);
unicode = (45,8209);
}
{
glyphname = zero;
layers = (
{
layerId = master01;
shapes = (
{
closed = 1;
nodes = (
(493,-20,o),
(649,139,o),
(649,391,cs),
(649,631,o),
(493,801,o),
(345,801,cs),
(197,801,o),
(42,627,o),
(42,391,cs),
(42,126,o),
(197,-20,o),
(345,-20,cs)
);
},
{
closed = 1;
nodes = (
(264,52,o),
(204,221,o),
(204,391,cs),
(204,552,o),
(263,727,o),
(345,727,cs),
(427,727,o),
(486,549,o),
(486,391,cs),
(486,221,o),
(425,52,o),
(345,52,cs)
);
}
);
userData = {
public.verticalOrigin = "880";
};
vertWidth = 1000;
width = 690;
}
);
unicode = 48;
}
{
glyphname = one;
layers = (
{
layerId = master01;
shapes = (
{
closed = 1;
nodes = (
(453,0,l),
(481,804,l),
(105,674,l),
(105,664,l),
(315,628,l),
(333,0,l)
);
}
);
userData = {
public.verticalOrigin = "880";
};
vertWidth = 1000;
width = 690;
}
);
unicode = 49;
}
{
glyphname = two;
layers = (
{
layerId = master01;
shapes = (
{
closed = 1;
nodes = (
(636,0,l),
(636,166,l),
(195,64,l),
(314,148,o),
(633,444,o),
(633,588,cs),
(633,709,o),
(512,801,o),
(382,801,cs),
(280,801,o),
(184,739,o),
(75,583,c),
(83,576,l),
(186,650,o),
(297,679,o),
(368,679,cs),
(431,679,o),
(466,640,o),
(466,568,cs),
(466,453,o),
(53,0,o),
(53,0,c)
);
}
);
userData = {
public.verticalOrigin = "880";
};
vertWidth = 1000;
width = 690;
}
);
unicode = 50;
}
{
glyphname = three;
layers = (
{
layerId = master01;
shapes = (
{
closed = 1;
nodes = (
(518,7,o),
(643,121,o),
(643,246,cs),
(643,318,o),
(556,399,o),
(409,425,c),
(548,485,o),
(597,563,o),
(602,604,cs),
(602,607,o),
(603,611,o),
(603,615,cs),
(603,688,o),
(517,801,o),
(366,801,cs),
(267,801,o),
(174,740,o),
(72,622,c),
(78,614,l),
(207,672,o),
(278,689,o),
(355,689,cs),
(402,689,o),
(440,637,o),
(440,591,cs),
(440,558,o),
(366,470,o),
(214,394,c),
(215,382,l),
(375,382,o),
(468,308,o),
(468,253,cs),
(468,162,o),
(357,93,o),
(54,0,c),
(57,-13,l)
);
}
);
userData = {
public.verticalOrigin = "880";
};
vertWidth = 1000;
width = 690;
}
);
unicode = 51;
}
{
glyphname = seven;
layers = (
{
layerId = master01;
shapes = (
{
closed = 1;
nodes = (
(639,754,l),
(76,780,l),
(106,630,l),
(454,712,l),
(231,0,l),
(343,-13,l)
);
}
);
userData = {
public.verticalOrigin = "880";
};
vertWidth = 1000;
width = 690;
}
);
unicode = 55;
}
{
glyphname = eight;
layers = (
{
layerId = master01;
shapes = (
{
closed = 1;
nodes = (
(512,-20,o),
(653,80,o),
(653,208,cs),
(653,312,o),
(506,392,o),
(381,450,c),
(428,494,o),
(480,541,o),
(532,587,c),
(540,576,o),
(548,565,o),
(555,553,c),
(644,666,l),
(560,750,o),
(433,800,o),
(328,800,cs),
(185,800,o),
(66,655,o),
(66,566,cs),
(66,549,o),
(70,534,o),
(79,523,cs),
(106,489,o),
(160,456,o),
(220,421,c),
(114,330,o),
(46,244,o),
(46,191,cs),
(46,70,o),
(193,-20,o),
(357,-20,cs)
);
},
{
closed = 1;
nodes = (
(290,45,o),
(201,103,o),
(201,191,cs),
(201,242,o),
(243,304,o),
(305,373,c),
(405,316,o),
(496,252,o),
(496,174,cs),
(496,114,o),
(415,45,o),
(357,45,cs)
);
},
{
closed = 1;
nodes = (
(263,502,o),
(234,516,o),
(219,527,cs),
(206,536,o),
(200,553,o),
(200,574,cs),
(200,640,o),
(261,741,o),
(335,741,cs),
(342,741,ls),
(381,737,o),
(448,689,o),
(504,623,c),
(430,580,o),
(361,533,o),
(300,486,c)
);
}
);
userData = {
public.verticalOrigin = "880";
};
vertWidth = 1000;
width = 690;
}
);
unicode = 56;
}
{
glyphname = equal;
layers = (
{
layerId = master01;
shapes = (
{
closed = 1;
nodes = (
(640,402,l),
(640,411,l),
(70,482,l),
(70,329,l)
);
},
{
closed = 1;
nodes = (
(640,156,l),
(640,165,l),
(70,236,l),
(70,83,l)
);
}
);
userData = {
public.verticalOrigin = "880";
};
vertWidth = 1000;
width = 690;
}
);
unicode = 61;
}
{
glyphname = A;
kernLeft = A;
kernRight = A;
layers = (
{
anchors = (
{
name = bottom;
pos = (336,0);
},
{
name = ogonek;
pos = (742,20);
},
{
name = top;
pos = (376,780);
}
);
layerId = master01;
shapes = (
{
closed = 1;
nodes = (
(14,-11,l),
(118,172,l),
(514,241,l),
(632,-11,l),
(750,2,l),
(430,803,l),
(272,779,l),
(-1,-11,l)
);
},
{
closed = 1;
nodes = (
(196,312,l),
(351,589,l),
(502,265,l)
);
}
);
userData = {
public.verticalOrigin = "880";
};
vertWidth = 1000;
width = 752;
}
);
unicode = 65;
}
{
glyphname = B;
layers = (
{
layerId = master01;
shapes = (
{
closed = 1;
nodes = (
(491,-13,o),
(703,89,o),
(703,256,cs),
(703,322,o),
(620,410,o),
(469,419,c),
(598,473,o),
(654,540,o),
(662,604,cs),
(663,612,o),
(664,620,o),
(664,628,cs),
(664,715,o),
(596,780,o),
(446,780,cs),
(387,780,o),
(326,761,o),
(269,727,c),
(270,780,l),
(88,780,l),
(125,-13,l)
);
},
{
closed = 1;
nodes = (
(261,352,l),
(480,349,o),
(528,297,o),
(528,253,cs),
(528,174,o),
(477,85,o),
(254,34,c)
);
},
{
closed = 1;
nodes = (
(268,684,l),
(321,700,o),
(367,705,o),
(425,705,cs),
(476,705,o),
(507,659,o),
(507,614,cs),
(507,609,o),
(507,604,o),
(506,599,cs),
(500,561,o),
(436,465,o),
(262,384,c)
);
}
);
userData = {
public.verticalOrigin = "880";
};
vertWidth = 1000;
width = 736;
}
);
unicode = 66;
}
{
glyphname = C;
layers = (
{
layerId = master01;
shapes = (
{
closed = 1;
nodes = (
(678,-7,l),
(314,64,o),
(215,187,o),
(215,388,cs),
(215,533,o),
(286,702,o),
(378,702,cs),
(473,702,o),
(565,658,o),
(649,573,c),
(705,736,l),
(620,780,o),
(511,801,o),
(408,801,cs),
(232,801,o),
(48,634,o),
(48,314,cs),
(48,113,o),
(220,-20,o),
(676,-20,c)
);
}
);
userData = {
public.verticalOrigin = "880";
};
vertWidth = 1000;
width = 737;
}
);
unicode = 67;
}
{
glyphname = E;
layers = (
{
anchors = (
{
name = bottom;
pos = (376,0);
},
{
name = ogonek;
pos = (594,69);
},
{
name = top;
pos = (376,780);
}
);
layerId = master01;
shapes = (
{
closed = 1;
nodes = (
(648,77,l),
(648,87,l),
(254,129,l),
(260,370,l),
(577,325,l),
(577,484,l),
(261,410,l),
(267,663,l),
(628,628,l),
(628,790,l),
(268,704,l),
(270,780,l),
(88,780,l),
(125,-10,l)
);
}
);
userData = {
public.verticalOrigin = "880";
};
vertWidth = 1000;
width = 689;
}
);
unicode = 69;
}
{
glyphname = G;
layers = (
{
anchors = (
{
name = bottom;
pos = (409,0);
},
{
name = top;
pos = (409,780);
}
);
layerId = master01;
shapes = (
{
closed = 1;
nodes = (
(706,-20,l),
(731,446,l),
(363,356,l),
(363,344,l),
(574,294,l),
(596,29,l),
(290,87,o),
(207,202,o),
(207,388,cs),
(207,533,o),
(286,710,o),
(378,710,cs),
(473,710,o),
(565,658,o),
(649,573,c),
(705,736,l),
(620,780,o),
(511,801,o),
(408,801,cs),
(232,801,o),
(48,634,o),
(48,314,cs),
(48,113,o),
(226,-20,o),
(676,-20,cs)
);
}
);
userData = {
public.verticalOrigin = "880";
};
vertWidth = 1000;
width = 790;
}
);
unicode = 71;
}
{
glyphname = I;
layers = (
{
anchors = (
{
name = top;
pos = (188,780);
}
);
layerId = master01;
shapes = (
{
closed = 1;
nodes = (
(252,0,l),
(280,780,l),
(92,780,l),
(120,0,l)
);
}
);
userData = {
public.verticalOrigin = "880";
};
vertWidth = 1000;
width = 372;
}
);
unicode = 73;
}
{
glyphname = L;
kernRight = L;
layers = (
{
layerId = master01;
shapes = (
{
closed = 1;
nodes = (
(603,80,l),
(604,93,l),
(245,147,l),
(273,780,l),
(88,780,l),
(116,-13,l)
);
}
);
userData = {
public.verticalOrigin = "880";
};
vertWidth = 1000;
width = 634;
}
);
unicode = 76;
}
{
glyphname = M;
layers = (
{
anchors = (
{
name = top;
pos = (475,780);
}
);
layerId = master01;
shapes = (
{
closed = 1;
nodes = (
(157,-14,l),
(248,585,l),
(472,76,l),
(479,76,l),
(702,585,l),
(731,0,l),
(848,0,l),
(863,780,l),
(700,780,l),
(514,376,l),
(271,780,l),
(87,780,l),
(142,-14,l)
);
}
);
userData = {
public.verticalOrigin = "880";
};
vertWidth = 1000;
width = 950;
}
);
unicode = 77;
}
{
glyphname = N;
layers = (
{
anchors = (
{
name = bottom;
pos = (417,0);
},
{
name = top;
pos = (417,780);
}
);
layerId = master01;
shapes = (
{
closed = 1;
nodes = (
(166,-13,l),
(255,584,l),
(671,-13,l),
(679,-13,l),
(717,790,l),
(698,790,l),
(592,366,l),
(250,780,l),
(86,780,l),
(150,-13,l)
);
}
);
userData = {
public.verticalOrigin = "880";
};
vertWidth = 1000;
width = 807;
}
);
unicode = 78;
}
{
glyphname = O;
kernRight = O;
layers = (
{
anchors = (
{
name = top;
pos = (409,780);
}
);
layerId = master01;
shapes = (
{
closed = 1;
nodes = (
(559,-20,o),
(765,138,o),
(765,392,cs),
(765,638,o),
(559,801,o),
(408,801,cs),
(256,801,o),
(48,640,o),
(48,392,cs),
(48,138,o),
(256,-20,o),
(408,-20,cs)
);
},
{
closed = 1;
nodes = (
(349,66,o),
(205,187,o),
(205,472,cs),
(205,617,o),
(276,714,o),
(368,714,cs),
(466,714,o),
(608,581,o),
(608,312,cs),
(608,165,o),
(541,66,o),
(448,66,cs)
);
}
);
userData = {
public.verticalOrigin = "880";
};
vertWidth = 1000;
width = 815;
}
);
unicode = 79;
}
{
glyphname = S;
layers = (
{
anchors = (
{
name = top;
pos = (359,780);
}
);
layerId = master01;
shapes = (
{
closed = 1;
nodes = (
(507,-20,o),
(652,33,o),
(652,206,cs),
(652,214,ls),
(652,386,o),
(226,484,o),
(226,593,cs),
(226,596,ls),
(226,678,o),
(269,711,o),
(341,711,cs),
(407,711,o),
(477,664,o),
(581,563,c),
(637,726,l),
(534,774,o),
(434,801,o),
(349,801,cs),
(223,801,o),
(98,712,o),
(74,578,cs),
(73,573,o),
(73,568,o),
(73,562,cs),
(73,407,o),
(478,282,o),
(478,195,cs),
(478,192,ls),
(478,124,o),
(424,97,o),
(361,97,cs),
(296,97,o),
(145,147,o),
(39,231,c),
(32,224,l),
(118,60,o),
(257,-20,o),
(362,-20,cs)
);
}
);
userData = {
public.verticalOrigin = "880";
};
vertWidth = 1000;
width = 716;
}
);
unicode = 83;
}
{
glyphname = T;
kernLeft = T;
kernRight = T;
layers = (
{
layerId = master01;
shapes = (
{
closed = 1;
nodes = (
(381,0,l),
(408,689,l),
(635,719,l),
(635,733,l),
(16,790,l),
(16,638,l),
(224,665,l),
(251,0,l)
);
}
);
userData = {
public.verticalOrigin = "880";
};
vertWidth = 1000;
width = 633;
}
);
unicode = 84;
}
{
glyphname = U;
kernRight = U;
layers = (
{
anchors = (
{
name = top;
pos = (409,780);
}
);
layerId = master01;
shapes = (
{
closed = 1;
nodes = (
(581,-20,o),
(720,93,o),
(720,252,cs),
(720,258,o),
(719,264,o),
(719,270,cs),
(685,790,l),
(672,790,l),
(574,286,ls),
(548,150,o),
(484,54,o),
(405,54,cs),
(307,54,o),
(242,132,o),
(242,256,cs),
(242,263,o),
(243,270,o),
(243,278,cs),
(273,780,l),
(88,780,l),
(108,270,ls),
(114,113,o),
(216,-20,o),
(405,-20,cs)
);
}
);
userData = {
public.verticalOrigin = "880";
};
vertWidth = 1000;
width = 809;
}
);
unicode = 85;
}
{
glyphname = V;
kernLeft = V;
kernRight = V;
layers = (
{
layerId = master01;
shapes = (
{
closed = 1;
nodes = (
(707,790,l),
(693,790,l),
(355,167,l),
(203,800,l),
(16,760,l),
(281,0,l),
(456,-13,l)
);
}
);
userData = {
public.verticalOrigin = "880";
};
vertWidth = 1000;
width = 735;
}
);
unicode = 86;
}
{
glyphname = W;
kernLeft = W;
kernRight = W;
layers = (
{
layerId = master01;
shapes = (
{
closed = 1;
nodes = (
(256,-13,l),
(470,488,l),
(739,-13,l),
(747,-13,l),
(954,789,l),
(939,789,l),
(698,309,l),
(566,698,l),
(429,676,l),
(290,283,l),
(195,800,l),
(14,760,l),
(245,-13,l)
);
}
);
userData = {
public.verticalOrigin = "880";
};
vertWidth = 1000;
width = 973;
}
);
unicode = 87;
}
{
glyphname = Y;
kernLeft = Y;
kernRight = Y;
layers = (
{
anchors = (
{
name = bottom;
pos = (344,0);
},
{
name = top;
pos = (332,780);
}
);
layerId = master01;
shapes = (
{
closed = 1;
nodes = (
(404,0,l),
(428,265,l),
(650,790,l),
(635,789,l),
(320,379,l),
(169,800,l),
(-14,759,l),
(251,263,l),
(275,0,l)
);
}
);
userData = {
public.verticalOrigin = "880";
};
vertWidth = 1000;
width = 648;
}
);
unicode = 89;
}
{
glyphname = backslash;
layers = (
{
layerId = master01;
shapes = (
{
closed = 1;
nodes = (
(138,825,l),
(0,793,l),
(386,-58,l),
(399,-59,l)
);
}
);
userData = {
public.verticalOrigin = "880";
};
vertWidth = 1000;
width = 400;
}
);
unicode = 92;
}
{
glyphname = bracketright;
layers = (
{
layerId = master01;
shapes = (
{
closed = 1;
nodes = (
(303,830,l),
(9,772,l),
(9,759,l),
(179,719,l),
(179,-38,l),
(9,-76,l),
(9,-89,l),
(303,-150,l)
);
}
);
userData = {
public.verticalOrigin = "880";
};
vertWidth = 1000;
width = 400;
}
);
unicode = 93;
}
{
glyphname = d;
kernLeft = d;
layers = (
{
layerId = master01;
shapes = (
{
closed = 1;
nodes = (
(330,-13,o),
(410,26,o),
(459,80,c),
(468,12,o),
(491,-13,o),
(523,-13,cs),
(563,-13,o),
(616,26,o),
(673,80,c),
(669,86,l),
(650,82,o),
(635,79,o),
(624,79,cs),
(592,79,o),
(587,98,o),
(587,146,cs),
(587,173,l),
(601,780,l),
(426,780,l),
(436,559,l),
(176,511,o),
(44,397,o),
(44,212,cs),
(44,70,o),
(105,-13,o),
(232,-13,cs)
);
},
{
closed = 1;
nodes = (
(225,90,o),
(194,129,o),
(194,220,cs),
(194,339,o),
(265,439,o),
(438,512,c),
(455,136,l),
(394,105,o),
(343,90,o),
(284,90,cs)
);
}
);
userData = {
public.verticalOrigin = "880";
};
vertWidth = 1000;
width = 670;
}
);
unicode = 100;
}
{
glyphname = h;
layers = (
{
layerId = master01;
shapes = (
{
closed = 1;
nodes = (
(209,0,l),
(222,398,l),
(278,434,o),
(346,452,o),
(379,452,cs),
(420,452,o),
(438,431,o),
(442,343,cs),
(458,0,l),
(582,0,l),
(598,384,ls),
(598,394,o),
(599,403,o),
(599,412,cs),
(599,515,o),
(570,570,o),
(470,570,cs),
(386,570,o),
(285,518,o),
(224,444,c),
(235,780,l),
(60,780,l),
(86,0,l)
);
}
);
userData = {
public.verticalOrigin = "880";
};
vertWidth = 1000;
width = 673;
}
);
unicode = 104;
}
{
glyphname = l;
layers = (
{
layerId = master01;
shapes = (
{
closed = 1;
nodes = (
(223,0,l),
(250,780,l),
(71,780,l),
(98,0,l)
);
}
);
userData = {
public.verticalOrigin = "880";
};
vertWidth = 1000;
width = 321;
}
);
unicode = 108;
}
{
glyphname = m;
layers = (
{
anchors = (
{
name = top;
pos = (467,557);
}
);
layerId = master01;
shapes = (
{
closed = 1;
nodes = (
(204,0,l),
(219,404,l),
(254,433,o),
(291,452,o),
(321,452,cs),
(362,452,o),
(388,423,o),
(392,343,cs),
(408,0,l),
(522,0,l),
(538,384,ls),
(538,390,o),
(538,395,o),
(539,401,c),
(575,431,o),
(614,452,o),
(645,452,cs),
(686,452,o),
(707,423,o),
(711,343,cs),
(727,0,l),
(846,0,l),
(862,384,ls),
(862,395,o),
(863,405,o),
(863,414,cs),
(863,525,o),
(830,570,o),
(748,570,cs),
(674,570,o),
(595,528,o),
(537,453,c),
(530,536,o),
(496,570,o),
(424,570,cs),
(354,570,o),
(278,532,o),
(221,463,c),
(225,557,l),
(60,557,l),
(86,0,l)
);
}
);
userData = {
public.verticalOrigin = "880";
};
vertWidth = 1000;
width = 934;
}
);
unicode = 109;
}
{
glyphname = n;
layers = (
{
anchors = (
{
name = bottom;
pos = (343,0);
},
{
name = top;
pos = (343,557);
}
);
layerId = master01;
shapes = (
{
closed = 1;
nodes = (
(209,0,l),
(228,401,l),
(282,436,o),
(347,452,o),
(379,452,cs),
(420,452,o),
(438,431,o),
(442,343,cs),
(458,0,l),
(582,0,l),
(598,384,ls),
(598,394,o),
(599,403,o),
(599,412,cs),
(599,515,o),
(570,570,o),
(470,570,cs),
(389,570,o),
(292,521,o),
(230,451,c),
(235,557,l),
(60,557,l),
(86,0,l)
);
}
);
userData = {
public.verticalOrigin = "880";
};
vertWidth = 1000;
width = 673;
}
);
unicode = 110;
}
{
glyphname = o;
kernLeft = o;
layers = (
{
anchors = (
{
name = top;
pos = (331,557);
}
);
layerId = master01;
shapes = (
{
closed = 1;
nodes = (
(459,-12,o),
(624,102,o),
(624,278,cs),
(624,455,o),
(459,570,o),
(332,570,cs),
(205,570,o),
(38,455,o),
(38,278,cs),
(38,102,o),
(205,-12,o),
(332,-12,cs)
);
},
{
closed = 1;
nodes = (
(291,60,o),
(191,154,o),
(191,318,cs),
(191,454,o),
(231,495,o),
(302,495,cs),
(373,495,o),
(471,418,o),
(471,238,cs),
(471,103,o),
(433,60,o),
(362,60,cs)
);
}
);
userData = {
public.verticalOrigin = "880";
};
vertWidth = 1000;
width = 662;
}
);
unicode = 111;
}
{
glyphname = r;
kernLeft = r;
layers = (
{
anchors = (
{
name = bottom;
pos = (167,0);
},
{
name = top;
pos = (257,557);
}
);
layerId = master01;
shapes = (
{
closed = 1;
nodes = (
(227,0,l),
(240,416,l),
(267,434,o),
(309,445,o),
(351,445,cs),
(385,445,o),
(419,438,o),
(446,423,c),
(446,570,l),
(368,570,o),
(287,517,o),
(241,458,c),
(244,557,l),
(68,557,l),
(104,0,l)
);
}
);
userData = {
public.verticalOrigin = "880";
};
vertWidth = 1000;
width = 450;
}
);
unicode = 114;
}
{
glyphname = s;
layers = (
{
anchors = (
{
name = bottom;
pos = (289,0);
},
{
name = top;
pos = (289,557);
}
);
layerId = master01;
shapes = (
{
closed = 1;
nodes = (
(470,-12,o),
(549,35,o),
(549,113,cs),
(549,127,o),
(546,143,o),
(540,160,cs),
(499,279,o),
(227,371,o),
(161,422,cs),
(147,433,o),
(141,444,o),
(141,454,cs),
(141,476,o),
(170,493,o),
(212,493,cs),
(221,493,o),
(230,493,o),
(240,491,cs),
(302,481,o),
(408,421,o),
(460,369,c),
(528,492,l),
(471,533,o),
(349,570,o),
(213,570,cs),
(101,570,o),
(27,506,o),
(27,443,cs),
(27,423,o),
(35,404,o),
(50,386,cs),
(162,260,o),
(360,201,o),
(388,126,cs),
(389,123,o),
(390,119,o),
(390,116,cs),
(390,92,o),
(354,74,o),
(294,74,cs),
(205,74,o),
(108,113,o),
(25,177,c),
(17,167,l),
(85,62,o),
(194,-12,o),
(315,-12,cs)
);
}
);
userData = {
public.verticalOrigin = "880";
};
vertWidth = 1000;
width = 577;
}
);
unicode = 115;
}
{
glyphname = t;
kernLeft = t;
layers = (
{
layerId = master01;
shapes = (
{
closed = 1;
nodes = (
(267,-13,o),
(326,24,o),
(394,105,c),
(389,115,l),
(344,93,o),
(312,82,o),
(289,82,cs),
(256,82,o),
(244,107,o),
(244,163,cs),
(244,172,o),
(245,180,o),
(245,190,cs),
(257,442,l),
(375,442,l),
(375,577,l),
(262,539,l),
(271,731,l),
(258,731,l),
(6,453,l),
(6,442,l),
(113,442,l),
(122,168,ls),
(126,50,o),
(162,-13,o),
(221,-13,cs)
);
}
);
userData = {
public.verticalOrigin = "880";
};
vertWidth = 1000;
width = 421;
}
);
unicode = 116;
}
{
glyphname = u;
kernLeft = u;
layers = (
{
anchors = (
{
name = bottom;
pos = (348,0);
},
{
name = ogonek;
pos = (587,20);
},
{
name = top;
pos = (348,557);
},
{
name = topright;
pos = (585,535);
}
);
layerId = master01;
shapes = (
{
closed = 1;
nodes = (
(549,-13,o),
(601,26,o),
(659,80,c),
(655,86,l),
(636,82,o),
(621,79,o),
(610,79,cs),
(578,79,o),
(573,98,o),
(573,146,cs),
(573,173,l),
(587,557,l),
(417,557,l),
(444,158,l),
(394,111,o),
(334,93,o),
(297,93,cs),
(233,93,o),
(212,118,o),
(212,177,cs),
(212,189,l),
(228,557,l),
(57,557,l),
(83,181,ls),
(92,54,o),
(125,-12,o),
(247,-12,cs),
(317,-12,o),
(407,34,o),
(448,96,c),
(455,16,o),
(477,-13,o),
(511,-13,cs)
);
}
);
userData = {
public.verticalOrigin = "880";
};
vertWidth = 1000;
width = 673;
}
);
unicode = 117;
}
{
glyphname = v;
kernLeft = v;
layers = (
{
layerId = master01;
shapes = (
{
closed = 1;
nodes = (
(560,567,l),
(546,567,l),
(299,167,l),
(196,569,l),
(25,528,l),
(243,0,l),
(380,-13,l)
);
}
);
userData = {
public.verticalOrigin = "880";
};
vertWidth = 1000;
width = 574;
}
);
unicode = 118;
}
{
glyphname = x;
layers = (
{
layerId = master01;
shapes = (
{
closed = 1;
nodes = (
(53,-13,l),
(248,218,l),
(423,0,l),
(559,0,l),
(334,320,l),
(532,557,l),
(362,557,l),
(275,404,l),
(158,571,l),
(0,528,l),
(202,276,l),
(37,-13,l)
);
}
);
userData = {
public.verticalOrigin = "880";
};
vertWidth = 1000;
width = 546;
}
);
unicode = 120;
}
{
glyphname = y;
kernLeft = y;
kernRight = y;
layers = (
{
anchors = (
{
name = top;
pos = (312,557);
}
);
layerId = master01;
shapes = (
{
closed = 1;
nodes = (
(588,566,l),
(574,566,l),
(329,164,l),
(201,570,l),
(27,527,l),
(274,74,l),
(132,-157,l),
(300,-229,l)
);
}
);
userData = {
public.verticalOrigin = "880";
};
vertWidth = 1000;
width = 598;
}
);
unicode = 121;
}
{
glyphname = z;
layers = (
{
anchors = (
{
name = top;
pos = (289,557);
}
);
layerId = master01;
shapes = (
{
closed = 1;
nodes = (
(560,56,l),
(560,67,l),
(175,113,l),
(547,557,l),
(58,557,l),
(58,414,l),
(344,508,l),
(37,97,l),
(57,-13,l)
);
}
);
userData = {
public.verticalOrigin = "880";
};
vertWidth = 1000;
width = 559;
}
);
unicode = 122;
}
{
glyphname = bar;
layers = (
{
layerId = master01;
shapes = (
{
closed = 1;
nodes = (
(233,803,l),
(111,803,l),
(111,-22,l),
(233,-23,l)
);
}
);
userData = {
public.verticalOrigin = "880";
};
vertWidth = 1000;
width = 345;
}
);
unicode = 124;
}
{
glyphname = currency;
layers = (
{
layerId = master01;
shapes = (
{
closed = 1;
nodes = (
(568,70,l),
(492,225,l),
(509,256,o),
(519,293,o),
(519,331,cs),
(519,368,o),
(510,404,o),
(493,435,c),
(565,575,l),
(548,595,l),
(399,531,l),
(367,548,o),
(331,558,o),
(292,558,cs),
(254,558,o),
(218,549,o),
(186,532,c),
(44,595,l),
(25,576,l),
(91,436,l),
(74,405,o),
(65,369,o),
(65,331,cs),
(65,293,o),
(75,256,o),
(92,225,c),
(22,77,l),
(42,54,l),
(187,130,l),
(218,113,o),
(254,104,o),
(292,104,cs),
(330,104,o),
(365,113,o),
(397,130,c),
(551,53,l)
);
},
{
closed = 1;
nodes = (
(239,234,o),
(195,278,o),
(195,331,cs),
(195,384,o),
(239,428,o),
(292,428,cs),
(345,428,o),
(389,384,o),
(389,331,cs),
(389,278,o),
(345,234,o),
(292,234,cs)
);
}
);
vertWidth = 1000;
width = 600;
}
);
unicode = 164;
}
{
glyphname = yen;
layers = (
{
layerId = master01;
shapes = (
{
closed = 1;
nodes = (
(424,0,l),
(432,122,l),
(635,114,l),
(635,255,l),
(438,218,l),
(445,324,l),
(654,352,l),
(654,361,l),
(455,379,l),
(670,790,l),
(655,789,l),
(348,459,l),
(189,800,l),
(5,759,l),
(256,398,l),
(77,415,l),
(77,274,l),
(276,301,l),
(283,188,l),
(58,145,l),
(58,136,l),
(287,127,l),
(295,0,l)
);
}
);
vertWidth = 1000;
width = 690;
}
);
unicode = 165;
}
{
glyphname = brokenbar;
layers = (
{
layerId = master01;
shapes = (
{
closed = 1;
nodes = (
(233,477,l),
(233,803,l),
(111,803,l),
(111,477,l)
);
},
{
closed = 1;
nodes = (
(233,303,l),
(111,303,l),
(111,-22,l),
(233,-23,l)
);
}
);
userData = {
public.verticalOrigin = "880";
};
vertWidth = 1000;
width = 345;
}
);
unicode = 166;
}
{
glyphname = section;
layers = (
{
layerId = master01;
shapes = (
{
closed = 1;
nodes = (
(466,-74,o),
(570,-39,o),
(578,98,cs),
(578,104,ls),
(578,148,o),
(546,188,o),
(505,216,c),
(576,235,o),
(626,282,o),
(633,382,cs),
(633,389,ls),
(633,548,o),
(258,588,o),
(258,665,cs),
(258,667,ls),
(261,711,o),
(285,743,o),
(340,743,cs),
(392,743,o),
(460,689,o),
(512,617,c),
(576,765,l),
(497,804,o),
(414,825,o),
(346,825,cs),
(245,825,o),
(142,774,o),
(126,661,cs),
(126,658,o),
(125,655,o),
(125,652,cs),
(125,616,o),
(154,570,o),
(197,538,c),
(144,518,o),
(82,472,o),
(69,383,cs),
(68,378,o),
(68,373,o),
(68,368,cs),
(68,215,o),
(427,169,o),
(427,90,cs),
(427,87,ls),
(421,33,o),
(384,16,o),
(334,16,cs),
(282,16,o),
(171,59,o),
(86,126,c),
(80,121,l),
(149,-9,o),
(260,-74,o),
(344,-74,cs)
);
},
{
closed = 1;
nodes = (
(292,285,o),
(181,350,o),
(181,395,cs),
(181,397,ls),
(184,440,o),
(212,483,o),
(273,483,cs),
(430,483,o),
(514,425,o),
(514,375,cs),
(514,371,ls),
(508,317,o),
(481,285,o),
(431,285,cs)
);
}
);
vertWidth = 1000;
width = 720;
}
);
unicode = 167;
}
{
glyphname = copyright;
layers = (
{
layerId = master01;
shapes = (
{
closed = 1;
nodes = (
(585,0,o),
(746,160,o),
(746,357,cs),
(746,554,o),
(585,714,o),
(388,714,cs),
(191,714,o),
(31,554,o),
(31,357,cs),
(31,160,o),
(191,0,o),
(388,0,cs)
);
},
{
closed = 1;
nodes = (
(549,151,l),
(371,184,o),
(303,228,o),
(303,335,cs),
(303,461,o),
(342,515,o),
(388,515,cs),
(423,515,o),
(472,467,o),
(492,399,c),
(565,503,l),
(521,552,o),
(439,579,o),
(375,579,cs),
(303,579,o),
(184,486,o),
(184,343,cs),
(184,174,o),
(307,140,o),
(546,140,c)
);
},
{
closed = 1;
nodes = (
(234,75,o),
(107,202,o),
(107,357,cs),
(107,512,o),
(234,639,o),
(389,639,cs),
(544,639,o),
(671,512,o),
(671,357,cs),
(671,202,o),
(544,75,o),
(389,75,cs)
);
}
);
vertWidth = 1000;
width = 777;
}
);
unicode = 169;
}
{
glyphname = registered;
layers = (
{
layerId = master01;
shapes = (
{
closed = 1;
nodes = (
(585,0,o),
(746,160,o),
(746,357,cs),
(746,554,o),
(585,714,o),
(388,714,cs),
(191,714,o),
(31,554,o),
(31,357,cs),
(31,160,o),
(191,0,o),
(388,0,cs)
);
},
{
closed = 1;
nodes = (
(234,75,o),
(107,202,o),
(107,357,cs),
(107,512,o),
(234,639,o),
(389,639,cs),
(544,639,o),
(671,512,o),
(671,357,cs),
(671,271,o),
(631,190,o),
(565,136,c),
(565,137,o),
(468,311,o),
(468,311,c),
(527,325,o),
(551,359,o),
(568,422,cs),
(574,444,o),
(577,464,o),
(577,481,cs),
(577,551,o),
(532,578,o),
(485,578,cs),
(474,578,o),
(463,577,o),
(452,574,cs),
(410,563,o),
(376,545,o),
(348,525,c),
(349,574,l),
(221,574,l),
(252,124,l),
(336,124,l),
(347,486,l),
(369,498,o),
(393,506,o),
(416,508,c),
(420,509,o),
(424,509,o),
(428,509,cs),
(451,509,o),
(465,498,o),
(465,470,cs),
(465,462,o),
(464,454,o),
(462,444,cs),
(446,367,o),
(421,339,o),
(353,319,c),
(352,307,l),
(555,129,l),
(509,95,o),
(452,75,o),
(389,75,cs)
);
}
);
vertWidth = 1000;
width = 777;
}
);
unicode = 174;
}
{
glyphname = twosuperior;
layers = (
{
layerId = master01;
shapes = (
{
closed = 1;
nodes = (
(357,360,l),
(357,476,l),
(103,392,l),
(197,452,o),
(356,578,o),
(356,653,cs),
(356,739,o),
(282,811,o),
(191,811,cs),
(130,811,o),
(82,766,o),
(27,656,c),
(36,649,l),
(86,682,o),
(137,698,o),
(194,698,cs),
(213,698,o),
(234,684,o),
(234,659,cs),
(234,590,o),
(22,360,o),
(22,360,c)
);
}
);
userData = {
public.verticalOrigin = "880";
};
vertWidth = 1000;
width = 380;
}
);
unicode = 178;
}
{
glyphname = acute;
layers = (
{
layerId = master01;
shapes = (
{
closed = 1;
nodes = (
(394,710,l),
(308,837,l),
(100,645,l),
(112,623,l)
);
}
);
userData = {
public.verticalOrigin = "880";
};
width = 500;
}
);
unicode = 180;
}
{
glyphname = micro;
layers = (
{
layerId = master01;
shapes = (
{
closed = 1;
nodes = (
(228,-178,l),
(232,28,l),
(258,4,o),
(296,-8,o),
(323,-9,cs),
(325,-9,ls),
(368,-9,o),
(417,15,o),
(452,56,c),
(455,0,l),
(566,0,l),
(605,557,l),
(430,557,l),
(446,195,l),
(420,156,o),
(374,132,o),
(327,132,cs),
(292,132,o),
(253,167,o),
(236,202,c),
(243,557,l),
(67,557,l),
(104,-178,l)
);
}
);
userData = {
public.verticalOrigin = "880";
};
vertWidth = 1000;
width = 690;
}
);
unicode = 181;
}
{
glyphname = cedilla;
layers = (
{
layerId = master01;
shapes = (
{
closed = 1;
nodes = (
(334,-223,o),
(363,-196,o),
(374,-117,cs),
(375,-110,o),
(375,-104,o),
(375,-99,cs),
(375,-57,o),
(349,-36,o),
(314,-36,cs),
(307,-36,o),
(299,-37,o),
(291,-39,cs),
(269,-44,o),
(235,-62,o),
(214,-80,c),
(246,10,l),
(147,35,l),
(134,-88,l),
(210,-101,l),
(223,-92,o),
(234,-88,o),
(244,-88,cs),
(255,-88,o),
(263,-95,o),
(263,-108,cs),
(263,-110,o),
(263,-113,o),
(262,-116,cs),
(257,-143,o),
(244,-159,o),
(219,-166,cs),
(212,-168,o),
(202,-169,o),
(191,-169,cs),
(165,-169,o),
(131,-164,o),
(104,-157,c),
(100,-165,l),
(130,-195,o),
(185,-217,o),
(233,-221,cs),
(244,-222,o),
(255,-223,o),
(265,-223,cs)
);
}
);
userData = {
public.verticalOrigin = "880";
};
vertWidth = 1000;
width = 500;
}
);
unicode = (184,807);
}
{
glyphname = ordmasculine;
layers = (
{
layerId = master01;
shapes = (
{
closed = 1;
nodes = (
(239,479,o),
(321,548,o),
(321,628,cs),
(321,723,o),
(242,795,o),
(168,795,cs),
(97,795,o),
(13,725,o),
(13,628,cs),
(13,547,o),
(91,479,o),
(168,479,cs)
);
},
{
closed = 1;
nodes = (
(148,525,o),
(109,563,o),
(109,651,cs),
(109,712,o),
(126,749,o),
(149,749,cs),
(193,749,o),
(225,709,o),
(225,614,cs),
(225,555,o),
(210,525,o),
(187,525,cs)
);
}
);
userData = {
public.verticalOrigin = "880";
};
vertWidth = 1000;
width = 335;
}
);
unicode = 186;
}
{
glyphname = onequarter;
layers = (
{
layerId = master01;
shapes = (
{
closed = 1;
nodes = (
(146,-22,l),
(646,752,l),
(533,803,l),
(131,-22,l)
);
},
{
closed = 1;
nodes = (
(233,360,l),
(261,804,l),
(19,694,l),
(19,684,l),
(131,648,l),
(149,360,l)
);
},
{
closed = 1;
nodes = (
(694,0,l),
(697,61,l),
(773,61,l),
(773,172,l),
(702,159,l),
(713,331,l),
(600,331,l),
(612,146,l),
(476,119,l),
(654,439,l),
(543,463,l),
(380,61,l),
(615,61,l),
(619,0,l)
);
}
);
userData = {
public.verticalOrigin = "880";
};
vertWidth = 1000;
width = 830;
}
);
unicode = 188;
}
{
glyphname = questiondown;
layers = (
{
layerId = master01;
shapes = (
{
closed = 1;
nodes = (
(408,-202,o),
(519,-172,o),
(623,-101,c),
(519,32,l),
(450,-71,o),
(382,-138,o),
(323,-138,cs),
(277,-138,o),
(227,-55,o),
(227,52,cs),
(227,98,o),
(271,149,o),
(440,214,c),
(325,388,l),
(315,388,l),
(324,240,l),
(146,175,o),
(55,101,o),
(55,39,cs),
(55,-83,o),
(179,-202,o),
(281,-202,cs)
);
},
{
closed = 1;
nodes = (
(363,620,l),
(243,472,l),
(461,434,l)
);
}
);
userData = {
public.verticalOrigin = "880";
};
vertWidth = 1000;
width = 690;
}
);
unicode = 191;
}
{
glyphname = AE;
layers = (
{
layerId = master01;
shapes = (
{
closed = 1;
nodes = (
(890,77,l),
(890,87,l),
(576,129,l),
(581,369,l),
(826,325,l),
(826,484,l),
(582,412,l),
(587,662,l),
(872,628,l),
(872,790,l),
(588,707,l),
(590,780,l),
(342,780,l),
(41,0,l),
(53,0,l),
(167,182,l),
(449,236,l),
(459,-10,l)
);
},
{
closed = 1;
nodes = (
(259,329,l),
(433,606,l),
(447,279,l)
);
}
);
userData = {
public.verticalOrigin = "880";
};
vertWidth = 1000;
width = 927;
}
);
unicode = 198;
}
{
glyphname = Thorn;
layers = (
{
layerId = master01;
shapes = (
{
closed = 1;
nodes = (
(243,0,l),
(248,181,l),
(613,212,o),
(703,354,o),
(703,476,cs),
(703,564,o),
(615,643,o),
(452,643,cs),
(397,643,o),
(334,634,o),
(263,613,c),
(269,780,l),
(87,780,l),
(115,0,l)
);
},
{
closed = 1;
nodes = (
(249,203,o),
(261,566,o),
(261,566,c),
(296,571,o),
(327,573,o),
(355,573,cs),
(478,573,o),
(528,528,o),
(528,473,cs),
(528,384,o),
(472,249,o),
(249,202,c)
);
}
);
userData = {
public.verticalOrigin = "880";
};
vertWidth = 1000;
width = 762;
}
);
unicode = 222;
}
{
glyphname = ccedilla;
layers = (
{
layerId = master01;
shapes = (
{
closed = 1;
nodes = (
(426,-223,o),
(455,-196,o),
(466,-116,cs),
(467,-110,o),
(467,-104,o),
(467,-99,cs),
(467,-57,o),
(441,-36,o),
(406,-36,cs),
(399,-36,o),
(391,-37,o),
(383,-39,cs),
(361,-44,o),
(327,-62,o),
(306,-80,c),
(334,-1,l),
(399,-9,o),
(477,-13,o),
(570,-13,c),
(574,-2,l),
(296,58,o),
(186,115,o),
(186,250,cs),
(186,435,o),
(231,498,o),
(290,498,cs),
(356,498,o),
(416,451,o),
(497,370,c),
(561,503,l),
(496,540,o),
(395,570,o),
(274,570,cs),
(139,570,o),
(38,452,o),
(38,258,cs),
(38,127,o),
(89,52,o),
(238,15,c),
(226,-88,l),
(302,-101,l),
(315,-92,o),
(326,-88,o),
(336,-88,cs),
(347,-88,o),
(355,-95,o),
(355,-108,cs),
(355,-110,o),
(355,-113,o),
(354,-116,cs),
(349,-143,o),
(336,-159,o),
(311,-166,cs),
(304,-168,o),
(294,-169,o),
(283,-169,cs),
(257,-169,o),
(223,-164,o),
(196,-157,c),
(192,-165,l),
(222,-195,o),
(277,-217,o),
(325,-221,cs),
(336,-222,o),
(347,-223,o),
(357,-223,cs)
);
}
);
userData = {
public.verticalOrigin = "880";
};
vertWidth = 1000;
width = 602;
}
);
unicode = 231;
}
{
glyphname = oslash;
layers = (
{
layerId = master01;
shapes = (
{
closed = 1;
nodes = (
(151,55,l),
(206,11,o),
(273,-12,o),
(332,-12,cs),
(459,-12,o),
(624,102,o),
(624,278,cs),
(624,344,o),
(600,402,o),
(564,449,c),
(624,506,l),
(547,581,l),
(493,516,l),
(442,551,o),
(384,570,o),
(332,570,cs),
(205,570,o),
(38,455,o),
(38,278,cs),
(38,195,o),
(75,125,o),
(128,75,c),
(38,-32,l),
(47,-43,l)
);
},
{
closed = 1;
nodes = (
(323,60,o),
(276,88,o),
(241,141,c),
(457,346,l),
(466,316,o),
(471,280,o),
(471,238,cs),
(471,103,o),
(433,60,o),
(362,60,cs)
);
},
{
closed = 1;
nodes = (
(201,221,o),
(191,266,o),
(191,318,cs),
(191,454,o),
(231,495,o),
(302,495,cs),
(340,495,o),
(385,473,o),
(419,426,c),
(217,183,l)
);
}
);
userData = {
public.verticalOrigin = "880";
};
vertWidth = 1000;
width = 662;
}
);
unicode = 248;
}
{
color = 10;
glyphname = dcroat;
kernLeft = d;
layers = (
{
layerId = master01;
shapes = (
{
ref = d;
},
{
closed = 1;
nodes = (
(689,664,l),
(689,677,l),
(271,720,l),
(271,612,l)
);
}
);
width = 670;
}
);
unicode = 273;
}
{
color = 10;
glyphname = hbar;
layers = (
{
layerId = master01;
shapes = (
{
ref = h;
},
{
closed = 1;
nodes = (
(427,664,l),
(427,677,l),
(9,720,l),
(9,612,l)
);
}
);
width = 673;
}
);
unicode = 295;
}
{
glyphname = idotless;
layers = (
{
anchors = (
{
name = top;
pos = (159,557);
}
);
layerId = master01;
shapes = (
{
closed = 1;
nodes = (
(221,0,l),
(247,557,l),
(71,557,l),
(97,0,l)
);
}
);
userData = {
public.verticalOrigin = "880";
};
vertWidth = 1000;
width = 317;
}
);
unicode = 305;
}
{
glyphname = Lslash;
kernRight = L;
layers = (
{
layerId = master01;
shapes = (
{
closed = 1;
nodes = (
(603,96,l),
(604,109,l),
(245,163,l),
(255,382,l),
(388,424,l),
(388,560,l),
(259,475,l),
(273,780,l),
(88,780,l),
(103,371,l),
(12,311,l),
(12,304,l),
(104,333,l),
(116,2,l)
);
}
);
userData = {
public.verticalOrigin = "880";
};
vertWidth = 1000;
width = 634;
}
);
unicode = 321;
}
{
glyphname = lslash;
layers = (
{
layerId = master01;
shapes = (
{
closed = 1;
nodes = (
(252,0,l),
(265,365,l),
(362,398,l),
(362,534,l),
(269,468,l),
(280,780,l),
(92,780,l),
(107,353,l),
(12,285,l),
(12,278,l),
(109,311,l),
(120,0,l)
);
}
);
userData = {
public.verticalOrigin = "880";
};
vertWidth = 1000;
width = 394;
}
);
unicode = 322;
}
{
color = 10;
glyphname = Eng;
layers = (
{
anchors = (
{
name = bottom;
pos = (417,0);
},
{
name = top;
pos = (417,780);
}
);
layerId = master01;
shapes = (
{
closed = 1;
nodes = (
(582,-148,o),
(677,-71,o),
(682,39,cs),
(717,790,l),
(698,790,l),
(592,366,l),
(250,780,l),
(86,780,l),
(150,-13,l),
(166,-13,l),
(255,584,l),
(561,145,l),
(546,37,ls),
(538,-21,o),
(487,-104,o),
(332,-189,c),
(334,-201,l)
);
}
);
width = 807;
}
);
metricLeft = N;
metricRight = N;
unicode = 330;
}
{
glyphname = OE;
layers = (
{
layerId = master01;
shapes = (
{
closed = 1;
nodes = (
(393,-20,o),
(445,0,o),
(487,38,c),
(489,-10,l),
(920,77,l),
(920,87,l),
(606,129,l),
(611,369,l),
(856,325,l),
(856,484,l),
(612,412,l),
(617,662,l),
(902,628,l),
(902,790,l),
(618,707,l),
(620,780,l),
(456,780,l),
(457,756,l),
(419,785,o),
(376,801,o),
(331,801,cs),
(174,801,o),
(39,640,o),
(39,392,cs),
(39,138,o),
(209,-20,o),
(335,-20,cs)
);
},
{
closed = 1;
nodes = (
(288,66,o),
(191,187,o),
(191,472,cs),
(191,617,o),
(222,714,o),
(297,714,cs),
(366,714,o),
(441,631,o),
(469,464,c),
(478,248,l),
(468,137,o),
(429,66,o),
(369,66,cs)
);
}
);
userData = {
public.verticalOrigin = "880";
};
vertWidth = 1000;
width = 960;
}
);
unicode = 338;
}
{
glyphname = oe;
kernLeft = o;
layers = (
{
layerId = master01;
shapes = (
{
closed = 1;
nodes = (
(891,-14,o),
(922,-14,o),
(938,-13,q),
(942,-1,l),
(812,23,o),
(653,81,o),
(576,161,o),
(567,216,q),
(972,264,l),
(968,349,o),
(913,466,o),
(825,538,o),
(722,570,o),
(670,570,q),
(618,570,o),
(532,520,o),
(499,487,q),
(461,527,o),
(366,570,o),
(322,570,q),
(274,570,o),
(172,529,o),
(83,452,o),
(28,344,o),
(28,278,q),
(28,212,o),
(83,105,o),
(172,29,o),
(274,-12,o),
(322,-12,q),
(372,-12,o),
(466,29,o),
(503,66,q),
(554,25,o),
(736,-14,o),
(876,-14,q)
);
},
{
closed = 1;
nodes = (
(293,60,o),
(219,121,o),
(175,236,o),
(175,318,q),
(175,376,o),
(209,455,o),
(261,495,o),
(286,495,q),
(316,495,o),
(380,442,o),
(425,328,o),
(425,238,q),
(425,187,o),
(397,106,o),
(357,60,o),
(338,60,q)
);
},
{
closed = 1;
nodes = (
(564,236,o),
(564,245,o),
(564,250,q),
(564,335,o),
(599,445,o),
(654,498,o),
(684,498,q),
(718,498,o),
(769,455,o),
(800,385,o),
(805,346,q),
(565,231,l)
);
}
);
userData = {
public.verticalOrigin = "880";
};
vertWidth = 1000;
width = 1000;
}
);
unicode = 339;
}
{
glyphname = florin;
layers = (
{
layerId = master01;
shapes = (
{
closed = 1;
nodes = (
(203,-188,o),
(225,-184,o),
(246,-174,cs),
(329,-136,o),
(350,36,o),
(360,270,cs),
(362,307,o),
(362,349,o),
(363,392,c),
(518,414,l),
(518,427,l),
(364,446,l),
(366,556,o),
(370,659,o),
(394,672,cs),
(400,675,o),
(406,676,o),
(412,676,cs),
(442,676,o),
(474,642,o),
(503,598,c),
(569,705,l),
(545,724,o),
(488,757,o),
(421,757,cs),
(393,757,o),
(363,752,o),
(333,737,cs),
(276,709,o),
(247,613,o),
(233,462,c),
(124,475,l),
(124,358,l),
(225,372,l),
(221,287,ls),
(214,137,o),
(214,-75,o),
(176,-102,cs),
(161,-112,o),
(137,-117,o),
(110,-117,cs),
(79,-117,o),
(43,-111,o),
(11,-99,c),
(3,-112,l),
(27,-132,o),
(102,-188,o),
(182,-188,cs)
);
}
);
userData = {
public.verticalOrigin = "880";
};
vertWidth = 1000;
width = 573;
}
);
unicode = 402;
}
{
glyphname = gravecomb;
layers = (
{
anchors = (
{
name = _top;
pos = (264,557);
},
{
name = top;
pos = (264,735);
}
);
layerId = master01;
shapes = (
{
closed = 1;
nodes = (
(391,630,l),
(221,802,l),
(121,710,l),
(385,621,l)
);
}
);
width = 500;
}
);
unicode = 768;
}
{
glyphname = acutecomb;
layers = (
{
anchors = (
{
name = _top;
pos = (300,557);
},
{
name = top;
pos = (300,725);
}
);
layerId = master01;
shapes = (
{
closed = 1;
nodes = (
(427,710,l),
(327,802,l),
(157,630,l),
(163,621,l)
);
}
);
width = 600;
}
);
unicode = 769;
}
{
glyphname = circumflexcomb;
layers = (
{
anchors = (
{
name = _top;
pos = (300,557);
},
{
name = top;
pos = (315,770);
}
);
layerId = master01;
shapes = (
{
closed = 1;
nodes = (
(301,699,l),
(474,614,l),
(480,623,l),
(346,811,l),
(257,811,l),
(122,623,l),
(128,614,l)
);
}
);
width = 600;
}
);
unicode = 770;
}
{
glyphname = tildecomb;
layers = (
{
anchors = (
{
name = _top;
pos = (256,557);
},
{
name = top;
pos = (256,760);
}
);
layerId = master01;
shapes = (
{
closed = 1;
nodes = (
(364,621,o),
(390,649,o),
(432,792,c),
(426,799,l),
(400,769,o),
(368,746,o),
(321,746,cs),
(277,746,o),
(234,802,o),
(182,802,cs),
(148,802,o),
(113,759,o),
(70,632,c),
(76,624,l),
(103,655,o),
(136,678,o),
(181,678,cs),
(216,678,o),
(272,621,o),
(321,621,cs)
);
}
);
width = 500;
}
);
unicode = 771;
}
{
glyphname = macroncomb;
layers = (
{
anchors = (
{
name = _top;
pos = (261,557);
},
{
name = top;
pos = (261,730);
}
);
layerId = master01;
shapes = (
{
closed = 1;
nodes = (
(432,708,l),
(432,717,l),
(92,774,l),
(92,650,l)
);
}
);
width = 500;
}
);
unicode = 772;
}
{
glyphname = dieresiscomb;
layers = (
{
anchors = (
{
name = _top;
pos = (261,557);
},
{
name = top;
pos = (261,760);
}
);
layerId = master01;
shapes = (
{
closed = 1;
nodes = (
(439,751,l),
(278,779,l),
(331,643,l)
);
},
{
closed = 1;
nodes = (
(223,751,l),
(63,779,l),
(116,643,l)
);
}
);
width = 500;
}
);
unicode = 776;
}
{
glyphname = ringcomb;
layers = (
{
anchors = (
{
name = _top;
pos = (300,557);
},
{
name = top;
pos = (300,798);
}
);
layerId = master01;
shapes = (
{
closed = 1;
nodes = (
(383,592,o),
(441,648,o),
(441,715,cs),
(441,751,o),
(424,790,o),
(384,825,c),
(304,782,l),
(334,767,o),
(345,745,o),
(345,724,cs),
(345,696,o),
(324,670,o),
(300,670,cs),
(268,670,o),
(249,695,o),
(249,726,cs),
(249,787,o),
(313,828,o),
(402,844,c),
(400,853,l),
(380,853,ls),
(242,853,o),
(175,793,o),
(175,717,cs),
(175,646,o),
(228,592,o),
(311,592,cs)
);
}
);
width = 600;
}
);
unicode = 778;
}
{
glyphname = hungarumlautcomb;
layers = (
{
anchors = (
{
name = _top;
pos = (261,557);
},
{
name = top;
pos = (261,760);
}
);
layerId = master01;
shapes = (
{
closed = 1;
nodes = (
(486,757,l),
(366,820,l),
(246,610,l),
(254,603,l)
);
},
{
closed = 1;
nodes = (
(286,757,l),
(166,820,l),
(46,610,l),
(54,603,l)
);
}
);
width = 500;
}
);
unicode = 779;
}
{
glyphname = caroncomb;
layers = (
{
anchors = (
{
name = _top;
pos = (249,557);
},
{
name = top;
pos = (249,760);
}
);
layerId = master01;
shapes = (
{
closed = 1;
nodes = (
(295,614,l),
(429,802,l),
(423,811,l),
(250,726,l),
(77,811,l),
(71,802,l),
(206,614,l)
);
}
);
width = 500;
}
);
unicode = 780;
}
{
glyphname = commaturnedabovecomb;
layers = (
{
anchors = (
{
name = _top;
pos = (261,557);
},
{
name = top;
pos = (261,794);
}
);
layerId = master01;
shapes = (
{
closed = 1;
nodes = (
(191,691,l),
(281,604,l),
(351,707,l),
(273,732,l),
(319,827,l),
(308,834,l)
);
}
);
width = 500;
}
);
unicode = 786;
}
{
glyphname = dotbelowcomb;
layers = (
{
anchors = (
{
name = _bottom;
pos = (271,0);
},
{
name = bottom;
pos = (271,-204);
}
);
layerId = master01;
shapes = (
{
closed = 1;
nodes = (
(351,-98,l),
(191,-70,l),
(244,-206,l)
);
}
);
width = 500;
}
);
unicode = 803;
}
{
color = 10;
glyphname = "numeral-greek";
layers = (
{
layerId = master01;
shapes = (
{
closed = 1;
nodes = (
(100,509,l),
(263,821,l),
(82,821,l),
(88,509,l)
);
}
);
width = 345;
}
);
unicode = 884;
}
{
color = 10;
glyphname = tonos;
layers = (
{
anchors = (
{
name = _top;
pos = (252,557);
}
);
layerId = master01;
shapes = (
{
closed = 1;
nodes = (
(359,769,l),
(228,802,l),
(191,626,l),
(201,621,l)
);
}
);
width = 500;
}
);
unicode = 900;
}
{
color = 10;
glyphname = dieresistonos;
layers = (
{
anchors = (
{
name = _top;
pos = (252,557);
}
);
layerId = master01;
shapes = (
{
closed = 1;
nodes = (
(469,751,l),
(308,779,l),
(361,643,l)
);
},
{
closed = 1;
nodes = (
(193,751,l),
(33,779,l),
(86,643,l)
);
},
{
closed = 1;
nodes = (
(325,805,l),
(194,831,l),
(197,653,l),
(207,650,l)
);
}
);
width = 500;
}
);
unicode = 901;
}
{
color = 10;
glyphname = anoteleia;
layers = (
{
layerId = master01;
shapes = (
{
closed = 1;
nodes = (
(329,424,l),
(86,466,l),
(166,260,l)
);
}
);
width = 400;
}
);
unicode = 903;
}
{
color = (153,254,255,255);
glyphname = Delta;
kernLeft = A;
kernRight = A;
layers = (
{
layerId = master01;
shapes = (
{
closed = 1;
nodes = (
(751,2,l),
(446,803,l),
(288,779,l),
(-1,-11,l)
);
},
{
closed = 1;
nodes = (
(128,121,l),
(367,589,l),
(584,80,l)
);
}
);
userData = {
public.verticalOrigin = "880";
};
vertWidth = 1000;
width = 753;
}
);
unicode = 916;
}
{
color = (153,254,255,255);
glyphname = Upsilon;
kernLeft = Y;
kernRight = Y;
layers = (
{
anchors = (
{
name = top;
pos = (416,780);
},
{
name = topleft;
pos = (24,780);
}
);
layerId = master01;
shapes = (
{
closed = 1;
nodes = (
(488,0,l),
(512,391,l),
(549,530,o),
(611,732,o),
(705,732,cs),
(739,732,o),
(778,713,o),
(822,685,c),
(829,695,l),
(781,756,o),
(715,801,o),
(653,801,cs),
(563,801,o),
(462,659,o),
(410,514,c),
(389,598,o),
(344,703,o),
(281,751,cs),
(224,794,o),
(166,795,o),
(81,795,c),
(16,623,l),
(49,630,o),
(81,635,o),
(110,635,cs),
(143,635,o),
(172,629,o),
(196,614,cs),
(280,563,o),
(311,466,o),
(335,389,c),
(359,0,l)
);
}
);
userData = {
public.verticalOrigin = "880";
};
vertWidth = 1000;
width = 827;
}
);
unicode = 933;
}
{
color = (153,254,255,255);
glyphname = Omega;
layers = (
{
anchors = (
{
name = topleft;
pos = (162,780);
}
);
layerId = master01;
shapes = (
{
closed = 1;
nodes = (
(845,54,l),
(845,63,l),
(625,126,l),
(741,183,o),
(802,293,o),
(802,392,cs),
(802,638,o),
(596,801,o),
(445,801,cs),
(293,801,o),
(85,640,o),
(85,392,cs),
(85,298,o),
(183,139,o),
(289,82,c),
(93,161,l),
(57,0,l),
(385,0,l),
(389,6,l),
(305,158,o),
(242,297,o),
(242,472,cs),
(242,617,o),
(322,714,o),
(414,714,cs),
(520,714,o),
(645,597,o),
(645,328,cs),
(645,266,o),
(587,166,o),
(513,136,c),
(536,-9,l)
);
}
);
userData = {
public.verticalOrigin = "880";
};
vertWidth = 1000;
width = 872;
}
);
unicode = 937;
}
{
color = 10;
glyphname = alpha;
kernLeft = o;
layers = (
{
anchors = (
{
name = top;
pos = (357,557);
}
);
background = {
shapes = (
{
closed = 1;
nodes = (
(333,-13,o),
(430,52,o),
(528,188,c),
(567,115,o),
(602,41,o),
(628,-12,c),
(636,-6,l),
(615,92,o),
(594,179,o),
(572,255,c),
(618,328,o),
(663,416,o),
(708,519,c),
(559,569,l),
(543,520,o),
(526,474,o),
(509,432,c),
(463,528,o),
(410,579,o),
(341,579,cs),
(211,579,o),
(38,353,o),
(38,176,cs),
(38,74,o),
(170,-13,o),
(250,-13,cs)
);
},
{
closed = 1;
nodes = (
(215,60,o),
(191,127,o),
(191,187,cs),
(191,193,o),
(191,200,o),
(192,206,cs),
(208,380,o),
(253,462,o),
(301,462,cs),
(346,462,o),
(402,398,o),
(456,313,c),
(377,152,o),
(296,60,o),
(246,60,cs)
);
}
);
};
layerId = master01;
shapes = (
{
closed = 1;
nodes = (
(364,-13,o),
(455,52,o),
(540,188,c),
(588,115,o),
(632,41,o),
(663,-12,c),
(670,-6,l),
(639,92,o),
(608,179,o),
(578,255,c),
(616,328,o),
(653,416,o),
(687,519,c),
(531,569,l),
(520,520,o),
(508,474,o),
(494,432,c),
(438,528,o),
(379,579,o),
(309,579,cs),
(203,579,o),
(38,398,o),
(38,235,cs),
(38,74,o),
(181,-13,o),
(279,-13,cs)
);
},
{
closed = 1;
nodes = (
(225,60,o),
(198,148,o),
(196,243,cs),
(194,380,o),
(232,462,o),
(280,462,cs),
(326,462,o),
(390,398,o),
(454,313,c),
(391,152,o),
(318,60,o),
(267,60,cs)
);
}
);
userData = {
public.verticalOrigin = "880";
};
vertWidth = 1000;
width = 727;
}
);
unicode = 945;
}
{
color = 10;
glyphname = beta;
layers = (
{
background = {
shapes = (
{
closed = 1;
nodes = (
(209,452,ls),
(244,641,o),
(308,731,o),
(367,731,cs),
(416,731,o),
(437,686,o),
(437,642,cs),
(437,634,o),
(436,626,o),
(435,618,cs),
(425,562,o),
(359,471,o),
(236,392,c),
(237,380,l),
(352,380,o),
(410,349,o),
(410,288,cs),
(410,280,o),
(409,271,o),
(407,262,cs),
(387,176,o),
(319,82,o),
(152,15,c),
(155,2,l),
(377,24,o),
(515,93,o),
(557,236,cs),
(560,246,o),
(561,257,o),
(561,267,cs),
(561,345,o),
(479,415,o),
(374,415,cs),
(368,415,o),
(363,414,o),
(357,414,c),
(484,455,o),
(570,540,o),
(586,614,cs),
(589,626,o),
(590,638,o),
(590,650,cs),
(590,735,o),
(519,803,o),
(370,803,cs),
(199,803,o),
(84,664,o),
(61,468,cs),
(-13,-166,l),
(93,-174,l)
);
}
);
};
layerId = master01;
shapes = (
{
closed = 1;
nodes = (
(210,-212,l),
(228,484,ls),
(232,641,o),
(266,731,o),
(357,739,cs),
(367,739,ls),
(421,739,o),
(455,700,o),
(455,623,cs),
(455,579,o),
(397,482,o),
(247,403,c),
(247,378,l),
(264,378,ls),
(443,378,o),
(476,318,o),
(476,277,cs),
(476,187,o),
(439,115,o),
(242,20,c),
(248,2,l),
(503,25,o),
(642,131,o),
(642,292,cs),
(642,367,o),
(575,443,o),
(426,443,cs),
(420,443,l),
(543,497,o),
(603,582,o),
(603,646,cs),
(603,724,o),
(543,799,o),
(396,799,cs),
(387,799,o),
(378,799,o),
(368,798,cs),
(214,789,o),
(70,685,o),
(70,486,cs),
(99,-212,l)
);
}
);
userData = {
public.verticalOrigin = "880";
};
width = 681;
}
);
metricLeft = germandbls;
metricRight = p;
unicode = 946;
}
{
color = 10;
glyphname = gamma;
kernLeft = y;
kernRight = y;
layers = (
{
background = {
shapes = (
{
closed = 1;
nodes = (
(607,571,l),
(596,571,l),
(326,80,l),
(330,123,o),
(332,167,o),
(332,210,cs),
(332,299,o),
(324,384,o),
(313,449,cs),
(298,542,o),
(219,576,o),
(99,579,c),
(27,449,l),
(40,449,ls),
(113,449,o),
(171,426,o),
(190,378,cs),
(227,285,o),
(261,127,o),
(261,30,cs),
(261,2,o),
(258,-20,o),
(251,-35,cs),
(222,-99,o),
(201,-130,o),
(201,-130,c),
(374,-174,l)
);
}
);
};
layerId = master01;
shapes = (
{
closed = 1;
nodes = (
(588,566,l),
(574,566,l),
(330,129,l),
(336,241,o),
(328,398,o),
(306,461,cs),
(278,542,o),
(219,576,o),
(99,579,c),
(27,449,l),
(40,449,ls),
(113,449,o),
(166,426,o),
(185,378,cs),
(222,286,o),
(256,125,o),
(256,55,cs),
(256,19,o),
(244,-23,o),
(224,-59,cs),
(170,-157,l),
(338,-229,l)
);
}
);
userData = {
public.verticalOrigin = "880";
};
width = 598;
}
);
metricLeft = y;
metricRight = y;
unicode = 947;
}
{
color = 10;
glyphname = delta;
kernLeft = d;
layers = (
{
background = {
shapes = (
{
closed = 1;
nodes = (
(440,-12,o),
(614,110,o),
(614,284,cs),
(614,428,o),
(471,579,o),
(318,649,c),
(632,649,l),
(584,780,l),
(122,723,l),
(189,677,o),
(253,631,o),
(320,555,cs),
(325,549,o),
(331,543,o),
(336,536,c),
(173,487,o),
(36,372,o),
(23,284,cs),
(22,276,o),
(21,267,o),
(21,259,cs),
(21,131,o),
(151,-12,o),
(279,-12,cs)
);
},
{
closed = 1;
nodes = (
(312,86,o),
(298,89,o),
(285,95,cs),
(232,119,o),
(191,166,o),
(191,244,cs),
(191,256,o),
(192,270,o),
(194,284,cs),
(209,380,o),
(273,455,o),
(356,511,c),
(413,438,o),
(450,362,o),
(450,268,cs),
(450,156,o),
(391,86,o),
(325,86,cs)
);
}
);
};
layerId = master01;
shapes = (
{
closed = 1;
nodes = (
(469,-12,o),
(630,94,o),
(630,249,cs),
(630,414,o),
(447,577,o),
(281,649,c),
(595,649,l),
(529,780,l),
(75,723,l),
(161,669,o),
(256,605,o),
(315,536,c),
(159,457,o),
(38,330,o),
(38,222,cs),
(38,103,o),
(182,-12,o),
(338,-12,cs)
);
},
{
closed = 1;
nodes = (
(277,86,o),
(198,142,o),
(199,239,cs),
(200,357,o),
(263,442,o),
(338,511,c),
(414,429,o),
(469,333,o),
(469,227,cs),
(469,139,o),
(409,86,o),
(352,86,cs)
);
}
);
userData = {
public.verticalOrigin = "880";
};
vertWidth = 1000;
width = 668;
}
);
metricLeft = o;
metricRight = o;
unicode = 948;
}
{
color = 10;
glyphname = epsilon;
kernLeft = e;
layers = (
{
anchors = (
{
name = top;
pos = (326,557);
}
);
background = {
shapes = (
{
closed = 1;
nodes = (
(372,-12,o),
(486,21,o),
(554,95,c),
(551,104,l),
(478,76,o),
(406,63,o),
(347,63,cs),
(266,63,o),
(210,87,o),
(210,132,cs),
(210,134,o),
(211,136,o),
(211,139,cs),
(216,175,o),
(280,255,o),
(452,256,c),
(442,349,l),
(302,364,o),
(256,395,o),
(256,437,cs),
(256,443,o),
(256,448,o),
(258,454,cs),
(266,485,o),
(301,499,o),
(339,499,cs),
(395,499,o),
(458,460,o),
(516,396,c),
(579,529,l),
(517,566,o),
(434,580,o),
(368,580,cs),
(234,580,o),
(137,520,o),
(109,436,cs),
(107,429,o),
(105,421,o),
(105,415,cs),
(105,361,o),
(174,320,o),
(269,309,c),
(168,296,o),
(49,220,o),
(36,135,cs),
(35,130,o),
(35,125,o),
(35,120,cs),
(35,35,o),
(144,-12,o),
(268,-12,cs)
);
}
);
};
layerId = master01;
shapes = (
{
closed = 1;
nodes = (
(367,-12,o),
(492,24,o),
(571,105,c),
(567,113,l),
(478,76,o),
(392,63,o),
(335,63,cs),
(256,63,o),
(196,82,o),
(196,140,cs),
(196,196,o),
(321,273,o),
(444,255,c),
(436,346,l),
(296,360,o),
(218,380,o),
(218,433,cs),
(218,464,o),
(259,493,o),
(302,493,cs),
(346,493,o),
(427,457,o),
(486,407,c),
(548,529,l),
(461,557,o),
(402,570,o),
(296,570,cs),
(163,570,o),
(67,487,o),
(67,426,cs),
(67,366,o),
(149,323,o),
(250,307,c),
(93,267,o),
(38,196,o),
(38,122,cs),
(38,70,o),
(93,-12,o),
(268,-12,cs)
);
}
);
userData = {
public.verticalOrigin = "880";
};
width = 579;
}
);
unicode = 949;
}
{
color = 10;
glyphname = zeta;
layers = (
{
background = {
shapes = (
{
closed = 1;
nodes = (
(605,81,l),
(476,184,l),
(427,129,o),
(344,78,o),
(266,78,cs),
(225,78,o),
(200,110,o),
(200,167,cs),
(200,218,o),
(220,290,o),
(267,375,cs),
(347,521,o),
(497,658,o),
(713,780,c),
(165,780,l),
(165,632,l),
(527,722,l),
(413,677,o),
(222,549,o),
(133,422,cs),
(74,338,o),
(44,249,o),
(44,174,cs),
(44,67,o),
(104,-12,o),
(224,-12,cs),
(285,-12,o),
(358,0,o),
(422,50,c),
(331,-197,l),
(342,-201,l)
);
}
);
};
layerId = master01;
shapes = (
{
closed = 1;
nodes = (
(605,81,l),
(476,184,l),
(427,129,o),
(344,78,o),
(266,78,cs),
(225,78,o),
(200,110,o),
(200,167,cs),
(200,334,o),
(374,553,o),
(606,780,c),
(69,780,l),
(69,632,l),
(469,722,l),
(226,566,o),
(44,357,o),
(44,174,cs),
(44,67,o),
(104,-12,o),
(224,-12,cs),
(285,-12,o),
(358,0,o),
(422,50,c),
(331,-197,l),
(342,-201,l)
);
}
);
userData = {
public.verticalOrigin = "880";
};
vertWidth = 1000;
width = 628;
}
);
unicode = 950;
}
{
color = (153,254,255,255);
glyphname = eta;
layers = (
{
layerId = master01;
shapes = (
{
closed = 1;
nodes = (
(524,-57,o),
(616,219,o),
(624,404,cs),
(624,419,ls),
(624,511,o),
(589,580,o),
(503,580,cs),
(428,580,o),
(340,512,o),
(305,452,c),
(289,541,o),
(207,580,o),
(92,580,c),
(27,441,l),
(38,442,o),
(48,443,o),
(57,443,cs),
(130,443,o),
(175,407,o),
(175,377,cs),
(175,375,ls),
(171,288,o),
(68,24,o),
(68,24,c),
(229,-13,l),
(229,-13,o),
(264,229,o),
(298,330,cs),
(319,394,o),
(359,441,o),
(400,445,cs),
(407,445,ls),
(444,445,o),
(463,415,o),
(463,347,cs),
(463,342,ls),
(461,172,o),
(444,-26,o),
(410,-203,c),
(421,-207,l)
);
}
);
userData = {
public.verticalOrigin = "880";
};
vertWidth = 1000;
width = 663;
}
);
unicode = 951;
}
{
color = 10;
glyphname = theta;
layers = (
{
background = {
shapes = (
{
closed = 1;
nodes = (
(427,-12,o),
(570,147,o),
(597,418,cs),
(599,436,o),
(600,453,o),
(600,470,cs),
(600,663,o),
(488,789,o),
(358,789,cs),
(205,789,o),
(59,587,o),
(37,380,cs),
(35,361,o),
(34,342,o),
(34,324,cs),
(34,122,o),
(156,-12,o),
(275,-12,cs)
);
},
{
closed = 1;
nodes = (
(231,66,o),
(187,180,o),
(187,290,cs),
(187,300,o),
(187,309,o),
(188,319,c),
(446,399,l),
(426,218,o),
(347,66,o),
(291,66,cs)
);
},
{
closed = 1;
nodes = (
(214,457,l),
(234,567,o),
(288,710,o),
(343,710,cs),
(398,710,o),
(448,597,o),
(448,446,cs),
(448,425,l)
);
}
);
};
layerId = master01;
shapes = (
{
closed = 1;
nodes = (
(506,-12,o),
(594,213,o),
(594,382,cs),
(594,574,o),
(495,789,o),
(316,789,cs),
(163,789,o),
(38,587,o),
(38,380,cs),
(38,171,o),
(170,-12,o),
(317,-12,cs)
);
},
{
closed = 1;
nodes = (
(248,66,o),
(196,236,o),
(195,319,c),
(445,399,l),
(444,218,o),
(381,66,o),
(325,66,cs)
);
},
{
closed = 1;
nodes = (
(207,457,l),
(215,567,o),
(254,710,o),
(309,710,cs),
(364,710,o),
(426,597,o),
(444,425,c)
);
}
);
userData = {
public.verticalOrigin = "880";
};
vertWidth = 1000;
width = 632;
}
);
metricLeft = o;
metricRight = o;
unicode = 952;
}
{
color = 10;
glyphname = iota;
layers = (
{
background = {
shapes = (
{
closed = 1;
nodes = (
(315,-6,l),
(243,84,o),
(214,146,o),
(214,200,cs),
(214,210,o),
(215,220,o),
(217,229,cs),
(284,567,l),
(111,567,l),
(72,219,ls),
(72,215,o),
(71,210,o),
(71,206,cs),
(71,122,o),
(148,58,o),
(312,-12,c)
);
}
);
};
layerId = master01;
shapes = (
{
closed = 1;
nodes = (
(338,-6,l),
(281,55,o),
(228,148,o),
(231,229,cs),
(244,567,l),
(71,567,l),
(87,219,ls),
(93,90,o),
(218,35,o),
(335,-12,c)
);
}
);
userData = {
public.verticalOrigin = "880";
};
vertWidth = 1000;
width = 332;
}
);
unicode = 953;
}
{
color = 10;
glyphname = kappa;
layers = (
{
background = {
shapes = (
{
closed = 1;
nodes = (
(459,-12,o),
(522,33,o),
(616,137,c),
(612,145,l),
(550,114,o),
(509,95,o),
(478,95,cs),
(419,95,o),
(401,168,o),
(360,376,c),
(570,543,l),
(388,581,l),
(163,258,l),
(237,568,l),
(65,578,l),
(-13,0,l),
(102,0,l),
(152,211,l),
(238,279,l),
(299,100,o),
(337,-12,o),
(412,-12,cs)
);
}
);
};
layerId = master01;
shapes = (
{
closed = 1;
nodes = (
(570,540,l),
(396,570,l),
(234,290,l),
(249,558,l),
(74,558,l),
(95,0,l),
(218,0,l),
(227,169,l)
);
},
{
closed = 1;
nodes = (
(253,290,l),
(348,135,ls),
(404,44,o),
(457,-12,o),
(490,-12,cs),
(526,-12,o),
(554,22,o),
(607,101,c),
(601,108,l),
(561,77,o),
(546,70,o),
(528,70,cs),
(510,70,o),
(492,95,o),
(469,149,cs),
(357,416,l)
);
}
);
userData = {
public.verticalOrigin = "880";
};
width = 607;
}
);
metricLeft = k;
metricRight = k;
unicode = 954;
}
{
color = 10;
glyphname = lambda;
layers = (
{
background = {
shapes = (
{
closed = 1;
nodes = (
(321,350,l),
(374,135,ls),
(397,43,o),
(432,-12,o),
(488,-12,cs),
(532,-12,o),
(588,22,o),
(659,101,c),
(654,110,l),
(596,84,o),
(560,70,o),
(536,70,cs),
(504,70,o),
(495,95,o),
(487,149,cs),
(407,665,ls),
(392,761,o),
(312,798,o),
(158,798,c),
(86,650,l),
(107,652,o),
(126,653,o),
(142,653,cs),
(217,653,o),
(251,635,o),
(259,602,cs),
(274,543,l),
(-12,-13,l),
(1,-17,l)
);
}
);
};
layerId = master01;
shapes = (
{
closed = 1;
nodes = (
(318,368,l),
(405,135,ls),
(438,42,o),
(481,-12,o),
(537,-12,cs),
(581,-12,o),
(622,22,o),
(684,101,c),
(678,110,l),
(633,84,o),
(599,70,o),
(575,70,cs),
(543,70,o),
(533,95,o),
(517,149,cs),
(366,665,ls),
(338,761,o),
(262,798,o),
(108,798,c),
(54,650,l),
(75,652,o),
(94,653,o),
(110,653,cs),
(185,653,o),
(221,635,o),
(233,602,cs),
(255,543,l),
(-1,-13,l),
(13,-17,l)
);
}
);
userData = {
public.verticalOrigin = "880";
};
vertWidth = 1000;
width = 671;
}
);
metricLeft = A;
metricRight = x;
unicode = 955;
}
{
color = 10;
glyphname = mu;
kernLeft = u;
layers = (
{
background = {
shapes = (
{
closed = 1;
nodes = (
(173,75,l),
(182,20,o),
(234,-11,o),
(276,-12,cs),
(278,-12,ls),
(310,-12,o),
(372,13,o),
(396,53,c),
(407,18,o),
(436,-13,o),
(477,-13,cs),
(521,-13,o),
(579,24,o),
(641,138,c),
(640,148,l),
(604,124,o),
(578,114,o),
(559,114,cs),
(533,114,o),
(523,133,o),
(523,159,cs),
(523,168,ls),
(530,250,o),
(595,551,o),
(595,551,c),
(443,579,l),
(443,579,o),
(412,292,o),
(381,191,cs),
(369,152,o),
(323,129,o),
(280,129,cs),
(240,129,o),
(200,194,o),
(197,227,cs),
(186,334,o),
(185,492,o),
(185,557,cs),
(185,587,l),
(173,585,l),
(-23,-149,l),
(144,-175,l)
);
}
);
};
layerId = master01;
shapes = (
{
closed = 1;
nodes = (
(549,-13,o),
(601,26,o),
(659,80,c),
(655,86,l),
(636,82,o),
(621,79,o),
(610,79,cs),
(578,79,o),
(573,98,o),
(573,146,cs),
(573,173,l),
(587,557,l),
(417,557,l),
(448,96,ls),
(453,16,o),
(477,-13,o),
(511,-13,cs)
);
},
{
closed = 1;
nodes = (
(214,-2,l),
(235,-9,o),
(259,-12,o),
(290,-12,cs),
(351,-12,o),
(416,38,o),
(449,96,c),
(445,158,l),
(395,118,o),
(345,101,o),
(308,101,cs),
(280,101,o),
(219,118,o),
(221,177,cs),
(233,557,l),
(57,557,l),
(96,-212,l),
(207,-212,l)
);
}
);
userData = {
public.verticalOrigin = "880";
};
vertWidth = 1000;
width = 673;
}
);
metricLeft = u;
metricRight = u;
unicode = 956;
}
{
color = 10;
glyphname = nu;
kernLeft = v;
layers = (
{
background = {
shapes = (
{
closed = 1;
nodes = (
(567,580,l),
(556,580,l),
(251,200,l),
(201,579,l),
(25,559,l),
(181,0,l),
(336,-15,l)
);
}
);
};
layerId = master01;
shapes = (
{
ref = v;
}
);
userData = {
public.verticalOrigin = "880";
};
width = 574;
}
);
unicode = 957;
}
{
color = (153,254,255,255);
glyphname = xi;
layers = (
{
layerId = master01;
shapes = (
{
closed = 1;
nodes = (
(650,81,l),
(521,184,l),
(472,129,o),
(376,78,o),
(310,78,cs),
(260,78,o),
(224,104,o),
(224,153,cs),
(224,159,o),
(225,165,o),
(226,172,cs),
(241,264,o),
(332,352,o),
(487,352,c),
(472,454,l),
(459,452,o),
(447,452,o),
(435,452,cs),
(349,452,o),
(299,493,o),
(299,531,cs),
(299,534,o),
(300,536,o),
(300,539,c),
(307,581,o),
(449,676,o),
(651,780,c),
(69,780,l),
(69,644,l),
(430,706,l),
(284,668,o),
(149,592,o),
(131,512,cs),
(130,509,o),
(130,506,o),
(130,504,cs),
(130,460,o),
(197,396,o),
(309,396,cs),
(323,396,l),
(203,370,o),
(62,274,o),
(45,158,cs),
(44,152,o),
(44,145,o),
(44,139,cs),
(44,57,o),
(119,-12,o),
(213,-12,cs),
(274,-12,o),
(404,12,o),
(467,50,c),
(376,-197,l),
(387,-201,l)
);
}
);
userData = {
public.verticalOrigin = "880";
};
vertWidth = 1000;
width = 673;
}
);
unicode = 958;
}
{
color = 10;
glyphname = omicron;
kernLeft = o;
layers = (
{
anchors = (
{
name = top;
pos = (331,557);
}
);
background = {
shapes = (
{
closed = 1;
nodes = (
(444,-12,o),
(617,149,o),
(642,281,cs),
(643,289,o),
(644,297,o),
(644,306,cs),
(644,433,o),
(493,580,o),
(368,580,cs),
(235,580,o),
(63,413,o),
(40,281,cs),
(38,272,o),
(38,263,o),
(38,254,cs),
(38,129,o),
(185,-12,o),
(308,-12,cs)
);
},
{
closed = 1;
nodes = (
(270,83,o),
(189,208,o),
(189,307,cs),
(189,315,o),
(190,323,o),
(191,331,cs),
(205,428,o),
(288,481,o),
(350,481,cs),
(409,481,o),
(490,350,o),
(490,252,cs),
(490,245,o),
(490,238,o),
(489,231,cs),
(474,134,o),
(391,83,o),
(328,83,cs)
);
}
);
};
layerId = master01;
shapes = (
{
ref = o;
}
);
userData = {
public.verticalOrigin = "880";
};
width = 662;
}
);
unicode = 959;
}
{
color = 10;
glyphname = pi;
layers = (
{
background = {
shapes = (
{
closed = 1;
nodes = (
(603,-5,l),
(529,88,o),
(497,159,o),
(497,209,cs),
(497,216,o),
(498,223,o),
(499,229,cs),
(553,506,l),
(698,530,l),
(698,537,l),
(22,567,l),
(16,419,l),
(102,433,l),
(36,0,l),
(150,0,l),
(267,460,l),
(399,481,l),
(375,219,ls),
(375,214,o),
(374,209,o),
(374,204,cs),
(374,120,o),
(438,58,o),
(600,-12,c)
);
}
);
};
layerId = master01;
shapes = (
{
closed = 1;
nodes = (
(669,-6,l),
(612,55,o),
(558,148,o),
(562,229,cs),
(575,504,l),
(402,504,l),
(418,219,ls),
(425,90,o),
(549,35,o),
(666,-12,c)
);
},
{
closed = 1;
nodes = (
(698,519,l),
(698,529,l),
(15,565,l),
(15,403,l)
);
},
{
closed = 1;
nodes = (
(251,0,l),
(277,481,l),
(101,481,l),
(127,0,l)
);
}
);
userData = {
public.verticalOrigin = "880";
};
vertWidth = 1000;
width = 691;
}
);
metricLeft = "te-cy";
metricRight = "te-cy";
unicode = 960;
}
{
color = 10;
glyphname = rho;
layers = (
{
background = {
shapes = (
{
closed = 1;
nodes = (
(151,68,l),
(243,13,o),
(324,-12,o),
(389,-12,cs),
(510,-12,o),
(579,75,o),
(579,227,cs),
(579,242,o),
(578,258,o),
(577,274,cs),
(564,426,o),
(453,579,o),
(315,579,cs),
(166,579,o),
(58,477,o),
(42,330,cs),
(-14,-169,l),
(100,-177,l)
);
},
{
closed = 1;
nodes = (
(239,81,o),
(201,85,o),
(156,93,c),
(184,228,ls),
(223,416,o),
(249,507,o),
(326,507,cs),
(376,507,o),
(420,423,o),
(426,338,cs),
(428,314,o),
(429,292,o),
(429,272,cs),
(429,133,o),
(385,81,o),
(272,81,cs)
);
}
);
};
layerId = master01;
shapes = (
{
closed = 1;
nodes = (
(209,-212,l),
(227,255,ls),
(233,412,o),
(265,510,o),
(366,510,cs),
(420,510,o),
(477,465,o),
(477,273,cs),
(477,134,o),
(408,75,o),
(347,75,c),
(286,75,o),
(249,85,o),
(209,105,c),
(209,82,l),
(249,31,o),
(338,-12,o),
(424,-12,cs),
(510,-12,o),
(625,61,o),
(625,223,cs),
(625,394,o),
(542,570,o),
(378,570,cs),
(217,570,o),
(57,457,o),
(69,257,cs),
(98,-212,l)
);
}
);
userData = {
public.verticalOrigin = "880";
};
width = 664;
}
);
metricLeft = p;
metricRight = p;
unicode = 961;
}
{
color = 10;
glyphname = sigma;
kernLeft = o;
layers = (
{
background = {
shapes = (
{
closed = 1;
nodes = (
(455,-12,o),
(594,121,o),
(623,281,cs),
(624,289,o),
(625,297,o),
(625,304,cs),
(625,363,o),
(588,425,o),
(544,473,c),
(716,420,l),
(747,568,l),
(359,568,ls),
(195,568,o),
(64,413,o),
(41,281,cs),
(39,272,o),
(38,262,o),
(38,252,cs),
(38,127,o),
(176,-12,o),
(299,-12,cs)
);
},
{
closed = 1;
nodes = (
(261,73,o),
(190,206,o),
(190,305,cs),
(190,314,o),
(191,323,o),
(192,331,cs),
(207,428,o),
(279,479,o),
(341,479,cs),
(399,479,o),
(472,352,o),
(472,255,cs),
(472,247,o),
(471,239,o),
(470,231,cs),
(455,134,o),
(382,73,o),
(319,73,cs)
);
}
);
};
layerId = master01;
shapes = (
{
closed = 1;
nodes = (
(459,-12,o),
(624,102,o),
(624,278,cs),
(624,455,o),
(459,570,o),
(332,570,cs),
(205,570,o),
(38,455,o),
(38,278,cs),
(38,102,o),
(205,-12,o),
(332,-12,cs)
);
},
{
closed = 1;
nodes = (
(291,60,o),
(191,154,o),
(191,318,cs),
(191,454,o),
(231,495,o),
(302,495,cs),
(373,495,o),
(471,418,o),
(471,238,cs),
(471,103,o),
(433,60,o),
(362,60,cs)
);
},
{
closed = 1;
nodes = (
(747,570,l),
(332,570,l),
(381,526,l),
(727,418,l)
);
}
);
userData = {
public.verticalOrigin = "880";
};
width = 782;
}
);
metricLeft = o;
metricRight = F;
unicode = 963;
}
{
color = 10;
glyphname = tau;
layers = (
{
layerId = master01;
shapes = (
{
closed = 1;
nodes = (
(461,-6,l),
(404,55,o),
(350,148,o),
(354,229,cs),
(367,500,l),
(194,500,l),
(210,219,ls),
(217,90,o),
(341,35,o),
(458,-12,c)
);
},
{
closed = 1;
nodes = (
(575,508,l),
(575,518,l),
(15,565,l),
(15,403,l)
);
}
);
userData = {
public.verticalOrigin = "880";
};
vertWidth = 1000;
width = 568;
}
);
metricLeft = "te-cy";
metricRight = "te-cy";
unicode = 964;
}
{
color = 10;
glyphname = upsilon;
layers = (
{
background = {
shapes = (
{
closed = 1;
nodes = (
(410,-12,o),
(496,74,o),
(514,258,cs),
(546,580,l),
(535,582,l),
(394,268,ls),
(333,133,o),
(256,84,o),
(201,84,cs),
(163,84,o),
(139,127,o),
(139,179,cs),
(139,196,o),
(141,214,o),
(147,232,cs),
(242,538,l),
(57,568,l),
(10,252,ls),
(8,239,o),
(7,226,o),
(7,213,cs),
(7,71,o),
(132,-12,o),
(228,-12,cs)
);
}
);
};
layerId = master01;
shapes = (
{
closed = 1;
nodes = (
(463,-20,o),
(569,61,o),
(563,194,cs),
(547,567,l),
(534,567,l),
(443,228,ls),
(417,130,o),
(386,76,o),
(310,76,cs),
(232,76,o),
(208,135,o),
(212,207,cs),
(233,557,l),
(57,557,l),
(67,217,ls),
(72,46,o),
(159,-20,o),
(310,-20,cs)
);
}
);
userData = {
public.verticalOrigin = "880";
};
width = 620;
}
);
metricLeft = u;
unicode = 965;
}
{
color = (153,254,255,255);
glyphname = phi;
layers = (
{
layerId = master01;
shapes = (
{
closed = 1;
nodes = (
(381,-11,l),
(508,0,o),
(684,116,o),
(684,283,cs),
(684,411,o),
(582,509,o),
(477,554,c),
(515,774,l),
(358,790,l),
(333,578,l),
(207,562,o),
(38,447,o),
(38,283,cs),
(38,149,o),
(153,47,o),
(264,6,c),
(243,-163,l),
(353,-175,l)
);
},
{
closed = 1;
nodes = (
(224,156,o),
(181,230,o),
(181,323,cs),
(181,454,o),
(255,501,o),
(324,505,c),
(276,110,l)
);
},
{
closed = 1;
nodes = (
(459,446,l),
(504,403,o),
(541,336,o),
(541,243,cs),
(541,108,o),
(463,56,o),
(393,56,c)
);
}
);
userData = {
public.verticalOrigin = "880";
};
vertWidth = 1000;
width = 722;
}
);
unicode = 966;
}
{
color = 10;
glyphname = chi;
layers = (
{
background = {
shapes = (
{
closed = 1;
nodes = (
(265,64,l),
(293,-36,ls),
(319,-127,o),
(351,-184,o),
(407,-184,cs),
(451,-184,o),
(507,-149,o),
(578,-71,c),
(573,-61,l),
(515,-87,o),
(479,-101,o),
(455,-101,cs),
(423,-101,o),
(415,-76,o),
(406,-22,cs),
(363,228,l),
(566,566,l),
(416,576,l),
(325,397,l),
(323,447,ls),
(319,541,o),
(241,580,o),
(125,580,c),
(49,432,l),
(78,436,o),
(101,439,o),
(120,439,cs),
(163,439,o),
(182,427,o),
(190,399,cs),
(235,233,l),
(16,-165,l),
(114,-187,l)
);
}
);
};
layerId = master01;
shapes = (
{
closed = 1;
nodes = (
(525,-205,o),
(574,-170,o),
(630,-92,c),
(623,-82,l),
(570,-108,o),
(537,-122,o),
(513,-122,cs),
(481,-122,o),
(468,-97,o),
(448,-43,cs),
(275,447,ls),
(241,540,o),
(167,580,o),
(74,580,c),
(3,432,l),
(32,436,o),
(54,439,o),
(73,439,cs),
(116,439,o),
(139,427,o),
(151,399,cs),
(338,-57,ls),
(378,-149,o),
(425,-205,o),
(481,-205,cs)
);
},
{
closed = 1;
nodes = (
(119,-208,l),
(576,566,l),
(426,576,l),
(21,-186,l)
);
}
);
userData = {
public.verticalOrigin = "880";
};
vertWidth = 1000;
width = 617;
}
);
metricRight = x;
unicode = 967;
}
{
color = 10;
glyphname = psi;
kernLeft = u;
layers = (
{
background = {
shapes = (
{
closed = 1;
nodes = (
(395,-4,l),
(552,8,o),
(659,90,o),
(676,258,cs),
(708,580,l),
(697,582,l),
(556,268,ls),
(515,177,o),
(471,128,o),
(414,106,c),
(528,774,l),
(371,790,l),
(287,92,l),
(223,102,o),
(187,140,o),
(187,196,cs),
(187,207,o),
(188,219,o),
(191,232,cs),
(266,538,l),
(101,568,l),
(54,252,ls),
(52,240,o),
(51,228,o),
(51,216,cs),
(51,95,o),
(149,19,o),
(276,0,c),
(256,-163,l),
(366,-175,l)
);
}
);
};
layerId = master01;
shapes = (
{
closed = 1;
nodes = (
(568,-20,o),
(695,96,o),
(686,217,cs),
(659,567,l),
(646,567,l),
(566,248,ls),
(541,150,o),
(511,89,o),
(397,78,cs),
(281,67,o),
(230,89,o),
(231,217,cs),
(233,557,l),
(57,557,l),
(86,227,ls),
(103,34,o),
(223,-20,o),
(397,-20,cs)
);
},
{
closed = 1;
nodes = (
(486,780,l),
(311,780,l),
(345,-212,l),
(456,-212,l)
);
}
);
userData = {
public.verticalOrigin = "880";
};
vertWidth = 1000;
width = 743;
}
);
metricLeft = u;
unicode = 968;
}
{
color = 10;
glyphname = omega;
kernLeft = o;
layers = (
{
anchors = (
{
name = top;
pos = (461,557);
}
);
background = {
shapes = (
{
closed = 1;
nodes = (
(286,-12,o),
(372,36,o),
(400,95,c),
(427,42,o),
(521,-12,o),
(579,-12,cs),
(695,-12,o),
(832,122,o),
(832,308,cs),
(832,389,o),
(711,510,o),
(593,577,c),
(585,572,l),
(651,462,o),
(673,359,o),
(673,302,cs),
(673,181,o),
(640,61,o),
(603,61,cs),
(556,61,o),
(509,131,o),
(509,228,cs),
(509,241,o),
(510,255,o),
(512,269,cs),
(516,301,o),
(534,366,o),
(534,366,c),
(394,394,l),
(394,394,o),
(383,316,o),
(375,273,cs),
(358,181,o),
(297,67,o),
(265,67,cs),
(208,67,o),
(177,163,o),
(177,246,cs),
(177,299,o),
(253,404,o),
(347,452,c),
(240,577,l),
(115,472,o),
(36,338,o),
(36,229,cs),
(36,136,o),
(140,-12,o),
(219,-12,cs)
);
}
);
};
layerId = master01;
shapes = (
{
closed = 1;
nodes = (
(296,-12,o),
(386,36,o),
(412,95,c),
(440,42,o),
(531,-12,o),
(589,-12,cs),
(705,-12,o),
(831,86,o),
(831,285,cs),
(831,404,o),
(703,510,o),
(583,577,c),
(575,572,l),
(645,462,o),
(672,359,o),
(672,286,cs),
(672,174,o),
(659,61,o),
(611,61,cs),
(564,61,o),
(514,131,o),
(511,228,cs),
(510,241,o),
(510,255,o),
(511,269,cs),
(514,301,o),
(524,377,o),
(524,377,c),
(383,394,l),
(383,394,o),
(382,316,o),
(375,273,cs),
(362,181,o),
(317,67,o),
(253,67,cs),
(216,67,o),
(178,115,o),
(178,202,cs),
(178,310,o),
(250,401,o),
(334,452,c),
(223,577,l),
(111,472,o),
(38,338,o),
(38,229,cs),
(38,95,o),
(150,-12,o),
(229,-12,cs)
);
}
);
userData = {
public.verticalOrigin = "880";
};
vertWidth = 1000;
width = 869;
}
);
metricLeft = o;
metricRight = o;
unicode = 969;
}
{
color = (153,254,255,255);
glyphname = "Io-cy";
layers = (
{
layerId = master01;
shapes = (
{
closed = 1;
nodes = (
(545,908,l),
(393,934,l),
(443,805,l)
);
},
{
ref = "Ie-cy";
},
{
closed = 1;
nodes = (
(308,908,l),
(156,934,l),
(206,805,l)
);
}
);
userData = {
public.verticalOrigin = "880";
};
width = 689;
}
);
metricLeft = E;
metricRight = E;
unicode = 1025;
}
{
color = 10;
glyphname = "Lje-cy";
layers = (
{
layerId = master01;
shapes = (
{
closed = 1;
nodes = (
(205,76,o),
(257,164,o),
(262,261,cs),
(281,662,l),
(505,624,l),
(534,-13,l),
(659,11,l),
(680,790,l),
(283,700,l),
(287,780,l),
(113,780,l),
(140,269,l),
(140,256,ls),
(140,189,o),
(111,91,o),
(32,-13,c),
(37,-21,l)
);
},
{
closed = 1;
nodes = (
(534,-13,l),
(900,-13,o),
(1074,99,o),
(1074,270,cs),
(1074,416,o),
(992,493,o),
(822,493,cs),
(773,493,o),
(716,487,o),
(651,473,c),
(649,386,l),
(677,389,o),
(706,391,o),
(730,391,cs),
(862,391,o),
(899,349,o),
(899,263,cs),
(899,181,o),
(880,76,o),
(628,28,c)
);
}
);
width = 1083;
}
);
unicode = 1033;
}
{
color = 10;
glyphname = "Tshe-cy";
kernLeft = T;
layers = (
{
layerId = master01;
shapes = (
{
ref = T;
},
{
closed = 1;
nodes = (
(661,0,l),
(791,0,l),
(800,241,ls),
(807,407,o),
(700,490,o),
(541,490,cs),
(492,490,o),
(431,475,o),
(377,456,c),
(374,394,l),
(406,400,o),
(430,401,o),
(455,400,cs),
(581,395,o),
(648,340,o),
(651,261,cs)
);
}
);
width = 874;
}
);
metricLeft = T;
metricRight = h;
unicode = 1035;
}
{
color = (153,254,255,255);
glyphname = "Ge-cy";
kernRight = T;
layers = (
{
layerId = master01;
shapes = (
{
closed = 1;
nodes = (
(253,0,l),
(267,663,l),
(610,628,l),
(610,790,l),
(268,705,l),
(270,780,l),
(88,780,l),
(125,0,l)
);
}
);
userData = {
public.verticalOrigin = "880";
};
vertWidth = 1000;
width = 645;
}
);
unicode = 1043;
}
{
color = (153,254,255,255);
glyphname = "Ze-cy";
layers = (
{
layerId = master01;
shapes = (
{
closed = 1;
nodes = (
(579,-21,o),
(668,141,o),
(668,246,cs),
(668,346,o),
(579,433,o),
(424,433,c),
(562,473,o),
(618,535,o),
(627,604,cs),
(628,609,o),
(628,613,o),
(628,618,cs),
(628,702,o),
(535,801,o),
(381,801,cs),
(240,801,o),
(141,774,o),
(49,682,c),
(133,576,l),
(210,666,o),
(289,701,o),
(370,701,cs),
(423,701,o),
(465,653,o),
(465,591,cs),
(465,534,o),
(382,456,o),
(179,414,c),
(228,312,l),
(311,342,o),
(368,354,o),
(408,354,cs),
(495,354,o),
(497,298,o),
(497,259,cs),
(497,253,ls),
(497,175,o),
(454,84,o),
(340,71,cs),
(333,70,o),
(325,70,o),
(316,70,cs),
(246,70,o),
(143,100,o),
(37,172,c),
(32,162,l),
(116,40,o),
(258,-21,o),
(340,-21,cs)
);
}
);
userData = {
public.verticalOrigin = "880";
};
vertWidth = 1000;
width = 716;
}
);
unicode = 1047;
}
{
color = (153,254,255,255);
glyphname = "Softsign-cy";
layers = (
{
layerId = master01;
shapes = (
{
closed = 1;
nodes = (
(491,-13,o),
(703,109,o),
(703,276,cs),
(703,413,o),
(614,496,o),
(432,496,cs),
(383,496,o),
(328,490,o),
(265,477,c),
(270,780,l),
(88,780,l),
(125,-13,l)
);
},
{
closed = 1;
nodes = (
(261,388,l),
(283,389,o),
(303,390,o),
(321,390,cs),
(478,390,o),
(528,343,o),
(528,273,cs),
(528,194,o),
(477,85,o),
(254,34,c)
);
}
);
userData = {
public.verticalOrigin = "880";
};
vertWidth = 1000;
width = 712;
}
);
unicode = 1068;
}
{
color = (153,254,255,255);
glyphname = "Ereversed-cy";
layers = (
{
layerId = master01;
shapes = (
{
closed = 1;
nodes = (
(572,-19,o),
(696,186,o),
(696,335,cs),
(696,655,o),
(512,801,o),
(336,801,cs),
(233,801,o),
(124,780,o),
(39,736,c),
(95,573,l),
(179,658,o),
(271,702,o),
(366,702,cs),
(454,702,o),
(523,548,o),
(529,407,c),
(257,473,l),
(257,326,l),
(529,369,l),
(524,238,o),
(474,102,o),
(337,89,cs),
(332,89,o),
(328,88,o),
(323,88,cs),
(242,88,o),
(144,152,o),
(42,280,c),
(32,270,l),
(105,87,o),
(204,-19,o),
(337,-19,cs)
);
}
);
userData = {
public.verticalOrigin = "880";
};
vertWidth = 1000;
width = 744;
}
);
unicode = 1069;
}
{
color = (153,254,255,255);
glyphname = "ze-cy";
layers = (
{
layerId = master01;
shapes = (
{
closed = 1;
nodes = (
(437,-12,o),
(541,70,o),
(541,174,cs),
(541,244,o),
(479,307,o),
(370,309,c),
(471,325,o),
(512,372,o),
(512,432,cs),
(512,493,o),
(416,570,o),
(298,570,cs),
(181,570,o),
(100,547,o),
(40,487,c),
(121,401,l),
(160,458,o),
(244,482,o),
(290,482,cs),
(327,482,o),
(361,467,o),
(361,423,cs),
(361,383,o),
(283,355,o),
(141,325,c),
(175,228,l),
(215,243,o),
(249,249,o),
(276,249,cs),
(351,249,o),
(383,207,o),
(383,179,cs),
(383,118,o),
(345,74,o),
(269,64,cs),
(262,63,o),
(254,63,o),
(244,63,cs),
(187,63,o),
(88,79,o),
(11,120,c),
(8,113,l),
(67,28,o),
(212,-12,o),
(269,-12,cs)
);
}
);
userData = {
public.verticalOrigin = "880";
};
vertWidth = 1000;
width = 579;
}
);
unicode = 1079;
}
{
color = (153,254,255,255);
glyphname = "ii-cy";
layers = (
{
layerId = master01;
shapes = (
{
closed = 1;
nodes = (
(130,-13,l),
(441,333,l),
(532,-13,l),
(548,-13,l),
(602,557,l),
(438,557,l),
(201,172,l),
(241,557,l),
(60,557,l),
(113,-13,l)
);
}
);
userData = {
public.verticalOrigin = "880";
};
vertWidth = 1000;
width = 676;
}
);
unicode = 1080;
}
{
color = (153,254,255,255);
glyphname = "ka-cy";
layers = (
{
layerId = master01;
shapes = (
{
closed = 1;
nodes = (
(599,-13,l),
(385,341,l),
(570,540,l),
(396,570,l),
(234,290,l),
(249,558,l),
(74,558,l),
(95,0,l),
(218,0,l),
(227,169,l),
(287,234,l),
(589,-13,l)
);
}
);
userData = {
public.verticalOrigin = "880";
};
vertWidth = 1000;
width = 599;
}
);
unicode = 1082;
}
{
color = (153,254,255,255);
glyphname = "el-cy";
layers = (
{
layerId = master01;
shapes = (
{
closed = 1;
nodes = (
(169,41,o),
(213,105,o),
(218,176,cs),
(238,465,l),
(436,418,l),
(458,0,l),
(581,0,l),
(604,567,l),
(239,477,l),
(244,557,l),
(69,557,l),
(95,182,l),
(95,169,ls),
(95,122,o),
(79,70,o),
(12,-14,c),
(16,-22,l)
);
}
);
userData = {
public.verticalOrigin = "880";
};
vertWidth = 1000;
width = 678;
}
);
unicode = 1083;
}
{
color = (153,254,255,255);
glyphname = "pe-cy";
layers = (
{
layerId = master01;
shapes = (
{
closed = 1;
nodes = (
(209,0,l),
(230,462,l),
(427,418,l),
(449,0,l),
(572,0,l),
(595,567,l),
(231,477,l),
(235,557,l),
(60,557,l),
(86,0,l)
);
}
);
userData = {
public.verticalOrigin = "880";
};
vertWidth = 1000;
width = 669;
}
);
unicode = 1087;
}
{
color = (153,254,255,255);
glyphname = "te-cy";
layers = (
{
layerId = master01;
shapes = (
{
closed = 1;
nodes = (
(345,0,l),
(369,469,l),
(575,508,l),
(575,518,l),
(15,565,l),
(15,403,l),
(194,436,l),
(217,0,l)
);
}
);
userData = {
public.verticalOrigin = "880";
};
vertWidth = 1000;
width = 568;
}
);
unicode = 1090;
}
{
color = (153,254,255,255);
glyphname = "ef-cy";
kernLeft = q;
layers = (
{
layerId = master01;
shapes = (
{
closed = 1;
nodes = (
(550,-212,l),
(556,-6,l),
(804,23,o),
(944,155,o),
(944,346,cs),
(944,473,o),
(883,570,o),
(756,570,cs),
(684,570,o),
(617,526,o),
(571,478,c),
(580,780,l),
(405,780,l),
(412,559,l),
(156,508,o),
(44,379,o),
(44,213,cs),
(44,86,o),
(105,-12,o),
(232,-12,cs),
(324,-12,o),
(384,22,o),
(429,71,c),
(439,-212,l)
);
},
{
closed = 1;
nodes = (
(225,91,o),
(194,139,o),
(194,221,cs),
(194,327,o),
(247,436,o),
(414,512,c),
(427,130,l),
(377,99,o),
(340,91,o),
(284,91,cs)
);
},
{
closed = 1;
nodes = (
(570,437,l),
(614,458,o),
(651,466,o),
(704,466,cs),
(763,466,o),
(794,420,o),
(794,338,cs),
(794,229,o),
(753,105,o),
(558,37,c)
);
}
);
userData = {
public.verticalOrigin = "880";
};
vertWidth = 1000;
width = 983;
}
);
unicode = 1092;
}
{
color = (153,254,255,255);
glyphname = "tse-cy";
kernLeft = u;
layers = (
{
layerId = master01;
shapes = (
{
closed = 1;
nodes = (
(623,-90,l),
(661,144,l),
(572,129,l),
(598,557,l),
(426,557,l),
(462,111,l),
(210,70,l),
(231,557,l),
(60,557,l),
(103,0,l),
(515,0,l),
(536,-90,l)
);
}
);
userData = {
public.verticalOrigin = "880";
};
vertWidth = 1000;
width = 693;
}
);
unicode = 1094;
}
{
color = (153,254,255,255);
glyphname = "che-cy";
kernLeft = u;
layers = (
{
layerId = master01;
shapes = (
{
closed = 1;
nodes = (
(513,0,l),
(539,558,l),
(364,558,l),
(378,245,l),
(348,231,o),
(319,225,o),
(297,225,cs),
(235,225,o),
(212,246,o),
(212,302,cs),
(212,308,o),
(213,314,o),
(213,321,cs),
(228,557,l),
(57,557,l),
(73,313,ls),
(81,198,o),
(141,119,o),
(247,119,cs),
(290,119,o),
(340,137,o),
(382,164,c),
(390,0,l)
);
}
);
userData = {
public.verticalOrigin = "880";
};
vertWidth = 1000;
width = 613;
}
);
unicode = 1095;
}
{
color = (153,254,255,255);
glyphname = "hardsign-cy";
layers = (
{
layerId = master01;
shapes = (
{
closed = 1;
nodes = (
(587,-12,o),
(706,87,o),
(706,220,cs),
(706,289,o),
(684,382,o),
(491,382,cs),
(449,382,o),
(400,378,o),
(340,368,c),
(346,569,l),
(-7,489,l),
(-6,480,l),
(187,428,l),
(205,-12,l)
);
},
{
closed = 1;
nodes = (
(339,305,l),
(364,307,o),
(386,308,o),
(405,308,cs),
(520,308,o),
(543,274,o),
(543,218,cs),
(543,139,o),
(497,76,o),
(335,41,c)
);
}
);
userData = {
public.verticalOrigin = "880";
};
vertWidth = 1000;
width = 745;
}
);
unicode = 1098;
}
{
color = (153,254,255,255);
glyphname = "ereversed-cy";
layers = (
{
layerId = master01;
shapes = (
{
closed = 1;
nodes = (
(453,-12,o),
(574,133,o),
(574,258,cs),
(574,452,o),
(465,570,o),
(330,570,cs),
(209,570,o),
(84,540,o),
(19,503,c),
(83,370,l),
(164,451,o),
(244,498,o),
(310,498,cs),
(365,498,o),
(434,440,o),
(440,301,c),
(228,351,l),
(228,222,l),
(440,275,l),
(437,186,o),
(376,81,o),
(299,81,cs),
(236,81,o),
(113,112,o),
(16,178,c),
(8,172,l),
(81,64,o),
(206,-12,o),
(296,-12,cs)
);
}
);
userData = {
public.verticalOrigin = "880";
};
vertWidth = 1000;
width = 612;
}
);
unicode = 1101;
}
{
color = (153,254,255,255);
glyphname = "io-cy";
kernLeft = e;
layers = (
{
layerId = master01;
shapes = (
{
closed = 1;
nodes = (
(509,722,l),
(372,746,l),
(417,630,l)
);
},
{
ref = e;
},
{
closed = 1;
nodes = (
(275,722,l),
(139,746,l),
(184,630,l)
);
}
);
userData = {
public.verticalOrigin = "880";
};
width = 623;
}
);
metricLeft = e;
metricRight = e;
unicode = 1105;
}
{
color = 10;
glyphname = "lje-cy";
layers = (
{
layerId = master01;
shapes = (
{
closed = 1;
nodes = (
(169,41,o),
(213,105,o),
(218,176,cs),
(238,465,l),
(421,418,l),
(443,-12,l),
(573,1,l),
(589,567,l),
(239,477,l),
(244,557,l),
(69,557,l),
(95,182,l),
(95,169,ls),
(95,122,o),
(79,70,o),
(12,-14,c),
(16,-22,l)
);
},
{
closed = 1;
nodes = (
(443,-12,l),
(825,-12,o),
(914,87,o),
(914,220,cs),
(914,290,o),
(871,379,o),
(696,379,cs),
(658,379,o),
(613,374,o),
(560,365,c),
(559,303,l),
(586,307,o),
(609,307,o),
(629,307,cs),
(728,307,o),
(751,274,o),
(751,218,cs),
(751,139,o),
(725,74,o),
(573,41,c)
);
}
);
width = 953;
}
);
unicode = 1113;
}
{
color = 10;
glyphname = "nje-cy";
layers = (
{
layerId = master01;
shapes = (
{
closed = 1;
nodes = (
(432,-12,l),
(562,0,l),
(580,557,l),
(405,557,l)
);
},
{
closed = 1;
nodes = (
(422,290,l),
(225,349,l),
(235,557,l),
(60,557,l),
(86,0,l),
(209,0,l),
(219,215,l),
(423,272,l)
);
},
{
closed = 1;
nodes = (
(432,-12,l),
(814,-12,o),
(903,87,o),
(903,220,cs),
(903,290,o),
(860,379,o),
(685,379,cs),
(647,379,o),
(602,374,o),
(549,365,c),
(548,303,l),
(575,307,o),
(598,307,o),
(618,307,cs),
(717,307,o),
(740,274,o),
(740,218,cs),
(740,139,o),
(714,74,o),
(562,41,c)
);
}
);
width = 942;
}
);
unicode = 1114;
}
{
color = 10;
glyphname = "ushort-cy";
kernLeft = y;
kernRight = y;
layers = (
{
layerId = master01;
shapes = (
{
ref = "u-cy";
},
{
closed = 1;
nodes = (
(364,606,o),
(419,662,o),
(450,731,c),
(443,735,l),
(400,698,o),
(344,676,o),
(314,676,cs),
(282,676,o),
(226,698,o),
(183,735,c),
(176,731,l),
(207,662,o),
(261,606,o),
(312,606,cs)
);
}
);
width = 598;
}
);
metricLeft = "u-cy";
metricRight = "u-cy";
unicode = 1118;
}
{
color = 10;
glyphname = "ustraight-cy";
kernLeft = v;
layers = (
{
layerId = master01;
shapes = (
{
closed = 1;
nodes = (
(560,567,l),
(546,567,l),
(299,167,l),
(196,569,l),
(25,528,l),
(243,0,l),
(380,-13,l)
);
},
{
closed = 1;
nodes = (
(373,-212,l),
(399,138,l),
(223,138,l),
(249,-212,l)
);
}
);
width = 574;
}
);
metricLeft = v;
metricRight = v;
unicode = 1199;
}
{
color = 10;
glyphname = "Obarred-cy";
kernRight = O;
layers = (
{
layerId = master01;
shapes = (
{
closed = 1;
nodes = (
(673,405,l),
(673,414,l),
(187,460,l),
(200,319,l)
);
},
{
ref = O;
}
);
width = 815;
}
);
metricLeft = O;
metricRight = O;
unicode = 1256;
}
{
color = (153,254,255,255);
glyphname = emdash;
layers = (
{
layerId = master01;
shapes = (
{
closed = 1;
nodes = (
(950,332,l),
(950,418,l),
(50,418,l),
(50,332,l)
);
}
);
userData = {
public.verticalOrigin = "880";
};
vertWidth = 1000;
width = 1000;
}
);
unicode = (8212,8213);
}
{
glyphname = quotedblbase;
layers = (
{
layerId = master01;
shapes = (
{
closed = 1;
nodes = (
(478,56,l),
(353,188,l),
(258,31,l),
(365,-6,l),
(311,-158,l),
(318,-164,l)
);
},
{
closed = 1;
nodes = (
(241,56,l),
(116,188,l),
(21,31,l),
(128,-6,l),
(74,-158,l),
(81,-164,l)
);
}
);
userData = {
public.verticalOrigin = "880";
};
vertWidth = 1000;
width = 500;
}
);
unicode = 8222;
}
{
glyphname = dagger;
layers = (
{
layerId = master01;
shapes = (
{
closed = 1;
nodes = (
(565,-74,l),
(565,493,l),
(740,493,l),
(740,623,l),
(565,623,l),
(565,825,l),
(434,825,l),
(434,623,l),
(260,623,l),
(260,493,l),
(434,493,l),
(434,-74,l)
);
}
);
userData = {
public.verticalOrigin = "880";
};
vertWidth = 1000;
width = 1000;
}
);
unicode = 8224;
}
{
glyphname = bullet;
layers = (
{
layerId = master01;
shapes = (
{
closed = 1;
nodes = (
(434,355,l),
(88,415,l),
(202,122,l)
);
}
);
userData = {
public.verticalOrigin = "880";
};
vertWidth = 1000;
width = 520;
}
);
unicode = 8226;
}
{
glyphname = minute;
layers = (
{
layerId = master01;
shapes = (
{
closed = 1;
nodes = (
(308,763,l),
(180,835,l),
(47,572,l),
(62,561,l)
);
}
);
userData = {
public.verticalOrigin = "880";
};
vertWidth = 1000;
width = 1000;
}
);
unicode = 8242;
}
{
glyphname = second;
layers = (
{
layerId = master01;
shapes = (
{
closed = 1;
nodes = (
(446,743,l),
(331,815,l),
(211,556,l),
(225,545,l)
);
},
{
closed = 1;
nodes = (
(278,763,l),
(163,835,l),
(51,572,l),
(65,561,l)
);
}
);
userData = {
public.verticalOrigin = "880";
};
vertWidth = 1000;
width = 1000;
}
);
unicode = 8243;
}
{
glyphname = guilsinglleft;
layers = (
{
layerId = master01;
shapes = (
{
closed = 1;
nodes = (
(567,29,l),
(248,278,l),
(565,536,l),
(556,547,l),
(90,336,l),
(90,218,l),
(558,18,l)
);
}
);
userData = {
public.verticalOrigin = "880";
};
vertWidth = 1000;
width = 640;
}
);
unicode = 8249;
}
{
glyphname = referencemark;
layers = (
{
layerId = master01;
shapes = (
{
closed = 1;
nodes = (
(500,280,l),
(868,0,l),
(875,7,l),
(595,375,l),
(875,744,l),
(868,751,l),
(500,471,l),
(132,751,l),
(125,744,l),
(405,375,l),
(125,7,l),
(132,0,l)
);
},
{
closed = 1;
nodes = (
(333,408,l),
(115,446,l),
(187,260,l)
);
},
{
closed = 1;
nodes = (
(619,138,l),
(401,176,l),
(473,-9,l)
);
},
{
closed = 1;
nodes = (
(907,408,l),
(689,446,l),
(761,260,l)
);
},
{
closed = 1;
nodes = (
(619,708,l),
(401,746,l),
(473,560,l)
);
}
);
userData = {
public.verticalOrigin = "880";
};
vertWidth = 1000;
width = 1000;
}
);
unicode = 8251;
}
{
color = (153,254,255,255);
glyphname = exclamdouble;
layers = (
{
layerId = master01;
shapes = (
{
closed = 1;
nodes = (
(754,192,l),
(874,801,l),
(678,779,l),
(698,192,l)
);
},
{
closed = 1;
nodes = (
(344,126,l),
(126,164,l),
(224,-21,l)
);
},
{
closed = 1;
nodes = (
(253,192,l),
(373,801,l),
(177,779,l),
(197,192,l)
);
},
{
closed = 1;
nodes = (
(845,126,l),
(627,164,l),
(725,-21,l)
);
}
);
userData = {
public.verticalOrigin = "880";
};
vertWidth = 1000;
width = 1000;
}
);
unicode = 8252;
}
{
color = (153,254,255,255);
glyphname = questionexclamation;
layers = (
{
layerId = master01;
shapes = (
{
closed = 1;
nodes = (
(269,212,l),
(261,358,l),
(428,423,o),
(486,495,o),
(486,559,cs),
(486,680,o),
(399,801,o),
(302,801,cs),
(181,801,o),
(111,773,o),
(7,699,c),
(106,566,l),
(161,662,o),
(210,737,o),
(262,737,cs),
(304,737,o),
(323,674,o),
(323,546,cs),
(323,500,o),
(299,444,o),
(151,384,c),
(260,210,l)
);
},
{
closed = 1;
nodes = (
(338,126,l),
(131,164,l),
(224,-21,l)
);
},
{
closed = 1;
nodes = (
(845,126,l),
(627,164,l),
(725,-21,l)
);
},
{
closed = 1;
nodes = (
(754,192,l),
(874,801,l),
(678,779,l),
(698,192,l)
);
}
);
userData = {
public.verticalOrigin = "880";
};
vertWidth = 1000;
width = 1000;
}
);
unicode = 8264;
}
{
glyphname = foursuperior;
layers = (
{
layerId = master01;
shapes = (
{
closed = 1;
nodes = (
(413,429,l),
(413,546,l),
(103,483,l),
(309,788,l),
(151,802,l),
(17,429,l)
);
},
{
closed = 1;
nodes = (
(338,363,l),
(342,445,l),
(246,445,l),
(248,363,l)
);
},
{
closed = 1;
nodes = (
(343,519,l),
(353,648,l),
(233,648,l),
(244,489,l)
);
}
);
userData = {
public.verticalOrigin = "880";
};
vertWidth = 1000;
width = 445;
}
);
unicode = 8308;
}
{
glyphname = euro;
layers = (
{
layerId = master01;
shapes = (
{
closed = 1;
nodes = (
(492,555,l),
(-32,477,l),
(-32,470,l),
(492,398,l)
);
},
{
closed = 1;
nodes = (
(492,335,l),
(-32,257,l),
(-32,250,l),
(492,178,l)
);
},
{
ref = C;
}
);
vertWidth = 1000;
width = 737;
}
);
unicode = 8364;
}
{
glyphname = fahrenheit;
layers = (
{
layerId = master01;
shapes = (
{
closed = 1;
nodes = (
(514,0,l),
(521,344,l),
(826,299,l),
(826,458,l),
(522,384,l),
(528,663,l),
(871,628,l),
(871,790,l),
(529,705,l),
(531,780,l),
(349,780,l),
(386,0,l)
);
},
{
closed = 1;
nodes = (
(260,562,o),
(318,618,o),
(318,686,cs),
(318,722,o),
(301,762,o),
(260,797,c),
(179,753,l),
(209,738,o),
(221,716,o),
(221,695,cs),
(221,666,o),
(199,641,o),
(175,641,cs),
(144,641,o),
(124,665,o),
(124,697,cs),
(124,759,o),
(189,800,o),
(279,815,c),
(277,824,l),
(269,824,o),
(262,825,o),
(254,825,cs),
(116,825,o),
(50,764,o),
(50,687,cs),
(50,614,o),
(102,562,o),
(187,562,cs)
);
}
);
vertOrigin = -14;
vertWidth = 1000;
width = 1000;
}
);
unicode = 8457;
}
{
glyphname = numero;
layers = (
{
layerId = master01;
shapes = (
{
closed = 1;
nodes = (
(82,-13,l),
(145,550,l),
(404,-13,l),
(414,-13,l),
(445,790,l),
(429,790,l),
(345,374,l),
(152,780,l),
(10,780,l),
(63,-13,l)
);
},
{
closed = 1;
nodes = (
(642,59,o),
(596,154,o),
(596,318,cs),
(596,453,o),
(615,495,o),
(649,495,cs),
(707,495,o),
(748,418,o),
(748,238,cs),
(748,105,o),
(735,59,o),
(697,59,cs)
);
},
{
closed = 1;
nodes = (
(995,140,l),
(874,175,l),
(882,206,o),
(886,241,o),
(886,278,cs),
(886,455,o),
(775,570,o),
(670,570,cs),
(566,570,o),
(458,455,o),
(458,278,cs),
(458,102,o),
(573,-13,o),
(676,-13,cs),
(756,-13,o),
(826,41,o),
(861,132,c),
(898,-23,l)
);
}
);
vertOrigin = -17;
vertWidth = 1000;
width = 1000;
}
);
unicode = 8470;
}
{
glyphname = angstrom;
layers = (
{
layerId = master01;
shapes = (
{
closed = 1;
nodes = (
(165,-74,l),
(269,109,l),
(665,178,l),
(783,-74,l),
(901,-61,l),
(611,635,l),
(636,653,o),
(662,683,o),
(662,717,cs),
(662,784,o),
(577,825,o),
(510,825,cs),
(439,825,o),
(358,784,o),
(358,717,cs),
(358,688,o),
(382,655,o),
(404,636,c),
(149,-74,l)
);
},
{
closed = 1;
nodes = (
(347,249,l),
(502,526,l),
(653,202,l)
);
},
{
closed = 1;
nodes = (
(480,664,o),
(456,687,o),
(456,717,cs),
(456,747,o),
(480,772,o),
(510,772,cs),
(540,772,o),
(564,747,o),
(564,717,cs),
(564,687,o),
(540,664,o),
(510,664,cs)
);
}
);
vertWidth = 1000;
width = 1000;
}
);
unicode = 8491;
}
{
glyphname = "One-roman";
layers = (
{
layerId = master01;
shapes = (
{
closed = 1;
nodes = (
(567,0,l),
(595,780,l),
(407,780,l),
(435,0,l)
);
}
);
userData = {
public.verticalOrigin = "880";
};
vertWidth = 1000;
width = 1000;
}
);
unicode = 8544;
}
{
glyphname = "Two-roman";
layers = (
{
layerId = master01;
shapes = (
{
closed = 1;
nodes = (
(706,0,l),
(734,780,l),
(546,780,l),
(574,0,l)
);
},
{
closed = 1;
nodes = (
(426,0,l),
(454,780,l),
(266,780,l),
(294,0,l)
);
}
);
userData = {
public.verticalOrigin = "880";
};
vertWidth = 1000;
width = 1000;
}
);
unicode = 8545;
}
{
glyphname = "Ten-roman";
layers = (
{
layerId = master01;
shapes = (
{
closed = 1;
nodes = (
(234,-13,l),
(489,324,l),
(727,-9,l),
(852,0,l),
(577,440,l),
(834,780,l),
(655,780,l),
(519,534,l),
(352,802,l),
(186,750,l),
(441,392,l),
(217,-13,l)
);
}
);
userData = {
public.verticalOrigin = "880";
};
vertWidth = 1000;
width = 1000;
}
);
unicode = 8553;
}
{
glyphname = "Twelve-roman";
layers = (
{
layerId = master01;
shapes = (
{
closed = 1;
nodes = (
(87,-13,l),
(267,311,l),
(424,-9,l),
(545,0,l),
(353,466,l),
(527,780,l),
(353,780,l),
(293,612,l),
(215,802,l),
(53,750,l),
(220,407,l),
(70,-13,l)
);
},
{
closed = 1;
nodes = (
(711,0,l),
(739,780,l),
(555,780,l),
(583,0,l)
);
},
{
closed = 1;
nodes = (
(919,0,l),
(947,780,l),
(763,780,l),
(791,0,l)
);
}
);
userData = {
public.verticalOrigin = "880";
};
vertWidth = 1000;
width = 1000;
}
);
unicode = 8555;
}
{
glyphname = "one-roman";
layers = (
{
layerId = master01;
shapes = (
{
closed = 1;
nodes = (
(563,0,l),
(589,557,l),
(413,557,l),
(439,0,l)
);
},
{
closed = 1;
nodes = (
(639,752,l),
(396,794,l),
(476,588,l)
);
}
);
userData = {
public.verticalOrigin = "880";
};
vertWidth = 1000;
width = 1000;
}
);
unicode = 8560;
}
{
glyphname = "seven-roman";
layers = (
{
layerId = master01;
shapes = (
{
closed = 1;
nodes = (
(534,567,l),
(520,567,l),
(297,167,l),
(220,569,l),
(49,528,l),
(237,0,l),
(374,-13,l)
);
},
{
closed = 1;
nodes = (
(688,0,l),
(714,557,l),
(553,557,l),
(579,0,l)
);
},
{
closed = 1;
nodes = (
(908,0,l),
(934,557,l),
(773,557,l),
(799,0,l)
);
},
{
closed = 1;
nodes = (
(746,752,l),
(522,794,l),
(602,588,l)
);
},
{
closed = 1;
nodes = (
(966,752,l),
(742,794,l),
(822,588,l)
);
}
);
userData = {
public.verticalOrigin = "880";
};
vertWidth = 1000;
width = 1000;
}
);
unicode = 8566;
}
{
glyphname = "eleven-roman";
layers = (
{
layerId = master01;
shapes = (
{
closed = 1;
nodes = (
(133,-13,l),
(328,218,l),
(503,0,l),
(639,0,l),
(414,320,l),
(612,557,l),
(442,557,l),
(355,404,l),
(238,571,l),
(80,528,l),
(282,276,l),
(117,-13,l)
);
},
{
closed = 1;
nodes = (
(810,0,l),
(836,557,l),
(663,557,l),
(689,0,l)
);
},
{
closed = 1;
nodes = (
(886,752,l),
(646,794,l),
(726,588,l)
);
}
);
userData = {
public.verticalOrigin = "880";
};
vertWidth = 1000;
width = 1000;
}
);
unicode = 8570;
}
{
glyphname = "twelve-roman";
layers = (
{
layerId = master01;
shapes = (
{
closed = 1;
nodes = (
(85,-13,l),
(255,202,l),
(389,0,l),
(525,0,l),
(344,316,l),
(534,557,l),
(364,557,l),
(289,412,l),
(198,571,l),
(40,528,l),
(213,265,l),
(69,-13,l)
);
},
{
closed = 1;
nodes = (
(688,0,l),
(714,557,l),
(553,557,l),
(579,0,l)
);
},
{
closed = 1;
nodes = (
(907,0,l),
(933,557,l),
(772,557,l),
(798,0,l)
);
},
{
closed = 1;
nodes = (
(756,752,l),
(528,794,l),
(608,588,l)
);
},
{
closed = 1;
nodes = (
(975,752,l),
(747,794,l),
(827,588,l)
);
}
);
userData = {
public.verticalOrigin = "880";
};
vertWidth = 1000;
width = 1000;
}
);
unicode = 8571;
}
{
glyphname = upArrow;
layers = (
{
layerId = master01;
shapes = (
{
closed = 1;
nodes = (
(586,-74,l),
(529,587,l),
(713,450,l),
(719,456,l),
(500,826,l),
(282,454,l),
(287,450,l),
(470,586,l),
(413,-74,l)
);
}
);
userData = {
public.verticalOrigin = "880";
};
vertWidth = 1000;
width = 1000;
}
);
unicode = 8593;
}
{
glyphname = rightArrow;
layers = (
{
layerId = master01;
shapes = (
{
closed = 1;
nodes = (
(951,375,l),
(579,593,l),
(575,588,l),
(711,405,l),
(50,462,l),
(50,289,l),
(712,346,l),
(575,162,l),
(581,156,l)
);
}
);
userData = {
public.verticalOrigin = "880";
};
vertWidth = 1000;
width = 1000;
}
);
unicode = 8594;
}
{
glyphname = rightOverLeftArrow;
layers = (
{
layerId = master01;
shapes = (
{
closed = 1;
nodes = (
(951,529,l),
(579,747,l),
(638,583,l),
(50,583,l),
(50,476,l),
(639,476,l),
(580,310,l)
);
},
{
closed = 1;
nodes = (
(361,180,l),
(950,180,l),
(950,287,l),
(361,287,l),
(421,451,l),
(49,233,l),
(419,14,l)
);
}
);
userData = {
public.verticalOrigin = "880";
};
vertWidth = 1000;
width = 1000;
}
);
unicode = 8644;
}
{
glyphname = upAndDownArrow;
layers = (
{
layerId = master01;
shapes = (
{
closed = 1;
nodes = (
(406,-59,l),
(406,523,l),
(570,463,l),
(352,835,l),
(133,465,l),
(299,523,l),
(299,-59,l)
);
},
{
closed = 1;
nodes = (
(866,305,l),
(702,246,l),
(702,825,l),
(595,825,l),
(595,245,l),
(429,304,l),
(648,-66,l)
);
}
);
userData = {
public.verticalOrigin = "880";
};
vertWidth = 1000;
width = 1000;
}
);
unicode = 8645;
}
{
glyphname = leftRightDoubleArrow;
layers = (
{
layerId = master01;
shapes = (
{
closed = 1;
nodes = (
(418,42,l),
(321,212,l),
(663,178,l),
(585,42,l),
(593,35,l),
(979,375,l),
(593,715,l),
(585,708,l),
(682,538,l),
(340,572,l),
(418,708,l),
(410,715,l),
(24,375,l),
(410,35,l)
);
},
{
closed = 1;
nodes = (
(227,375,l),
(262,436,l),
(722,469,l),
(776,375,l),
(741,314,l),
(281,281,l)
);
}
);
userData = {
public.verticalOrigin = "880";
};
vertWidth = 1000;
width = 1000;
}
);
unicode = 8660;
}
{
glyphname = leftWhiteArrow;
layers = (
{
layerId = master01;
shapes = (
{
closed = 1;
nodes = (
(410,249,l),
(894,249,l),
(894,510,l),
(410,510,l),
(410,688,l),
(46,380,l),
(410,71,l)
);
},
{
closed = 1;
nodes = (
(114,380,l),
(365,592,l),
(365,465,l),
(849,465,l),
(849,294,l),
(365,294,l),
(365,169,l)
);
}
);
userData = {
public.verticalOrigin = "880";
};
vertWidth = 1000;
width = 1000;
}
);
unicode = 8678;
}
{
glyphname = upWhiteArrow;
layers = (
{
layerId = master01;
shapes = (
{
closed = 1;
nodes = (
(629,-14,l),
(629,469,l),
(807,469,l),
(499,833,l),
(190,469,l),
(368,469,l),
(368,-14,l)
);
},
{
closed = 1;
nodes = (
(413,514,l),
(288,514,l),
(499,765,l),
(711,514,l),
(584,514,l),
(584,30,l),
(413,30,l)
);
}
);
userData = {
public.verticalOrigin = "880";
};
vertWidth = 1000;
width = 1000;
}
);
unicode = 8679;
}
{
glyphname = downWhiteArrow;
layers = (
{
layerId = master01;
shapes = (
{
closed = 1;
nodes = (
(807,289,l),
(629,289,l),
(629,773,l),
(368,773,l),
(368,289,l),
(190,289,l),
(499,-74,l)
);
},
{
closed = 1;
nodes = (
(287,244,l),
(413,244,l),
(413,728,l),
(584,728,l),
(584,244,l),
(711,244,l),
(499,-6,l)
);
}
);
userData = {
public.verticalOrigin = "880";
};
vertWidth = 1000;
width = 1000;
}
);
unicode = 8681;
}
{
glyphname = partialdiff;
layers = (
{
layerId = master01;
shapes = (
{
closed = 1;
nodes = (
(632,-11,o),
(817,194,o),
(817,414,cs),
(817,669,o),
(651,775,o),
(519,775,cs),
(412,775,o),
(318,744,o),
(247,685,c),
(346,566,l),
(388,626,o),
(470,702,o),
(533,702,cs),
(604,702,o),
(668,613,o),
(668,436,c),
(631,463,o),
(569,491,o),
(492,491,cs),
(341,491,o),
(211,357,o),
(211,206,cs),
(211,102,o),
(317,-11,o),
(450,-11,cs)
);
},
{
closed = 1;
nodes = (
(393,61,o),
(350,118,o),
(350,198,cs),
(350,339,o),
(423,422,o),
(505,430,cs),
(512,431,o),
(519,431,o),
(527,431,cs),
(574,431,o),
(630,418,o),
(664,401,c),
(648,189,o),
(529,61,o),
(439,61,cs)
);
}
);
userData = {
public.verticalOrigin = "880";
};
vertWidth = 1000;
width = 1000;
}
);
unicode = 8706;
}
{
glyphname = summation;
layers = (
{
layerId = master01;
shapes = (
{
closed = 1;
nodes = (
(838,32,l),
(838,47,l),
(347,144,l),
(733,372,l),
(458,701,l),
(792,617,l),
(792,780,l),
(200,780,l),
(543,427,l),
(200,135,l),
(240,-9,l)
);
}
);
userData = {
public.verticalOrigin = "880";
};
vertWidth = 1000;
width = 1000;
}
);
unicode = 8721;
}
{
glyphname = proportional;
layers = (
{
layerId = master01;
shapes = (
{
closed = 1;
nodes = (
(409,147,o),
(488,197,o),
(522,252,c),
(552,200,o),
(613,150,o),
(700,147,cs),
(705,147,ls),
(781,147,o),
(864,210,o),
(900,276,c),
(890,285,l),
(842,246,o),
(791,224,o),
(741,224,cs),
(725,224,o),
(710,226,o),
(694,231,cs),
(657,242,o),
(612,293,o),
(588,354,c),
(582,374,l),
(587,391,ls),
(600,435,o),
(638,519,o),
(694,519,cs),
(735,519,o),
(766,489,o),
(807,419,c),
(886,543,l),
(840,577,o),
(776,600,o),
(700,600,cs),
(620,600,o),
(551,548,o),
(523,498,c),
(492,546,o),
(415,600,o),
(339,600,cs),
(237,600,o),
(112,519,o),
(112,373,cs),
(112,243,o),
(237,147,o),
(343,147,cs)
);
},
{
closed = 1;
nodes = (
(281,231,o),
(235,315,o),
(235,374,cs),
(235,443,o),
(264,519,o),
(329,519,cs),
(386,519,o),
(439,447,o),
(458,390,cs),
(460,385,o),
(460,377,o),
(461,374,c),
(460,370,o),
(459,363,o),
(456,355,cs),
(435,300,o),
(405,231,o),
(349,231,cs)
);
}
);
userData = {
public.verticalOrigin = "880";
};
vertWidth = 1000;
width = 1000;
}
);
unicode = 8733;
}
{
glyphname = infinity;
layers = (
{
layerId = master01;
shapes = (
{
closed = 1;
nodes = (
(387,147,o),
(466,197,o),
(500,252,c),
(529,201,o),
(609,147,o),
(679,147,cs),
(782,147,o),
(910,243,o),
(910,373,cs),
(910,502,o),
(776,600,o),
(679,600,cs),
(607,600,o),
(528,545,o),
(501,498,c),
(470,546,o),
(395,600,o),
(321,600,cs),
(228,600,o),
(90,502,o),
(90,373,cs),
(90,243,o),
(215,147,o),
(321,147,cs)
);
},
{
closed = 1;
nodes = (
(259,231,o),
(213,315,o),
(213,374,cs),
(213,435,o),
(238,519,o),
(307,519,cs),
(364,519,o),
(417,447,o),
(436,390,cs),
(438,385,o),
(438,377,o),
(439,374,c),
(438,370,o),
(437,363,o),
(434,355,cs),
(413,300,o),
(383,231,o),
(327,231,cs)
);
},
{
closed = 1;
nodes = (
(638,231,o),
(587,304,o),
(567,354,c),
(561,374,l),
(566,391,ls),
(579,435,o),
(616,519,o),
(673,519,cs),
(742,519,o),
(787,435,o),
(787,374,cs),
(787,315,o),
(761,231,o),
(693,231,cs)
);
}
);
userData = {
public.verticalOrigin = "880";
};
vertWidth = 1000;
width = 1000;
}
);
unicode = 8734;
}
{
glyphname = angle;
layers = (
{
layerId = master01;
shapes = (
{
closed = 1;
nodes = (
(845,53,l),
(845,199,l),
(367,131,l),
(687,716,l),
(671,728,l),
(134,53,l)
);
}
);
userData = {
public.verticalOrigin = "880";
};
vertWidth = 1000;
width = 1000;
}
);
unicode = 8736;
}
{
glyphname = integral;
layers = (
{
layerId = master01;
shapes = (
{
closed = 1;
nodes = (
(417,-70,o),
(439,-66,o),
(460,-56,cs),
(543,-18,o),
(563,134,o),
(574,368,cs),
(581,514,o),
(570,726,o),
(608,746,cs),
(613,749,o),
(619,750,o),
(626,750,cs),
(658,750,o),
(702,716,o),
(731,672,c),
(797,779,l),
(779,793,o),
(710,830,o),
(634,830,cs),
(605,830,o),
(575,825,o),
(547,811,cs),
(470,774,o),
(446,636,o),
(435,385,cs),
(428,235,o),
(428,42,o),
(390,15,cs),
(375,5,o),
(351,0,o),
(324,0,cs),
(293,0,o),
(257,6,o),
(225,18,c),
(217,5,l),
(241,-14,o),
(316,-70,o),
(396,-70,cs)
);
}
);
userData = {
public.verticalOrigin = "880";
};
vertWidth = 1000;
width = 1000;
}
);
unicode = 8747;
}
{
glyphname = tripleintegral;
layers = (
{
layerId = master01;
shapes = (
{
closed = 1;
nodes = (
(154,-71,o),
(174,-66,o),
(195,-56,cs),
(274,-18,o),
(293,134,o),
(303,368,cs),
(310,514,o),
(300,726,o),
(336,746,cs),
(341,749,o),
(346,750,o),
(351,750,cs),
(374,750,o),
(393,719,o),
(418,672,c),
(480,779,l),
(461,796,o),
(420,831,o),
(363,831,cs),
(340,831,o),
(315,825,o),
(287,811,cs),
(214,774,o),
(192,636,o),
(181,385,cs),
(175,235,o),
(174,42,o),
(138,15,cs),
(124,4,o),
(106,0,o),
(86,0,cs),
(64,0,o),
(40,5,o),
(15,18,c),
(8,5,l),
(27,-20,o),
(72,-71,o),
(135,-71,cs)
);
},
{
closed = 1;
nodes = (
(415,-70,o),
(435,-66,o),
(455,-56,cs),
(534,-18,o),
(553,134,o),
(563,368,cs),
(570,514,o),
(560,726,o),
(596,746,cs),
(601,749,o),
(607,751,o),
(612,751,cs),
(634,751,o),
(653,720,o),
(678,672,c),
(740,779,l),
(721,797,o),
(681,831,o),
(624,831,cs),
(601,831,o),
(575,825,o),
(547,811,cs),
(474,774,o),
(452,636,o),
(441,385,cs),
(435,235,o),
(434,42,o),
(398,15,cs),
(384,4,o),
(365,0,o),
(345,0,cs),
(323,0,o),
(298,5,o),
(275,18,c),
(268,5,l),
(285,-16,o),
(332,-70,o),
(397,-70,cs)
);
},
{
closed = 1;
nodes = (
(670,-70,o),
(690,-66,o),
(711,-56,cs),
(790,-18,o),
(809,134,o),
(819,368,cs),
(826,514,o),
(816,726,o),
(852,746,cs),
(857,749,o),
(862,750,o),
(867,750,cs),
(890,750,o),
(909,720,o),
(934,672,c),
(996,779,l),
(978,796,o),
(937,831,o),
(879,831,cs),
(856,831,o),
(831,825,o),
(803,811,cs),
(730,774,o),
(708,636,o),
(697,385,cs),
(691,235,o),
(690,42,o),
(654,15,cs),
(640,5,o),
(623,0,o),
(603,0,cs),
(582,0,o),
(557,6,o),
(531,18,c),
(524,5,l),
(541,-18,o),
(587,-70,o),
(652,-70,cs)
);
}
);
userData = {
public.verticalOrigin = "880";
};
vertWidth = 1000;
width = 1000;
}
);
unicode = 8749;
}
{
glyphname = contourintegral;
layers = (
{
layerId = master01;
shapes = (
{
closed = 1;
nodes = (
(417,-70,o),
(439,-66,o),
(460,-56,cs),
(514,-31,o),
(542,42,o),
(557,155,c),
(653,181,o),
(723,268,o),
(723,371,cs),
(723,466,o),
(663,548,o),
(579,580,c),
(581,665,o),
(587,735,o),
(608,746,cs),
(613,749,o),
(619,750,o),
(626,750,cs),
(658,750,o),
(702,716,o),
(731,672,c),
(797,779,l),
(779,793,o),
(710,830,o),
(634,830,cs),
(605,830,o),
(575,825,o),
(547,811,cs),
(494,786,o),
(466,713,o),
(450,588,c),
(351,566,o),
(277,477,o),
(277,371,cs),
(277,274,o),
(339,192,o),
(425,161,c),
(419,87,o),
(410,29,o),
(390,15,cs),
(375,5,o),
(351,0,o),
(324,0,cs),
(293,0,o),
(257,6,o),
(225,18,c),
(217,5,l),
(241,-14,o),
(316,-70,o),
(396,-70,cs)
);
},
{
closed = 1;
nodes = (
(378,258,o),
(344,311,o),
(344,371,cs),
(344,437,o),
(385,493,o),
(443,516,c),
(440,476,o),
(437,433,o),
(435,385,cs),
(429,232,l)
);
},
{
closed = 1;
nodes = (
(569,272,o),
(572,318,o),
(574,368,cs),
(576,411,o),
(577,459,o),
(577,506,c),
(624,480,o),
(656,429,o),
(656,371,cs),
(656,308,o),
(619,254,o),
(565,229,c)
);
}
);
userData = {
public.verticalOrigin = "880";
};
vertWidth = 1000;
width = 1000;
}
);
unicode = 8750;
}
{
glyphname = because;
layers = (
{
layerId = master01;
shapes = (
{
closed = 1;
nodes = (
(902,671,l),
(659,713,l),
(739,507,l)
);
},
{
closed = 1;
nodes = (
(633,174,l),
(390,216,l),
(470,10,l)
);
},
{
closed = 1;
nodes = (
(364,671,l),
(121,713,l),
(201,507,l)
);
}
);
userData = {
public.verticalOrigin = "880";
};
vertWidth = 1000;
width = 1000;
}
);
unicode = 8757;
}
{
glyphname = reversedtilde;
layers = (
{
layerId = master01;
shapes = (
{
closed = 1;
nodes = (
(479,147,o),
(537,284,o),
(576,391,cs),
(595,443,o),
(633,519,o),
(683,519,cs),
(752,519,o),
(787,435,o),
(787,374,cs),
(787,235,o),
(718,191,o),
(599,191,cs),
(595,191,l),
(592,175,l),
(624,166,o),
(656,161,o),
(687,161,cs),
(813,161,o),
(915,237,o),
(915,373,cs),
(915,502,o),
(797,600,o),
(689,600,cs),
(555,600,o),
(485,519,o),
(424,355,cs),
(401,293,o),
(373,231,o),
(317,231,cs),
(249,231,o),
(213,315,o),
(213,374,cs),
(213,443,o),
(244,519,o),
(289,519,cs),
(331,519,o),
(373,476,o),
(398,424,c),
(477,548,l),
(429,581,o),
(365,600,o),
(311,600,cs),
(208,600,o),
(85,502,o),
(85,373,cs),
(85,243,o),
(193,147,o),
(311,147,cs)
);
}
);
userData = {
public.verticalOrigin = "880";
};
vertWidth = 1000;
width = 1000;
}
);
unicode = 8765;
}
{
glyphname = approxequalorimage;
layers = (
{
layerId = master01;
shapes = (
{
closed = 1;
nodes = (
(872,486,l),
(872,495,l),
(147,566,l),
(147,413,l)
);
},
{
closed = 1;
nodes = (
(774,134,l),
(531,176,l),
(611,-29,l)
);
},
{
closed = 1;
nodes = (
(872,260,l),
(872,269,l),
(147,340,l),
(147,187,l)
);
},
{
closed = 1;
nodes = (
(505,722,l),
(262,764,l),
(342,558,l)
);
}
);
userData = {
public.verticalOrigin = "880";
};
vertWidth = 1000;
width = 1000;
}
);
unicode = 8786;
}
{
glyphname = greateroverequal;
layers = (
{
layerId = master01;
shapes = (
{
closed = 1;
nodes = (
(836,474,l),
(836,599,l),
(195,797,l),
(191,789,l),
(656,535,l),
(183,307,l),
(187,298,l)
);
},
{
closed = 1;
nodes = (
(852,128,l),
(127,62,l),
(127,53,l),
(852,-15,l)
);
},
{
closed = 1;
nodes = (
(852,301,l),
(127,235,l),
(127,226,l),
(852,158,l)
);
}
);
userData = {
public.verticalOrigin = "880";
};
vertWidth = 1000;
width = 1000;
}
);
unicode = 8807;
}
{
glyphname = muchless;
layers = (
{
layerId = master01;
shapes = (
{
closed = 1;
nodes = (
(610,-16,l),
(298,375,l),
(610,766,l),
(601,774,l),
(86,375,l),
(601,-23,l)
);
},
{
closed = 1;
nodes = (
(890,-7,l),
(585,375,l),
(890,757,l),
(882,765,l),
(378,375,l),
(882,-14,l)
);
}
);
userData = {
public.verticalOrigin = "880";
};
vertWidth = 1000;
width = 1000;
}
);
unicode = 8810;
}
{
glyphname = muchgreater;
layers = (
{
layerId = master01;
shapes = (
{
closed = 1;
nodes = (
(913,375,l),
(398,774,l),
(389,766,l),
(701,375,l),
(389,-15,l),
(398,-23,l)
);
},
{
closed = 1;
nodes = (
(621,375,l),
(117,765,l),
(109,757,l),
(414,375,l),
(109,-6,l),
(117,-14,l)
);
}
);
userData = {
public.verticalOrigin = "880";
};
vertWidth = 1000;
width = 1000;
}
);
unicode = 8811;
}
{
glyphname = subset;
layers = (
{
layerId = master01;
shapes = (
{
closed = 1;
nodes = (
(832,50,l),
(832,167,l),
(447,167,ls),
(341,167,o),
(273,265,o),
(273,374,cs),
(273,484,o),
(343,580,o),
(446,580,cs),
(832,580,l),
(832,697,l),
(433,697,ls),
(262,697,o),
(145,545,o),
(145,374,cs),
(145,185,o),
(265,50,o),
(435,50,cs)
);
}
);
userData = {
public.verticalOrigin = "880";
};
vertWidth = 1000;
width = 1000;
}
);
unicode = 8834;
}
{
glyphname = uptack;
layers = (
{
layerId = master01;
shapes = (
{
closed = 1;
nodes = (
(872,110,l),
(872,119,l),
(553,150,l),
(578,703,l),
(422,703,l),
(434,162,l),
(147,190,l),
(147,37,l)
);
}
);
userData = {
public.verticalOrigin = "880";
};
vertWidth = 1000;
width = 1000;
}
);
unicode = 8869;
}
{
glyphname = leftcurlybracketmiddlepiece;
layers = (
{
layerId = master01;
shapes = (
{
closed = 1;
nodes = (
(560,-119,l),
(564,-38,o),
(570,158,o),
(570,238,cs),
(570,264,ls),
(568,324,o),
(545,371,o),
(501,379,c),
(545,387,o),
(568,434,o),
(570,494,cs),
(570,516,ls),
(570,592,o),
(564,795,o),
(560,880,c),
(440,880,l),
(440,527,ls),
(440,450,o),
(416,405,o),
(346,380,c),
(416,356,o),
(440,312,o),
(440,231,cs),
(440,-119,l)
);
}
);
userData = {
public.verticalOrigin = "880";
};
vertWidth = 1000;
width = 1000;
}
);
unicode = 9128;
}
{
glyphname = rightcurlybracketupperhook;
layers = (
{
layerId = master01;
shapes = (
{
closed = 1;
nodes = (
(558,-119,l),
(557,-78,o),
(556,-35,o),
(556,8,cs),
(556,148,o),
(563,292,o),
(571,385,cs),
(572,395,o),
(572,404,o),
(572,414,cs),
(572,497,o),
(530,551,o),
(339,564,c),
(337,555,l),
(436,524,o),
(453,460,o),
(453,402,cs),
(453,393,o),
(453,384,o),
(452,376,cs),
(444,240,o),
(437,112,o),
(437,-26,cs),
(437,-56,o),
(437,-87,o),
(438,-119,c)
);
}
);
userData = {
public.verticalOrigin = "880";
};
vertWidth = 1000;
width = 1000;
}
);
unicode = 9131;
}
{
glyphname = rightcurlybracketlowerhook;
layers = (
{
layerId = master01;
shapes = (
{
closed = 1;
nodes = (
(530,209,o),
(572,263,o),
(572,346,cs),
(572,356,o),
(572,365,o),
(571,375,cs),
(563,468,o),
(556,612,o),
(556,752,cs),
(556,796,o),
(557,839,o),
(558,880,c),
(438,880,l),
(437,848,o),
(437,817,o),
(437,787,cs),
(437,648,o),
(444,520,o),
(452,384,cs),
(453,376,o),
(453,367,o),
(453,358,cs),
(453,300,o),
(436,236,o),
(337,205,c),
(339,196,l)
);
}
);
userData = {
public.verticalOrigin = "880";
};
vertWidth = 1000;
width = 1000;
}
);
unicode = 9133;
}
{
glyphname = three.circled;
layers = (
{
layerId = master01;
shapes = (
{
closed = 1;
nodes = (
(771,-115,o),
(992,104,o),
(992,376,cs),
(992,647,o),
(771,867,o),
(500,867,cs),
(229,867,o),
(8,647,o),
(8,376,cs),
(8,104,o),
(229,-115,o),
(500,-115,cs)
);
},
{
closed = 1;
nodes = (
(632,62,o),
(730,159,o),
(730,259,cs),
(730,316,o),
(661,381,o),
(543,402,c),
(648,448,o),
(694,512,o),
(698,545,c),
(698,553,ls),
(698,612,o),
(630,703,o),
(509,703,cs),
(430,703,o),
(355,654,o),
(274,560,c),
(278,553,l),
(382,600,o),
(438,613,o),
(500,613,cs),
(538,613,o),
(568,572,o),
(568,535,cs),
(568,508,o),
(509,438,o),
(387,377,c),
(388,368,l),
(516,368,o),
(590,308,o),
(590,264,cs),
(590,192,o),
(502,136,o),
(259,62,c),
(262,51,l)
);
},
{
closed = 1;
nodes = (
(263,-53,o),
(70,138,o),
(70,376,cs),
(70,613,o),
(263,806,o),
(500,806,cs),
(737,806,o),
(930,613,o),
(930,376,cs),
(930,138,o),
(737,-53,o),
(500,-53,cs)
);
}
);
userData = {
public.verticalOrigin = "880";
};
vertWidth = 1000;
width = 1000;
}
);
unicode = 9314;
}
{
glyphname = five.circled;
layers = (
{
layerId = master01;
shapes = (
{
closed = 1;
nodes = (
(771,-115,o),
(992,104,o),
(992,376,cs),
(992,647,o),
(771,867,o),
(500,867,cs),
(229,867,o),
(8,647,o),
(8,376,cs),
(8,104,o),
(229,-115,o),
(500,-115,cs)
);
},
{
closed = 1;
nodes = (
(263,-53,o),
(70,138,o),
(70,376,cs),
(70,613,o),
(263,806,o),
(500,806,cs),
(737,806,o),
(930,613,o),
(930,376,cs),
(930,138,o),
(737,-53,o),
(500,-53,cs)
);
},
{
closed = 1;
nodes = (
(637,72,o),
(729,160,o),
(729,255,cs),
(729,343,o),
(619,397,o),
(419,429,c),
(453,593,l),
(697,664,l),
(697,674,l),
(352,697,l),
(297,377,l),
(498,363,o),
(592,300,o),
(592,261,cs),
(592,197,o),
(515,134,o),
(313,63,c),
(316,52,l)
);
}
);
userData = {
public.verticalOrigin = "880";
};
vertWidth = 1000;
width = 1000;
}
);
unicode = 9316;
}
{
glyphname = six.circled;
layers = (
{
layerId = master01;
shapes = (
{
closed = 1;
nodes = (
(771,-115,o),
(992,104,o),
(992,376,cs),
(992,647,o),
(771,867,o),
(500,867,cs),
(229,867,o),
(8,647,o),
(8,376,cs),
(8,104,o),
(229,-115,o),
(500,-115,cs)
);
},
{
closed = 1;
nodes = (
(449,112,o),
(381,205,o),
(381,312,cs),
(381,327,l),
(411,360,o),
(462,378,o),
(522,378,cs),
(571,378,o),
(610,338,o),
(610,249,cs),
(610,175,o),
(560,112,o),
(509,112,cs)
);
},
{
closed = 1;
nodes = (
(626,56,o),
(731,156,o),
(731,263,cs),
(731,366,o),
(638,448,o),
(554,448,cs),
(494,448,o),
(426,421,o),
(386,376,c),
(429,479,o),
(490,603,o),
(611,710,c),
(605,715,l),
(429,650,o),
(249,449,o),
(249,288,cs),
(249,179,o),
(350,56,o),
(498,56,cs)
);
},
{
closed = 1;
nodes = (
(263,-53,o),
(70,138,o),
(70,376,cs),
(70,613,o),
(263,806,o),
(500,806,cs),
(737,806,o),
(930,613,o),
(930,376,cs),
(930,138,o),
(737,-53,o),
(500,-53,cs)
);
}
);
userData = {
public.verticalOrigin = "880";
};
vertWidth = 1000;
width = 1000;
}
);
unicode = 9317;
}
{
glyphname = eight.circled;
layers = (
{
layerId = master01;
shapes = (
{
closed = 1;
nodes = (
(771,-115,o),
(992,104,o),
(992,376,cs),
(992,647,o),
(771,867,o),
(500,867,cs),
(229,867,o),
(8,647,o),
(8,376,cs),
(8,104,o),
(229,-115,o),
(500,-115,cs)
);
},
{
closed = 1;
nodes = (
(451,99,o),
(380,145,o),
(380,216,cs),
(380,256,o),
(413,306,o),
(464,361,c),
(543,315,o),
(616,264,o),
(616,202,cs),
(616,154,o),
(551,99,o),
(505,99,cs)
);
},
{
closed = 1;
nodes = (
(263,-53,o),
(70,138,o),
(70,376,cs),
(70,613,o),
(263,806,o),
(500,806,cs),
(737,806,o),
(930,613,o),
(930,376,cs),
(930,138,o),
(737,-53,o),
(500,-53,cs)
);
},
{
closed = 1;
nodes = (
(629,46,o),
(741,127,o),
(741,229,cs),
(741,313,o),
(624,376,o),
(524,423,c),
(561,459,o),
(602,496,o),
(644,533,c),
(651,524,o),
(657,515,o),
(663,505,c),
(734,596,l),
(667,663,o),
(565,703,o),
(481,703,cs),
(366,703,o),
(272,586,o),
(272,515,cs),
(272,502,o),
(275,490,o),
(282,481,cs),
(304,454,o),
(347,428,o),
(395,400,c),
(310,327,o),
(256,258,o),
(256,216,cs),
(256,119,o),
(373,46,o),
(505,46,cs)
);
},
{
closed = 1;
nodes = (
(430,465,o),
(406,476,o),
(394,485,cs),
(384,492,o),
(379,506,o),
(379,522,cs),
(379,574,o),
(428,656,o),
(487,656,cs),
(493,656,ls),
(524,656,o),
(577,614,o),
(622,561,c),
(563,527,o),
(508,489,o),
(459,452,c)
);
}
);
userData = {
public.verticalOrigin = "880";
};
vertWidth = 1000;
width = 1000;
}
);
unicode = 9319;
}
{
glyphname = nine.circled;
layers = (
{
layerId = master01;
shapes = (
{
closed = 1;
nodes = (
(771,-115,o),
(992,104,o),
(992,376,cs),
(992,647,o),
(771,867,o),
(500,867,cs),
(229,867,o),
(8,647,o),
(8,376,cs),
(8,104,o),
(229,-115,o),
(500,-115,cs)
);
},
{
closed = 1;
nodes = (
(263,-53,o),
(70,138,o),
(70,376,cs),
(70,613,o),
(263,806,o),
(500,806,cs),
(737,806,o),
(930,613,o),
(930,376,cs),
(930,138,o),
(737,-53,o),
(500,-53,cs)
);
},
{
closed = 1;
nodes = (
(560,109,o),
(740,310,o),
(740,471,cs),
(740,580,o),
(638,703,o),
(491,703,cs),
(362,703,o),
(257,603,o),
(257,496,cs),
(257,393,o),
(350,311,o),
(434,311,cs),
(494,311,o),
(563,338,o),
(603,383,c),
(560,280,o),
(499,156,o),
(377,49,c),
(384,44,l)
);
},
{
closed = 1;
nodes = (
(417,381,o),
(378,421,o),
(378,510,cs),
(378,584,o),
(429,647,o),
(480,647,cs),
(540,647,o),
(608,553,o),
(608,445,cs),
(608,432,l),
(577,399,o),
(526,381,o),
(467,381,cs)
);
}
);
userData = {
public.verticalOrigin = "880";
};
vertWidth = 1000;
width = 1000;
}
);
unicode = 9320;
}
{
glyphname = one_three.circled;
layers = (
{
layerId = master01;
shapes = (
{
closed = 1;
nodes = (
(771,-115,o),
(992,104,o),
(992,376,cs),
(992,647,o),
(771,867,o),
(500,867,cs),
(229,867,o),
(8,647,o),
(8,376,cs),
(8,104,o),
(229,-115,o),
(500,-115,cs)
);
},
{
closed = 1;
nodes = (
(352,64,l),
(374,707,l),
(143,603,l),
(143,595,l),
(242,567,l),
(256,64,l)
);
},
{
closed = 1;
nodes = (
(263,-53,o),
(70,138,o),
(70,376,cs),
(70,613,o),
(263,806,o),
(500,806,cs),
(737,806,o),
(930,613,o),
(930,376,cs),
(930,138,o),
(737,-53,o),
(500,-53,cs)
);
},
{
closed = 1;
nodes = (
(761,69,o),
(837,155,o),
(837,259,cs),
(837,320,o),
(765,381,o),
(659,402,c),
(771,456,o),
(804,508,o),
(808,545,c),
(808,553,ls),
(808,614,o),
(739,703,o),
(628,703,cs),
(557,703,o),
(490,654,o),
(417,560,c),
(420,553,l),
(514,600,o),
(564,613,o),
(620,613,cs),
(654,613,o),
(681,574,o),
(681,535,cs),
(681,508,o),
(630,439,o),
(518,377,c),
(519,366,l),
(634,366,o),
(701,308,o),
(701,264,cs),
(701,192,o),
(627,138,o),
(403,62,c),
(406,51,l)
);
}
);
userData = {
public.verticalOrigin = "880";
};
vertWidth = 1000;
width = 1000;
}
);
unicode = 9324;
}
{
glyphname = one_eight.circled;
layers = (
{
layerId = master01;
shapes = (
{
closed = 1;
nodes = (
(771,-115,o),
(992,104,o),
(992,376,cs),
(992,647,o),
(771,867,o),
(500,867,cs),
(229,867,o),
(8,647,o),
(8,376,cs),
(8,104,o),
(229,-115,o),
(500,-115,cs)
);
},
{
closed = 1;
nodes = (
(352,64,l),
(374,707,l),
(143,603,l),
(143,595,l),
(242,567,l),
(256,64,l)
);
},
{
closed = 1;
nodes = (
(588,99,o),
(534,145,o),
(534,216,cs),
(534,255,o),
(560,304,o),
(601,357,c),
(668,312,o),
(727,262,o),
(727,202,cs),
(727,154,o),
(678,99,o),
(637,99,cs)
);
},
{
closed = 1;
nodes = (
(263,-53,o),
(70,138,o),
(70,376,cs),
(70,613,o),
(263,806,o),
(500,806,cs),
(737,806,o),
(930,613,o),
(930,376,cs),
(930,138,o),
(737,-53,o),
(500,-53,cs)
);
},
{
closed = 1;
nodes = (
(748,46,o),
(849,127,o),
(849,229,cs),
(849,313,o),
(746,378,o),
(658,424,c),
(689,459,o),
(724,494,o),
(760,530,c),
(775,505,l),
(843,596,l),
(783,663,o),
(691,703,o),
(615,703,cs),
(512,703,o),
(427,586,o),
(427,515,cs),
(427,502,o),
(430,490,o),
(436,481,cs),
(456,454,o),
(494,427,o),
(537,399,c),
(461,326,o),
(413,258,o),
(413,216,cs),
(413,119,o),
(518,46,o),
(637,46,cs)
);
},
{
closed = 1;
nodes = (
(576,467,o),
(557,477,o),
(547,485,cs),
(537,493,o),
(532,508,o),
(532,527,cs),
(532,579,o),
(570,656,o),
(621,656,cs),
(626,656,ls),
(654,653,o),
(700,614,o),
(740,560,c),
(689,527,o),
(641,491,o),
(599,455,c)
);
}
);
userData = {
public.verticalOrigin = "880";
};
vertWidth = 1000;
width = 1000;
}
);
unicode = 9329;
}
{
glyphname = one_nine.circled;
layers = (
{
layerId = master01;
shapes = (
{
closed = 1;
nodes = (
(771,-115,o),
(992,104,o),
(992,376,cs),
(992,647,o),
(771,867,o),
(500,867,cs),
(229,867,o),
(8,647,o),
(8,376,cs),
(8,104,o),
(229,-115,o),
(500,-115,cs)
);
},
{
closed = 1;
nodes = (
(352,64,l),
(374,707,l),
(143,603,l),
(143,595,l),
(242,567,l),
(256,64,l)
);
},
{
closed = 1;
nodes = (
(263,-53,o),
(70,138,o),
(70,376,cs),
(70,613,o),
(263,806,o),
(500,806,cs),
(737,806,o),
(930,613,o),
(930,376,cs),
(930,138,o),
(737,-53,o),
(500,-53,cs)
);
},
{
closed = 1;
nodes = (
(685,113,o),
(841,310,o),
(841,473,cs),
(841,582,o),
(750,705,o),
(617,705,cs),
(501,705,o),
(407,605,o),
(407,498,cs),
(407,395,o),
(490,313,o),
(566,313,cs),
(620,313,o),
(672,340,o),
(708,385,c),
(667,275,o),
(620,154,o),
(515,51,c),
(521,46,l)
);
},
{
closed = 1;
nodes = (
(551,383,o),
(526,423,o),
(526,512,cs),
(526,586,o),
(562,649,o),
(607,649,cs),
(662,649,o),
(713,556,o),
(713,449,cs),
(713,434,l),
(685,401,o),
(649,383,o),
(596,383,cs)
);
}
);
userData = {
public.verticalOrigin = "880";
};
vertWidth = 1000;
width = 1000;
}
);
unicode = 9330;
}
{
glyphname = two_zero.circled;
layers = (
{
layerId = master01;
shapes = (
{
closed = 1;
nodes = (
(771,-115,o),
(992,104,o),
(992,376,cs),
(992,647,o),
(771,867,o),
(500,867,cs),
(229,867,o),
(8,647,o),
(8,376,cs),
(8,104,o),
(229,-115,o),
(500,-115,cs)
);
},
{
closed = 1;
nodes = (
(386,-53,o),
(281,-9,o),
(204,64,c),
(484,64,l),
(484,197,l),
(250,124,l),
(319,209,o),
(483,408,o),
(483,535,cs),
(483,646,o),
(420,705,o),
(335,705,cs),
(266,705,o),
(194,644,o),
(153,537,c),
(161,529,l),
(214,576,o),
(256,608,o),
(303,608,cs),
(343,608,o),
(366,584,o),
(366,527,cs),
(366,448,o),
(224,197,o),
(169,101,c),
(107,176,o),
(70,272,o),
(70,376,cs),
(70,613,o),
(263,806,o),
(500,806,cs),
(737,806,o),
(930,613,o),
(930,376,cs),
(930,138,o),
(737,-53,o),
(500,-53,cs)
);
},
{
closed = 1;
nodes = (
(787,48,o),
(868,176,o),
(868,378,cs),
(868,570,o),
(789,706,o),
(686,706,cs),
(585,706,o),
(505,567,o),
(505,378,cs),
(505,166,o),
(585,48,o),
(686,48,cs)
);
},
{
closed = 1;
nodes = (
(642,107,o),
(623,242,o),
(623,378,cs),
(623,507,o),
(639,647,o),
(686,647,cs),
(733,647,o),
(749,504,o),
(749,378,cs),
(749,242,o),
(732,107,o),
(686,107,cs)
);
}
);
userData = {
public.verticalOrigin = "880";
};
vertWidth = 1000;
width = 1000;
}
);
unicode = 9331;
}
{
glyphname = two.paren;
layers = (
{
layerId = master01;
shapes = (
{
closed = 1;
nodes = (
(722,64,l),
(722,197,l),
(369,116,l),
(465,189,o),
(720,420,o),
(720,535,cs),
(720,632,o),
(625,705,o),
(519,705,cs),
(437,705,o),
(351,648,o),
(273,531,c),
(282,523,l),
(364,582,o),
(449,608,o),
(508,608,cs),
(558,608,o),
(586,576,o),
(586,519,cs),
(586,427,o),
(256,64,o),
(256,64,c)
);
},
{
closed = 1;
nodes = (
(226,-90,l),
(119,103,o),
(82,260,o),
(82,375,cs),
(82,490,o),
(119,647,o),
(226,840,c),
(216,846,l),
(62,680,o),
(0,495,o),
(0,374,cs),
(0,250,o),
(61,71,o),
(216,-95,c)
);
},
{
closed = 1;
nodes = (
(939,71,o),
(1000,250,o),
(1000,374,cs),
(1000,495,o),
(938,680,o),
(784,846,c),
(774,840,l),
(881,647,o),
(918,490,o),
(918,375,cs),
(918,260,o),
(881,103,o),
(774,-89,c),
(784,-95,l)
);
}
);
vertWidth = 1000;
width = 1000;
}
);
unicode = 9333;
}
{
glyphname = four.paren;
layers = (
{
layerId = master01;
shapes = (
{
closed = 1;
nodes = (
(623,68,l),
(627,161,l),
(722,161,l),
(722,288,l),
(632,275,l),
(644,537,l),
(518,537,l),
(530,260,l),
(316,228,l),
(590,690,l),
(453,710,l),
(210,161,l),
(535,161,l),
(539,68,l)
);
},
{
closed = 1;
nodes = (
(226,-90,l),
(119,103,o),
(82,260,o),
(82,375,cs),
(82,490,o),
(119,647,o),
(226,840,c),
(216,846,l),
(62,680,o),
(0,495,o),
(0,374,cs),
(0,250,o),
(61,71,o),
(216,-95,c)
);
},
{
closed = 1;
nodes = (
(939,71,o),
(1000,250,o),
(1000,374,cs),
(1000,495,o),
(938,680,o),
(784,846,c),
(774,840,l),
(881,647,o),
(918,490,o),
(918,375,cs),
(918,260,o),
(881,103,o),
(774,-89,c),
(784,-95,l)
);
}
);
vertWidth = 1000;
width = 1000;
}
);
unicode = 9335;
}
{
glyphname = five.paren;
layers = (
{
layerId = master01;
shapes = (
{
closed = 1;
nodes = (
(637,72,o),
(729,160,o),
(729,255,cs),
(729,343,o),
(619,397,o),
(419,429,c),
(453,593,l),
(697,664,l),
(697,674,l),
(352,697,l),
(297,377,l),
(498,363,o),
(592,300,o),
(592,261,cs),
(592,197,o),
(515,134,o),
(313,63,c),
(316,52,l)
);
},
{
closed = 1;
nodes = (
(226,-90,l),
(119,103,o),
(82,260,o),
(82,375,cs),
(82,490,o),
(119,647,o),
(226,840,c),
(216,846,l),
(62,680,o),
(0,495,o),
(0,374,cs),
(0,250,o),
(61,71,o),
(216,-95,c)
);
},
{
closed = 1;
nodes = (
(939,71,o),
(1000,250,o),
(1000,374,cs),
(1000,495,o),
(938,680,o),
(784,846,c),
(774,840,l),
(881,647,o),
(918,490,o),
(918,375,cs),
(918,260,o),
(881,103,o),
(774,-89,c),
(784,-95,l)
);
}
);
vertWidth = 1000;
width = 1000;
}
);
unicode = 9336;
}
{
glyphname = six.paren;
layers = (
{
layerId = master01;
shapes = (
{
closed = 1;
nodes = (
(626,56,o),
(731,156,o),
(731,263,cs),
(731,366,o),
(638,448,o),
(554,448,cs),
(494,448,o),
(426,421,o),
(386,376,c),
(429,479,o),
(490,603,o),
(611,710,c),
(605,715,l),
(429,650,o),
(249,449,o),
(249,288,cs),
(249,179,o),
(350,56,o),
(498,56,cs)
);
},
{
closed = 1;
nodes = (
(226,-90,l),
(119,103,o),
(82,260,o),
(82,375,cs),
(82,490,o),
(119,647,o),
(226,840,c),
(216,846,l),
(62,680,o),
(0,495,o),
(0,374,cs),
(0,250,o),
(61,71,o),
(216,-95,c)
);
},
{
closed = 1;
nodes = (
(449,112,o),
(381,205,o),
(381,312,cs),
(381,327,l),
(411,360,o),
(462,378,o),
(522,378,cs),
(571,378,o),
(610,338,o),
(610,249,cs),
(610,175,o),
(560,112,o),
(509,112,cs)
);
},
{
closed = 1;
nodes = (
(939,71,o),
(1000,250,o),
(1000,374,cs),
(1000,495,o),
(938,680,o),
(784,846,c),
(774,840,l),
(881,647,o),
(918,490,o),
(918,375,cs),
(918,260,o),
(881,103,o),
(774,-89,c),
(784,-95,l)
);
}
);
vertWidth = 1000;
width = 1000;
}
);
unicode = 9337;
}
{
glyphname = nine.paren;
layers = (
{
layerId = master01;
shapes = (
{
closed = 1;
nodes = (
(560,109,o),
(740,310,o),
(740,471,cs),
(740,580,o),
(638,703,o),
(491,703,cs),
(362,703,o),
(257,603,o),
(257,496,cs),
(257,393,o),
(350,311,o),
(434,311,cs),
(494,311,o),
(563,338,o),
(603,383,c),
(560,280,o),
(499,156,o),
(377,49,c),
(384,44,l)
);
},
{
closed = 1;
nodes = (
(226,-90,l),
(119,103,o),
(82,260,o),
(82,375,cs),
(82,490,o),
(119,647,o),
(226,840,c),
(216,846,l),
(62,680,o),
(0,495,o),
(0,374,cs),
(0,250,o),
(61,71,o),
(216,-95,c)
);
},
{
closed = 1;
nodes = (
(417,381,o),
(378,421,o),
(378,510,cs),
(378,584,o),
(429,647,o),
(480,647,cs),
(540,647,o),
(608,553,o),
(608,445,cs),
(608,432,l),
(577,399,o),
(526,381,o),
(467,381,cs)
);
},
{
closed = 1;
nodes = (
(939,71,o),
(1000,250,o),
(1000,374,cs),
(1000,495,o),
(938,680,o),
(784,846,c),
(774,840,l),
(881,647,o),
(918,490,o),
(918,375,cs),
(918,260,o),
(881,103,o),
(774,-89,c),
(784,-95,l)
);
}
);
vertWidth = 1000;
width = 1000;
}
);
unicode = 9340;
}
{
glyphname = one_two.paren;
layers = (
{
layerId = master01;
shapes = (
{
closed = 1;
nodes = (
(817,64,l),
(817,197,l),
(512,124,l),
(598,191,o),
(815,418,o),
(815,535,cs),
(815,632,o),
(742,705,o),
(635,705,cs),
(561,705,o),
(482,650,o),
(413,531,c),
(422,521,l),
(495,582,o),
(557,608,o),
(615,608,cs),
(660,608,o),
(685,576,o),
(685,519,cs),
(685,423,o),
(398,64,o),
(398,64,c)
);
},
{
closed = 1;
nodes = (
(226,-90,l),
(119,103,o),
(82,260,o),
(82,375,cs),
(82,490,o),
(119,647,o),
(226,840,c),
(216,846,l),
(62,680,o),
(0,495,o),
(0,374,cs),
(0,250,o),
(61,71,o),
(216,-95,c)
);
},
{
closed = 1;
nodes = (
(352,64,l),
(374,707,l),
(143,603,l),
(143,595,l),
(242,567,l),
(256,64,l)
);
},
{
closed = 1;
nodes = (
(939,71,o),
(1000,250,o),
(1000,374,cs),
(1000,495,o),
(938,680,o),
(784,846,c),
(774,840,l),
(881,647,o),
(918,490,o),
(918,375,cs),
(918,260,o),
(881,103,o),
(774,-89,c),
(784,-95,l)
);
}
);
vertWidth = 1000;
width = 1000;
}
);
unicode = 9343;
}
{
glyphname = one_four.paren;
layers = (
{
layerId = master01;
shapes = (
{
closed = 1;
nodes = (
(745,64,l),
(749,157,l),
(814,157,l),
(814,278,l),
(754,266,l),
(766,533,l),
(640,533,l),
(653,247,l),
(500,218,l),
(702,686,l),
(564,706,l),
(393,157,l),
(657,157,l),
(661,64,l)
);
},
{
closed = 1;
nodes = (
(226,-90,l),
(119,103,o),
(82,260,o),
(82,375,cs),
(82,490,o),
(119,647,o),
(226,840,c),
(216,846,l),
(62,680,o),
(0,495,o),
(0,374,cs),
(0,250,o),
(61,71,o),
(216,-95,c)
);
},
{
closed = 1;
nodes = (
(352,64,l),
(374,707,l),
(143,603,l),
(143,595,l),
(242,567,l),
(256,64,l)
);
},
{
closed = 1;
nodes = (
(939,71,o),
(1000,250,o),
(1000,374,cs),
(1000,495,o),
(938,680,o),
(784,846,c),
(774,840,l),
(881,647,o),
(918,490,o),
(918,375,cs),
(918,260,o),
(881,103,o),
(774,-89,c),
(784,-95,l)
);
}
);
vertWidth = 1000;
width = 1000;
}
);
unicode = 9345;
}
{
glyphname = one_five.paren;
layers = (
{
layerId = master01;
shapes = (
{
closed = 1;
nodes = (
(764,73,o),
(839,160,o),
(839,255,cs),
(839,343,o),
(757,397,o),
(546,429,c),
(580,593,l),
(800,664,l),
(800,674,l),
(482,697,l),
(433,377,l),
(628,362,o),
(705,300,o),
(705,261,cs),
(705,197,o),
(636,134,o),
(454,63,c),
(457,52,l)
);
},
{
closed = 1;
nodes = (
(226,-90,l),
(119,103,o),
(82,260,o),
(82,375,cs),
(82,490,o),
(119,647,o),
(226,840,c),
(216,846,l),
(62,680,o),
(0,495,o),
(0,374,cs),
(0,250,o),
(61,71,o),
(216,-95,c)
);
},
{
closed = 1;
nodes = (
(352,64,l),
(374,707,l),
(143,603,l),
(143,595,l),
(242,567,l),
(256,64,l)
);
},
{
closed = 1;
nodes = (
(939,71,o),
(1000,250,o),
(1000,374,cs),
(1000,495,o),
(938,680,o),
(784,846,c),
(774,840,l),
(881,647,o),
(918,490,o),
(918,375,cs),
(918,260,o),
(881,103,o),
(774,-89,c),
(784,-95,l)
);
}
);
vertWidth = 1000;
width = 1000;
}
);
unicode = 9346;
}
{
glyphname = two_zero.paren;
layers = (
{
layerId = master01;
shapes = (
{
closed = 1;
nodes = (
(226,-89,l),
(196,-34,o),
(171,15,o),
(152,64,c),
(484,64,l),
(484,197,l),
(250,124,l),
(319,209,o),
(483,408,o),
(483,535,cs),
(483,646,o),
(420,705,o),
(335,705,cs),
(266,705,o),
(194,644,o),
(153,537,c),
(161,529,l),
(214,576,o),
(256,608,o),
(303,608,cs),
(343,608,o),
(366,584,o),
(366,527,cs),
(366,450,o),
(216,177,o),
(149,70,c),
(100,192,o),
(82,294,o),
(82,375,cs),
(82,490,o),
(119,647,o),
(226,840,c),
(216,846,l),
(62,680,o),
(0,495,o),
(0,374,cs),
(0,250,o),
(61,71,o),
(216,-95,c)
);
},
{
closed = 1;
nodes = (
(787,48,o),
(868,176,o),
(868,378,cs),
(868,570,o),
(789,706,o),
(686,706,cs),
(585,706,o),
(505,567,o),
(505,378,cs),
(505,166,o),
(585,48,o),
(686,48,cs)
);
},
{
closed = 1;
nodes = (
(642,107,o),
(623,242,o),
(623,378,cs),
(623,507,o),
(639,647,o),
(686,647,cs),
(733,647,o),
(749,504,o),
(749,378,cs),
(749,242,o),
(732,107,o),
(686,107,cs)
);
},
{
closed = 1;
nodes = (
(939,71,o),
(1000,250,o),
(1000,374,cs),
(1000,495,o),
(938,680,o),
(784,846,c),
(774,840,l),
(881,647,o),
(918,490,o),
(918,375,cs),
(918,260,o),
(881,103,o),
(774,-89,c),
(784,-95,l)
);
}
);
vertWidth = 1000;
width = 1000;
}
);
unicode = 9351;
}
{
glyphname = one_period;
layers = (
{
layerId = master01;
shapes = (
{
closed = 1;
nodes = (
(578,0,l),
(606,804,l),
(230,674,l),
(230,664,l),
(440,628,l),
(458,0,l)
);
},
{
closed = 1;
nodes = (
(999,124,l),
(776,166,l),
(846,-39,l)
);
}
);
vertWidth = 1000;
width = 1000;
}
);
unicode = 9352;
}
{
glyphname = three_period;
layers = (
{
layerId = master01;
shapes = (
{
closed = 1;
nodes = (
(643,7,o),
(768,121,o),
(768,246,cs),
(768,318,o),
(681,399,o),
(534,425,c),
(673,485,o),
(722,563,o),
(727,604,cs),
(727,607,o),
(728,611,o),
(728,615,cs),
(728,688,o),
(642,801,o),
(491,801,cs),
(392,801,o),
(299,740,o),
(197,622,c),
(203,614,l),
(332,672,o),
(403,689,o),
(480,689,cs),
(527,689,o),
(565,637,o),
(565,591,cs),
(565,558,o),
(491,470,o),
(339,394,c),
(340,382,l),
(500,382,o),
(593,308,o),
(593,253,cs),
(593,162,o),
(482,93,o),
(179,0,c),
(182,-13,l)
);
},
{
closed = 1;
nodes = (
(999,124,l),
(776,166,l),
(846,-39,l)
);
}
);
vertWidth = 1000;
width = 1000;
}
);
unicode = 9354;
}
{
glyphname = six_period;
layers = (
{
layerId = master01;
shapes = (
{
closed = 1;
nodes = (
(643,-20,o),
(774,104,o),
(774,238,cs),
(774,366,o),
(658,469,o),
(553,469,cs),
(478,469,o),
(392,435,o),
(342,379,c),
(396,508,o),
(472,662,o),
(624,796,c),
(616,803,l),
(396,721,o),
(171,470,o),
(171,269,cs),
(171,132,o),
(298,-20,o),
(482,-20,cs)
);
},
{
closed = 1;
nodes = (
(420,49,o),
(335,166,o),
(335,299,cs),
(335,305,o),
(336,311,o),
(336,317,c),
(374,359,o),
(438,381,o),
(512,381,cs),
(574,381,o),
(623,331,o),
(623,220,cs),
(623,128,o),
(560,49,o),
(496,49,cs)
);
},
{
closed = 1;
nodes = (
(999,124,l),
(776,166,l),
(846,-39,l)
);
}
);
vertWidth = 1000;
width = 1000;
}
);
unicode = 9357;
}
{
glyphname = seven_period;
layers = (
{
layerId = master01;
shapes = (
{
closed = 1;
nodes = (
(764,754,l),
(201,780,l),
(231,630,l),
(579,712,l),
(356,0,l),
(468,-13,l)
);
},
{
closed = 1;
nodes = (
(999,124,l),
(776,166,l),
(846,-39,l)
);
}
);
vertWidth = 1000;
width = 1000;
}
);
unicode = 9358;
}
{
glyphname = a.paren;
layers = (
{
layerId = master01;
shapes = (
{
closed = 1;
nodes = (
(688,121,o),
(727,152,o),
(779,201,c),
(775,206,l),
(759,202,o),
(747,200,o),
(737,200,cs),
(710,200,o),
(706,216,o),
(706,255,cs),
(706,472,ls),
(706,596,o),
(688,618,o),
(583,618,cs),
(495,618,o),
(353,562,o),
(291,504,c),
(295,495,l),
(379,516,o),
(490,527,o),
(528,527,cs),
(563,527,o),
(573,513,o),
(573,463,cs),
(573,407,o),
(313,364,o),
(284,253,cs),
(280,236,o),
(278,221,o),
(278,208,cs),
(278,151,o),
(316,122,o),
(397,122,cs),
(413,122,o),
(430,123,o),
(448,125,cs),
(507,131,o),
(560,154,o),
(595,185,c),
(612,141,o),
(632,121,o),
(656,121,cs)
);
},
{
closed = 1;
nodes = (
(226,-90,l),
(119,103,o),
(82,260,o),
(82,375,cs),
(82,490,o),
(119,647,o),
(226,840,c),
(216,846,l),
(62,680,o),
(0,495,o),
(0,374,cs),
(0,250,o),
(61,71,o),
(216,-95,c)
);
},
{
closed = 1;
nodes = (
(430,188,o),
(416,204,o),
(416,228,cs),
(416,240,o),
(420,254,o),
(428,269,cs),
(455,320,o),
(542,356,o),
(580,389,c),
(585,240,l),
(567,220,o),
(508,198,o),
(474,190,cs),
(468,189,o),
(462,188,o),
(456,188,cs)
);
},
{
closed = 1;
nodes = (
(939,71,o),
(1000,250,o),
(1000,374,cs),
(1000,495,o),
(938,680,o),
(784,846,c),
(774,840,l),
(881,647,o),
(918,490,o),
(918,375,cs),
(918,260,o),
(881,103,o),
(774,-89,c),
(784,-95,l)
);
}
);
vertWidth = 1000;
width = 1000;
}
);
unicode = 9372;
}
{
glyphname = b.paren;
layers = (
{
layerId = master01;
shapes = (
{
closed = 1;
nodes = (
(574,48,o),
(753,148,o),
(753,354,cs),
(753,475,o),
(701,544,o),
(593,544,cs),
(530,544,o),
(459,505,o),
(414,464,c),
(424,723,l),
(275,723,l),
(304,48,l)
);
},
{
closed = 1;
nodes = (
(226,-90,l),
(119,103,o),
(82,260,o),
(82,375,cs),
(82,490,o),
(119,647,o),
(226,840,c),
(216,846,l),
(62,680,o),
(0,495,o),
(0,374,cs),
(0,250,o),
(61,71,o),
(216,-95,c)
);
},
{
closed = 1;
nodes = (
(412,429,l),
(462,449,o),
(501,456,o),
(549,456,cs),
(599,456,o),
(625,425,o),
(625,347,cs),
(625,242,o),
(573,146,o),
(398,89,c)
);
},
{
closed = 1;
nodes = (
(939,71,o),
(1000,250,o),
(1000,374,cs),
(1000,495,o),
(938,680,o),
(784,846,c),
(774,840,l),
(881,647,o),
(918,490,o),
(918,375,cs),
(918,260,o),
(881,103,o),
(774,-89,c),
(784,-95,l)
);
}
);
vertWidth = 1000;
width = 1000;
}
);
unicode = 9373;
}
{
glyphname = c.paren;
layers = (
{
layerId = master01;
shapes = (
{
closed = 1;
nodes = (
(739,141,l),
(503,192,o),
(409,240,o),
(409,355,cs),
(409,512,o),
(447,566,o),
(497,566,cs),
(554,566,o),
(605,526,o),
(673,457,c),
(728,570,l),
(673,602,o),
(587,627,o),
(484,627,cs),
(369,627,o),
(283,527,o),
(283,362,cs),
(283,191,o),
(386,131,o),
(735,131,c)
);
},
{
closed = 1;
nodes = (
(226,-90,l),
(119,103,o),
(82,260,o),
(82,375,cs),
(82,490,o),
(119,647,o),
(226,840,c),
(216,846,l),
(62,680,o),
(0,495,o),
(0,374,cs),
(0,250,o),
(61,71,o),
(216,-95,c)
);
},
{
closed = 1;
nodes = (
(939,71,o),
(1000,250,o),
(1000,374,cs),
(1000,495,o),
(938,680,o),
(784,846,c),
(774,840,l),
(881,647,o),
(918,490,o),
(918,375,cs),
(918,260,o),
(881,103,o),
(774,-89,c),
(784,-95,l)
);
}
);
vertWidth = 1000;
width = 1000;
}
);
unicode = 9374;
}
{
glyphname = d.paren;
layers = (
{
layerId = master01;
shapes = (
{
closed = 1;
nodes = (
(697,46,o),
(742,81,o),
(791,127,c),
(788,132,l),
(772,128,o),
(759,126,o),
(749,126,cs),
(722,126,o),
(718,143,o),
(718,188,cs),
(718,206,l),
(730,722,l),
(581,722,l),
(590,534,l),
(369,493,o),
(257,396,o),
(257,239,cs),
(257,118,o),
(309,47,o),
(417,47,cs),
(500,47,o),
(568,81,o),
(609,127,c),
(617,69,o),
(636,46,o),
(664,46,cs)
);
},
{
closed = 1;
nodes = (
(226,-90,l),
(119,103,o),
(82,260,o),
(82,375,cs),
(82,490,o),
(119,647,o),
(226,840,c),
(216,846,l),
(62,680,o),
(0,495,o),
(0,374,cs),
(0,250,o),
(61,71,o),
(216,-95,c)
);
},
{
closed = 1;
nodes = (
(411,135,o),
(384,168,o),
(384,246,cs),
(384,347,o),
(445,432,o),
(592,494,c),
(606,174,l),
(554,148,o),
(511,135,o),
(461,135,cs)
);
},
{
closed = 1;
nodes = (
(939,71,o),
(1000,250,o),
(1000,374,cs),
(1000,495,o),
(938,680,o),
(784,846,c),
(774,840,l),
(881,647,o),
(918,490,o),
(918,375,cs),
(918,260,o),
(881,103,o),
(774,-89,c),
(784,-95,l)
);
}
);
vertWidth = 1000;
width = 1000;
}
);
unicode = 9375;
}
{
glyphname = e.paren;
layers = (
{
layerId = master01;
shapes = (
{
closed = 1;
nodes = (
(735,134,l),
(506,181,o),
(414,225,o),
(399,320,c),
(761,361,l),
(752,553,o),
(613,621,o),
(495,621,cs),
(384,621,o),
(280,520,o),
(280,355,cs),
(280,185,o),
(382,124,o),
(732,124,c)
);
},
{
closed = 1;
nodes = (
(226,-90,l),
(119,103,o),
(82,260,o),
(82,375,cs),
(82,490,o),
(119,647,o),
(226,840,c),
(216,846,l),
(62,680,o),
(0,495,o),
(0,374,cs),
(0,250,o),
(61,71,o),
(216,-95,c)
);
},
{
closed = 1;
nodes = (
(397,338,o),
(397,343,o),
(397,349,cs),
(397,524,o),
(439,559,o),
(507,559,cs),
(565,559,o),
(610,497,o),
(619,430,c),
(398,333,l)
);
},
{
closed = 1;
nodes = (
(939,71,o),
(1000,250,o),
(1000,374,cs),
(1000,495,o),
(938,680,o),
(784,846,c),
(774,840,l),
(881,647,o),
(918,490,o),
(918,375,cs),
(918,260,o),
(881,103,o),
(774,-89,c),
(784,-95,l)
);
}
);
vertWidth = 1000;
width = 1000;
}
);
unicode = 9376;
}
{
glyphname = g.paren;
layers = (
{
layerId = master01;
shapes = (
{
closed = 1;
nodes = (
(660,46,o),
(699,93,o),
(704,247,cs),
(720,708,l),
(474,708,o),
(255,585,o),
(255,409,cs),
(255,296,o),
(316,249,o),
(412,249,cs),
(484,249,o),
(549,276,o),
(594,314,c),
(597,237,l),
(597,217,ls),
(597,156,o),
(583,143,o),
(519,143,cs),
(505,143,ls),
(460,145,o),
(332,164,o),
(271,188,c),
(266,181,l),
(365,92,o),
(456,60,o),
(529,50,cs),
(546,48,o),
(562,46,o),
(576,46,cs)
);
},
{
closed = 1;
nodes = (
(226,-90,l),
(119,103,o),
(82,260,o),
(82,375,cs),
(82,490,o),
(119,647,o),
(226,840,c),
(216,846,l),
(62,680,o),
(0,495,o),
(0,374,cs),
(0,250,o),
(61,71,o),
(216,-95,c)
);
},
{
closed = 1;
nodes = (
(409,337,o),
(383,360,o),
(383,426,cs),
(383,524,o),
(444,601,o),
(580,646,c),
(591,369,l),
(545,348,o),
(505,337,o),
(459,337,cs)
);
},
{
closed = 1;
nodes = (
(939,71,o),
(1000,250,o),
(1000,374,cs),
(1000,495,o),
(938,680,o),
(784,846,c),
(774,840,l),
(881,647,o),
(918,490,o),
(918,375,cs),
(918,260,o),
(881,103,o),
(774,-89,c),
(784,-95,l)
);
}
);
vertWidth = 1000;
width = 1000;
}
);
unicode = 9378;
}
{
glyphname = n.paren;
layers = (
{
layerId = master01;
shapes = (
{
closed = 1;
nodes = (
(407,143,l),
(423,484,l),
(469,514,o),
(525,528,o),
(552,528,cs),
(587,528,o),
(601,510,o),
(605,435,cs),
(619,143,l),
(724,143,l),
(738,470,l),
(738,493,ls),
(738,581,o),
(715,628,o),
(629,628,cs),
(560,628,o),
(478,586,o),
(425,527,c),
(429,618,l),
(281,618,l),
(303,143,l)
);
},
{
closed = 1;
nodes = (
(226,-90,l),
(119,103,o),
(82,260,o),
(82,375,cs),
(82,490,o),
(119,647,o),
(226,840,c),
(216,846,l),
(62,680,o),
(0,495,o),
(0,374,cs),
(0,250,o),
(61,71,o),
(216,-95,c)
);
},
{
closed = 1;
nodes = (
(939,71,o),
(1000,250,o),
(1000,374,cs),
(1000,495,o),
(938,680,o),
(784,846,c),
(774,840,l),
(881,647,o),
(918,490,o),
(918,375,cs),
(918,260,o),
(881,103,o),
(774,-89,c),
(784,-95,l)
);
}
);
vertWidth = 1000;
width = 1000;
}
);
unicode = 9385;
}
{
glyphname = p.paren;
layers = (
{
layerId = master01;
shapes = (
{
closed = 1;
nodes = (
(408,37,l),
(414,217,l),
(627,240,o),
(762,338,o),
(762,518,cs),
(762,638,o),
(710,708,o),
(602,708,cs),
(543,708,o),
(476,673,o),
(431,635,c),
(433,697,l),
(284,697,l),
(313,37,l)
);
},
{
closed = 1;
nodes = (
(226,-90,l),
(119,103,o),
(82,260,o),
(82,375,cs),
(82,490,o),
(119,647,o),
(226,840,c),
(216,846,l),
(62,680,o),
(0,495,o),
(0,374,cs),
(0,250,o),
(61,71,o),
(216,-95,c)
);
},
{
closed = 1;
nodes = (
(429,596,l),
(476,614,o),
(513,620,o),
(558,620,cs),
(608,620,o),
(634,588,o),
(634,511,cs),
(634,407,o),
(583,313,o),
(416,255,c)
);
},
{
closed = 1;
nodes = (
(939,71,o),
(1000,250,o),
(1000,374,cs),
(1000,495,o),
(938,680,o),
(784,846,c),
(774,840,l),
(881,647,o),
(918,490,o),
(918,375,cs),
(918,260,o),
(881,103,o),
(774,-89,c),
(784,-95,l)
);
}
);
vertWidth = 1000;
width = 1000;
}
);
unicode = 9387;
}
{
glyphname = u.paren;
layers = (
{
layerId = master01;
shapes = (
{
closed = 1;
nodes = (
(498,125,o),
(574,165,o),
(609,216,c),
(616,152,o),
(641,125,o),
(671,125,cs),
(710,125,o),
(756,168,o),
(786,239,c),
(783,245,l),
(763,233,o),
(748,227,o),
(738,227,cs),
(721,227,o),
(716,242,o),
(716,273,cs),
(716,283,l),
(727,609,l),
(583,609,l),
(606,270,l),
(563,230,o),
(512,215,o),
(481,215,cs),
(427,215,o),
(409,236,o),
(409,284,cs),
(409,296,l),
(422,609,l),
(277,609,l),
(299,290,ls),
(306,182,o),
(335,125,o),
(439,125,cs)
);
},
{
closed = 1;
nodes = (
(226,-90,l),
(119,103,o),
(82,260,o),
(82,375,cs),
(82,490,o),
(119,647,o),
(226,840,c),
(216,846,l),
(62,680,o),
(0,495,o),
(0,374,cs),
(0,250,o),
(61,71,o),
(216,-95,c)
);
},
{
closed = 1;
nodes = (
(939,71,o),
(1000,250,o),
(1000,374,cs),
(1000,495,o),
(938,680,o),
(784,846,c),
(774,840,l),
(881,647,o),
(918,490,o),
(918,375,cs),
(918,260,o),
(881,103,o),
(774,-89,c),
(784,-95,l)
);
}
);
vertWidth = 1000;
width = 1000;
}
);
unicode = 9392;
}
{
glyphname = w.paren;
layers = (
{
layerId = master01;
shapes = (
{
closed = 1;
nodes = (
(349,122,l),
(484,447,l),
(649,122,l),
(660,122,l),
(830,616,l),
(819,616,l),
(647,345,l),
(575,578,l),
(462,565,l),
(369,330,l),
(296,617,l),
(159,582,l),
(339,122,l)
);
},
{
closed = 1;
nodes = (
(226,-90,l),
(119,103,o),
(82,260,o),
(82,375,cs),
(82,490,o),
(119,647,o),
(226,840,c),
(216,846,l),
(62,680,o),
(0,495,o),
(0,374,cs),
(0,250,o),
(61,71,o),
(216,-95,c)
);
},
{
closed = 1;
nodes = (
(939,71,o),
(1000,250,o),
(1000,374,cs),
(1000,495,o),
(938,680,o),
(784,846,c),
(774,840,l),
(881,647,o),
(918,490,o),
(918,375,cs),
(918,260,o),
(881,103,o),
(774,-89,c),
(784,-95,l)
);
}
);
vertWidth = 1000;
width = 1000;
}
);
unicode = 9394;
}
{
glyphname = y.paren;
layers = (
{
layerId = master01;
shapes = (
{
closed = 1;
nodes = (
(734,712,l),
(722,712,l),
(514,370,l),
(405,715,l),
(257,679,l),
(467,294,l),
(347,97,l),
(489,35,l)
);
},
{
closed = 1;
nodes = (
(226,-90,l),
(119,103,o),
(82,260,o),
(82,375,cs),
(82,490,o),
(119,647,o),
(226,840,c),
(216,846,l),
(62,680,o),
(0,495,o),
(0,374,cs),
(0,250,o),
(61,71,o),
(216,-95,c)
);
},
{
closed = 1;
nodes = (
(939,71,o),
(1000,250,o),
(1000,374,cs),
(1000,495,o),
(938,680,o),
(784,846,c),
(774,840,l),
(881,647,o),
(918,490,o),
(918,375,cs),
(918,260,o),
(881,103,o),
(774,-89,c),
(784,-95,l)
);
}
);
vertWidth = 1000;
width = 1000;
}
);
unicode = 9396;
}
{
glyphname = boxLightHorizontal;
layers = (
{
layerId = master01;
shapes = (
{
closed = 1;
nodes = (
(1000,363,l),
(1000,397,l),
(0,397,l),
(0,363,l)
);
}
);
userData = {
public.verticalOrigin = "880";
};
vertWidth = 1000;
width = 1000;
}
);
unicode = 9472;
}
{
glyphname = boxHeavyQuadrupleDashVertical;
layers = (
{
layerId = master01;
shapes = (
{
closed = 1;
nodes = (
(545,797,l),
(545,880,l),
(455,880,l),
(455,797,l)
);
},
{
closed = 1;
nodes = (
(545,45,l),
(455,45,l),
(455,-37,l),
(545,-38,l)
);
},
{
closed = 1;
nodes = (
(545,129,l),
(545,212,l),
(455,212,l),
(455,129,l)
);
},
{
closed = 1;
nodes = (
(545,296,l),
(545,379,l),
(455,379,l),
(455,296,l)
);
},
{
closed = 1;
nodes = (
(545,463,l),
(545,546,l),
(455,546,l),
(455,463,l)
);
},
{
closed = 1;
nodes = (
(545,630,l),
(545,713,l),
(455,713,l),
(455,630,l)
);
}
);
userData = {
public.verticalOrigin = "880";
};
vertWidth = 1000;
width = 1000;
}
);
unicode = 9483;
}
{
glyphname = boxLightUpAndRight;
layers = (
{
layerId = master01;
shapes = (
{
closed = 1;
nodes = (
(1000,363,l),
(1000,397,l),
(517,397,l),
(517,880,l),
(483,880,l),
(483,363,l)
);
}
);
userData = {
public.verticalOrigin = "880";
};
vertWidth = 1000;
width = 1000;
}
);
unicode = 9492;
}
{
glyphname = boxUpHeavyAndRightLight;
layers = (
{
layerId = master01;
shapes = (
{
closed = 1;
nodes = (
(1000,363,l),
(1000,397,l),
(545,397,l),
(545,880,l),
(455,880,l),
(455,363,l)
);
}
);
userData = {
public.verticalOrigin = "880";
};
vertWidth = 1000;
width = 1000;
}
);
unicode = 9494;
}
{
glyphname = boxUpHeavyAndLeftLight;
layers = (
{
layerId = master01;
shapes = (
{
closed = 1;
nodes = (
(545,363,l),
(545,880,l),
(455,880,l),
(455,397,l),
(0,397,l),
(0,363,l)
);
}
);
userData = {
public.verticalOrigin = "880";
};
vertWidth = 1000;
width = 1000;
}
);
unicode = 9498;
}
{
glyphname = boxVerticalHeavyAndLeftLight;
layers = (
{
layerId = master01;
shapes = (
{
closed = 1;
nodes = (
(545,880,l),
(455,880,l),
(455,397,l),
(0,397,l),
(0,363,l),
(455,363,l),
(455,-119,l),
(545,-120,l)
);
}
);
userData = {
public.verticalOrigin = "880";
};
vertWidth = 1000;
width = 1000;
}
);
unicode = 9512;
}
{
glyphname = boxLeftHeavyAndRightVerticalLight;
layers = (
{
layerId = master01;
shapes = (
{
closed = 1;
nodes = (
(517,-119,l),
(517,363,l),
(1000,363,l),
(1000,397,l),
(517,397,l),
(517,880,l),
(483,880,l),
(483,425,l),
(0,425,l),
(0,335,l),
(483,335,l),
(483,-119,l)
);
}
);
userData = {
public.verticalOrigin = "880";
};
vertWidth = 1000;
width = 1000;
}
);
unicode = 9533;
}
{
glyphname = boxLightArcDownAndRight;
layers = (
{
layerId = master01;
shapes = (
{
closed = 1;
nodes = (
(625,-119,l),
(625,-28,o),
(664,78,o),
(735,147,cs),
(812,222,o),
(910,256,o),
(1000,256,c),
(1000,381,l),
(872,381,o),
(744,333,o),
(646,235,cs),
(548,137,o),
(501,5,o),
(501,-119,c)
);
}
);
userData = {
public.verticalOrigin = "880";
};
vertWidth = 1000;
width = 1000;
}
);
unicode = 9581;
}
{
glyphname = boxLightArcUpAndLeft;
layers = (
{
layerId = master01;
shapes = (
{
closed = 1;
nodes = (
(128,379,o),
(256,427,o),
(354,525,cs),
(452,623,o),
(499,755,o),
(499,880,c),
(375,880,l),
(375,789,o),
(336,682,o),
(265,613,cs),
(188,538,o),
(90,504,o),
(0,504,c),
(0,379,l)
);
}
);
userData = {
public.verticalOrigin = "880";
};
vertWidth = 1000;
width = 1000;
}
);
unicode = 9583;
}
{
glyphname = lowerHalfBlock;
layers = (
{
layerId = master01;
shapes = (
{
closed = 1;
nodes = (
(1000,380,l),
(0,380,l),
(0,-119,l),
(1000,-120,l)
);
}
);
userData = {
public.verticalOrigin = "880";
};
vertWidth = 1000;
width = 1000;
}
);
unicode = 9604;
}
{
glyphname = leftThreeEighthsBlock;
layers = (
{
layerId = master01;
shapes = (
{
closed = 1;
nodes = (
(375,880,l),
(0,880,l),
(0,-119,l),
(375,-120,l)
);
}
);
userData = {
public.verticalOrigin = "880";
};
vertWidth = 1000;
width = 1000;
}
);
unicode = 9613;
}
{
glyphname = whiteRoundedCornersSquare;
layers = (
{
layerId = master01;
shapes = (
{
closed = 1;
nodes = (
(855,-56,ls),
(910,-56,o),
(937,-25,o),
(937,31,cs),
(937,728,ls),
(937,790,o),
(905,816,o),
(855,816,cs),
(146,816,ls),
(91,816,o),
(64,785,o),
(64,728,cs),
(64,31,ls),
(64,-30,o),
(96,-56,o),
(146,-56,cs)
);
},
{
closed = 1;
nodes = (
(135,10,o),
(128,15,o),
(128,33,cs),
(128,729,ls),
(128,746,o),
(133,752,o),
(148,752,cs),
(851,752,ls),
(866,752,o),
(870,746,o),
(870,729,cs),
(870,33,ls),
(870,16,o),
(865,10,o),
(848,10,cs),
(148,10,ls)
);
}
);
userData = {
public.verticalOrigin = "880";
};
vertWidth = 1000;
width = 1000;
}
);
unicode = 9634;
}
{
glyphname = whiteDiamond;
layers = (
{
layerId = master01;
shapes = (
{
closed = 1;
nodes = (
(980,375,l),
(500,855,l),
(20,375,l),
(500,-104,l)
);
},
{
closed = 1;
nodes = (
(114,375,l),
(500,761,l),
(886,375,l),
(500,-10,l)
);
}
);
userData = {
public.verticalOrigin = "880";
};
vertWidth = 1000;
width = 1000;
}
);
unicode = 9671;
}
{
glyphname = fisheye;
layers = (
{
layerId = master01;
shapes = (
{
closed = 1;
nodes = (
(746,-69,o),
(945,129,o),
(945,375,cs),
(945,621,o),
(746,820,o),
(500,820,cs),
(254,820,o),
(55,621,o),
(55,375,cs),
(55,129,o),
(254,-69,o),
(500,-69,cs)
);
},
{
closed = 1;
nodes = (
(288,-5,o),
(118,163,o),
(118,375,cs),
(118,587,o),
(288,757,o),
(499,757,cs),
(711,757,o),
(881,587,o),
(881,375,cs),
(881,163,o),
(711,-5,o),
(499,-5,cs)
);
},
{
closed = 1;
nodes = (
(666,76,o),
(798,208,o),
(798,375,cs),
(798,541,o),
(666,674,o),
(499,674,cs),
(333,674,o),
(200,541,o),
(200,375,cs),
(200,208,o),
(333,76,o),
(499,76,cs)
);
}
);
userData = {
public.verticalOrigin = "880";
};
vertWidth = 1000;
width = 1000;
}
);
unicode = 9673;
}
{
glyphname = whiteCircle;
layers = (
{
layerId = master01;
shapes = (
{
closed = 1;
nodes = (
(746,-69,o),
(945,129,o),
(945,375,cs),
(945,621,o),
(746,820,o),
(500,820,cs),
(254,820,o),
(55,621,o),
(55,375,cs),
(55,129,o),
(254,-69,o),
(500,-69,cs)
);
},
{
closed = 1;
nodes = (
(291,-2,o),
(122,166,o),
(122,375,cs),
(122,583,o),
(291,752,o),
(498,752,cs),
(708,752,o),
(877,583,o),
(877,375,cs),
(877,166,o),
(708,-2,o),
(498,-2,cs)
);
}
);
userData = {
public.verticalOrigin = "880";
};
vertWidth = 1000;
width = 1000;
}
);
unicode = 9675;
}
{
glyphname = blackCircle;
layers = (
{
layerId = master01;
shapes = (
{
closed = 1;
nodes = (
(746,-69,o),
(945,129,o),
(945,375,cs),
(945,621,o),
(746,820,o),
(500,820,cs),
(254,820,o),
(55,621,o),
(55,375,cs),
(55,129,o),
(254,-69,o),
(500,-69,cs)
);
}
);
userData = {
public.verticalOrigin = "880";
};
vertWidth = 1000;
width = 1000;
}
);
unicode = 9679;
}
{
glyphname = largeCircle;
layers = (
{
layerId = master01;
shapes = (
{
closed = 1;
nodes = (
(771,-115,o),
(992,104,o),
(992,376,cs),
(992,647,o),
(771,867,o),
(500,867,cs),
(229,867,o),
(8,647,o),
(8,376,cs),
(8,104,o),
(229,-115,o),
(500,-115,cs)
);
},
{
closed = 1;
nodes = (
(263,-53,o),
(70,138,o),
(70,376,cs),
(70,613,o),
(263,806,o),
(500,806,cs),
(737,806,o),
(930,613,o),
(930,376,cs),
(930,138,o),
(737,-53,o),
(500,-53,cs)
);
}
);
userData = {
public.verticalOrigin = "880";
};
vertWidth = 1000;
width = 1000;
}
);
unicode = 9711;
}
{
glyphname = umbrella;
layers = (
{
layerId = master01;
shapes = (
{
closed = 1;
nodes = (
(477,-74,o),
(520,-39,o),
(520,33,cs),
(520,404,l),
(531,437,o),
(559,470,o),
(610,470,cs),
(679,470,o),
(704,420,o),
(707,373,cs),
(708,363,o),
(713,362,o),
(719,362,cs),
(727,362,o),
(731,364,o),
(731,373,cs),
(731,419,o),
(764,470,o),
(829,470,cs),
(893,470,o),
(926,419,o),
(926,373,cs),
(926,366,o),
(930,362,o),
(938,362,cs),
(945,362,o),
(950,365,o),
(950,373,cs),
(950,472,o),
(885,598,o),
(769,665,cs),
(705,702,o),
(620,725,o),
(520,730,c),
(520,730,o),
(520,759,o),
(518,778,cs),
(517,794,o),
(508,801,o),
(500,801,cs),
(492,801,o),
(484,794,o),
(482,778,cs),
(480,759,o),
(480,730,o),
(480,730,c),
(373,725,o),
(287,700,o),
(220,657,cs),
(117,590,o),
(54,480,o),
(50,373,cs),
(50,364,o),
(54,362,o),
(62,362,cs),
(71,362,o),
(73,364,o),
(74,373,cs),
(78,420,o),
(107,470,o),
(171,470,cs),
(238,470,o),
(267,425,o),
(269,373,cs),
(269,365,o),
(273,362,o),
(281,362,cs),
(289,362,o),
(293,364,o),
(293,373,cs),
(295,423,o),
(324,470,o),
(390,470,cs),
(442,470,o),
(469,441,o),
(480,405,c),
(480,33,ls),
(480,-12,o),
(456,-35,o),
(418,-35,cs),
(385,-35,o),
(355,-22,o),
(355,28,cs),
(355,38,o),
(345,43,o),
(335,43,cs),
(325,43,o),
(315,38,o),
(315,28,cs),
(315,-49,o),
(363,-74,o),
(418,-74,cs)
);
}
);
vertWidth = 1000;
width = 1000;
}
);
unicode = 9730;
}
{
glyphname = blackstar;
layers = (
{
layerId = master01;
shapes = (
{
closed = 1;
nodes = (
(500,152,l),
(797,-69,l),
(689,293,l),
(996,513,l),
(616,513,l),
(500,872,l),
(384,513,l),
(4,513,l),
(311,293,l),
(203,-69,l)
);
}
);
vertWidth = 1000;
width = 1000;
}
);
unicode = 9733;
}
{
glyphname = whitestar;
layers = (
{
layerId = master01;
shapes = (
{
closed = 1;
nodes = (
(500,152,l),
(797,-69,l),
(689,293,l),
(996,513,l),
(616,513,l),
(500,872,l),
(384,513,l),
(4,513,l),
(311,293,l),
(203,-69,l)
);
},
{
closed = 1;
nodes = (
(382,318,l),
(196,449,l),
(429,449,l),
(498,668,l),
(569,449,l),
(801,449,l),
(618,318,l),
(683,95,l),
(500,230,l),
(315,95,l)
);
}
);
vertWidth = 1000;
width = 1000;
}
);
unicode = 9734;
}
{
glyphname = upWhiteIndex;
layers = (
{
layerId = master01;
shapes = (
{
closed = 1;
nodes = (
(569,-107,o),
(634,-99,o),
(678,-86,cs),
(685,-84,o),
(688,-79,o),
(688,-73,cs),
(688,80,ls),
(688,89,o),
(683,94,o),
(675,94,cs),
(673,94,l),
(703,185,o),
(728,282,o),
(735,407,cs),
(735,413,ls),
(735,461,o),
(701,486,o),
(668,486,cs),
(660,486,o),
(652,485,o),
(645,482,c),
(645,484,ls),
(645,529,o),
(606,561,o),
(570,561,cs),
(557,561,o),
(545,556,o),
(535,547,c),
(524,579,o),
(491,599,o),
(462,599,cs),
(451,599,o),
(441,596,o),
(433,591,c),
(434,652,o),
(437,721,o),
(437,783,cs),
(437,784,ls),
(437,825,o),
(407,849,o),
(376,849,cs),
(347,849,o),
(316,827,o),
(308,779,cs),
(298,715,o),
(292,629,o),
(283,517,c),
(240,479,o),
(207,438,o),
(207,368,cs),
(207,362,o),
(208,356,o),
(208,350,cs),
(213,283,o),
(245,208,o),
(303,132,cs),
(311,122,o),
(316,107,o),
(316,94,c),
(314,95,o),
(312,95,o),
(310,95,cs),
(303,95,o),
(299,90,o),
(299,80,cs),
(299,-73,ls),
(299,-79,o),
(303,-85,o),
(310,-86,cs),
(357,-97,o),
(423,-107,o),
(500,-107,cs)
);
},
{
closed = 1;
nodes = (
(430,-80,o),
(372,-71,o),
(326,-62,c),
(326,63,l),
(376,51,o),
(432,44,o),
(497,44,cs),
(554,44,o),
(611,51,o),
(661,63,c),
(661,-63,l),
(618,-72,o),
(562,-80,o),
(500,-80,cs)
);
},
{
closed = 1;
nodes = (
(438,71,o),
(387,76,o),
(344,86,c),
(341,107,o),
(347,117,o),
(324,148,cs),
(270,221,o),
(240,288,o),
(235,352,cs),
(235,357,o),
(234,362,o),
(234,367,cs),
(234,446,o),
(286,484,o),
(333,523,cs),
(344,533,o),
(357,536,o),
(369,536,cs),
(390,536,o),
(407,523,o),
(407,504,cs),
(407,495,o),
(403,485,o),
(394,474,cs),
(357,429,o),
(341,404,o),
(341,382,cs),
(341,371,o),
(345,360,o),
(353,347,cs),
(374,313,o),
(443,296,o),
(481,188,cs),
(484,181,o),
(488,178,o),
(493,178,cs),
(501,178,o),
(508,184,o),
(508,191,cs),
(508,192,o),
(507,194,o),
(507,195,c),
(493,236,o),
(474,268,o),
(452,289,c),
(455,289,o),
(457,288,o),
(459,288,cs),
(470,288,o),
(475,294,o),
(481,299,c),
(491,278,o),
(515,261,o),
(539,261,cs),
(546,261,o),
(554,263,o),
(561,267,c),
(565,239,o),
(595,217,o),
(625,217,cs),
(645,217,o),
(664,227,o),
(675,251,cs),
(682,268,o),
(692,287,o),
(701,307,c),
(688,232,o),
(664,149,o),
(642,86,c),
(593,75,o),
(554,71,o),
(498,71,cs)
);
},
{
closed = 1;
nodes = (
(381,355,o),
(378,358,o),
(376,361,cs),
(370,370,o),
(367,377,o),
(367,384,cs),
(367,398,o),
(377,411,o),
(398,436,c),
(384,356,l),
(384,353,l)
);
},
{
closed = 1;
nodes = (
(428,313,o),
(411,327,o),
(411,345,cs),
(411,350,l),
(423,412,o),
(431,464,o),
(434,538,cs),
(435,563,o),
(450,574,o),
(466,574,cs),
(489,574,o),
(515,554,o),
(515,522,cs),
(515,516,l),
(507,451,o),
(491,394,o),
(479,345,cs),
(473,322,o),
(460,313,o),
(446,313,cs)
);
},
{
closed = 1;
nodes = (
(517,288,o),
(503,299,o),
(503,314,cs),
(503,317,o),
(503,319,o),
(504,322,cs),
(522,389,o),
(533,441,o),
(542,501,cs),
(546,524,o),
(559,533,o),
(574,533,cs),
(596,533,o),
(621,512,o),
(621,484,cs),
(621,481,o),
(621,477,o),
(620,474,cs),
(607,411,o),
(589,364,o),
(573,320,cs),
(565,297,o),
(549,288,o),
(534,288,cs)
);
},
{
closed = 1;
nodes = (
(603,242,o),
(588,254,o),
(588,270,cs),
(588,272,o),
(588,275,o),
(589,278,cs),
(614,339,o),
(624,379,o),
(640,434,cs),
(646,453,o),
(657,460,o),
(669,460,cs),
(688,460,o),
(708,441,o),
(708,417,cs),
(708,412,o),
(708,407,o),
(706,402,cs),
(690,344,o),
(667,303,o),
(649,263,cs),
(642,248,o),
(631,242,o),
(620,242,cs)
);
},
{
closed = 1;
nodes = (
(312,542,o),
(313,543,o),
(315,546,c),
(323,639,o),
(326,714,o),
(335,775,cs),
(339,807,o),
(359,821,o),
(377,821,cs),
(394,821,o),
(410,808,o),
(410,783,cs),
(410,708,o),
(407,637,o),
(406,557,c),
(396,563,o),
(384,566,o),
(372,566,cs),
(354,566,o),
(334,560,o),
(315,544,cs),
(314,543,o),
(313,542,o),
(312,542,c)
);
}
);
vertWidth = 1000;
width = 1000;
}
);
unicode = 9757;
}
{
glyphname = rightWhiteIndex;
layers = (
{
layerId = master01;
shapes = (
{
closed = 1;
nodes = (
(546,128,ls),
(594,128,o),
(619,162,o),
(619,195,cs),
(619,203,o),
(618,211,o),
(615,218,c),
(617,218,ls),
(662,218,o),
(694,257,o),
(694,293,cs),
(694,306,o),
(689,318,o),
(680,328,c),
(712,339,o),
(732,372,o),
(732,401,cs),
(732,412,o),
(729,422,o),
(724,430,c),
(785,429,o),
(854,426,o),
(916,426,cs),
(917,426,ls),
(958,426,o),
(982,456,o),
(982,487,cs),
(982,516,o),
(960,547,o),
(912,555,cs),
(848,565,o),
(762,571,o),
(650,580,c),
(612,623,o),
(571,656,o),
(501,656,cs),
(495,656,o),
(489,655,o),
(483,655,cs),
(416,650,o),
(341,618,o),
(265,560,cs),
(255,552,o),
(240,547,o),
(227,547,c),
(228,549,o),
(228,551,o),
(228,553,cs),
(228,560,o),
(223,564,o),
(213,564,cs),
(59,564,ls),
(53,564,o),
(47,560,o),
(46,553,cs),
(35,506,o),
(25,440,o),
(25,363,cs),
(25,294,o),
(33,229,o),
(46,185,cs),
(48,178,o),
(53,175,o),
(59,175,cs),
(213,175,ls),
(222,175,o),
(227,180,o),
(227,188,cs),
(227,190,l),
(318,160,o),
(415,135,o),
(540,128,cs)
);
},
{
closed = 1;
nodes = (
(60,245,o),
(52,301,o),
(52,363,cs),
(52,433,o),
(61,491,o),
(70,537,c),
(196,537,l),
(184,487,o),
(177,431,o),
(177,366,cs),
(177,309,o),
(184,252,o),
(196,202,c),
(70,202,l)
);
},
{
closed = 1;
nodes = (
(545,155,o),
(540,155,o),
(535,157,cs),
(477,173,o),
(436,196,o),
(396,214,cs),
(381,221,o),
(375,232,o),
(375,243,cs),
(375,260,o),
(387,275,o),
(403,275,cs),
(405,275,o),
(408,275,o),
(411,274,cs),
(472,249,o),
(512,239,o),
(567,223,cs),
(586,217,o),
(593,206,o),
(593,194,cs),
(593,175,o),
(574,155,o),
(550,155,cs)
);
},
{
closed = 1;
nodes = (
(365,175,o),
(282,199,o),
(219,221,c),
(208,270,o),
(204,309,o),
(204,365,cs),
(204,425,o),
(209,476,o),
(219,519,c),
(240,522,o),
(250,516,o),
(281,539,cs),
(354,593,o),
(421,623,o),
(485,628,cs),
(490,628,o),
(495,629,o),
(500,629,cs),
(579,629,o),
(617,577,o),
(656,530,cs),
(666,519,o),
(669,506,o),
(669,494,cs),
(669,473,o),
(656,456,o),
(637,456,cs),
(628,456,o),
(618,460,o),
(607,469,cs),
(562,506,o),
(537,522,o),
(515,522,cs),
(504,522,o),
(493,518,o),
(480,510,cs),
(446,489,o),
(429,420,o),
(321,382,cs),
(314,379,o),
(311,375,o),
(311,370,cs),
(311,362,o),
(317,355,o),
(324,355,cs),
(325,355,o),
(327,356,o),
(328,356,c),
(369,370,o),
(401,389,o),
(422,411,c),
(422,408,o),
(421,406,o),
(421,404,cs),
(421,393,o),
(427,388,o),
(432,382,c),
(411,372,o),
(394,348,o),
(394,324,cs),
(394,317,o),
(396,309,o),
(400,302,c),
(372,298,o),
(350,268,o),
(350,238,cs),
(350,218,o),
(360,199,o),
(384,188,cs),
(401,181,o),
(420,171,o),
(440,162,c)
);
},
{
closed = 1;
nodes = (
(614,242,o),
(610,242,o),
(607,243,cs),
(544,256,o),
(497,274,o),
(453,290,cs),
(430,298,o),
(421,314,o),
(421,329,cs),
(421,346,o),
(432,360,o),
(447,360,cs),
(450,360,o),
(452,360,o),
(455,359,cs),
(522,341,o),
(574,330,o),
(634,321,cs),
(657,317,o),
(666,304,o),
(666,289,cs),
(666,267,o),
(645,242,o),
(617,242,cs)
);
},
{
closed = 1;
nodes = (
(584,356,o),
(527,372,o),
(478,384,cs),
(455,390,o),
(446,403,o),
(446,417,cs),
(446,435,o),
(460,452,o),
(478,452,cs),
(483,452,l),
(545,440,o),
(597,432,o),
(671,429,cs),
(696,428,o),
(707,413,o),
(707,397,cs),
(707,374,o),
(687,348,o),
(655,348,cs),
(649,348,l)
);
},
{
closed = 1;
nodes = (
(489,479,l),
(486,479,l),
(488,482,o),
(491,485,o),
(494,487,cs),
(503,493,o),
(510,496,o),
(517,496,cs),
(531,496,o),
(544,486,o),
(569,465,c)
);
},
{
closed = 1;
nodes = (
(841,453,o),
(770,456,o),
(690,457,c),
(696,467,o),
(699,479,o),
(699,491,cs),
(699,509,o),
(693,529,o),
(677,548,cs),
(676,549,o),
(675,551,o),
(675,551,c),
(675,551,o),
(677,550,o),
(679,548,c),
(772,540,o),
(847,537,o),
(908,528,cs),
(940,524,o),
(954,504,o),
(954,486,cs),
(954,469,o),
(941,453,o),
(916,453,cs)
);
}
);
vertWidth = 1000;
width = 1000;
}
);
unicode = 9758;
}
{
glyphname = venus;
layers = (
{
layerId = master01;
shapes = (
{
closed = 1;
nodes = (
(552,-54,l),
(565,200,l),
(859,273,l),
(859,282,l),
(573,330,l),
(575,375,l),
(666,407,o),
(732,493,o),
(732,595,cs),
(732,723,o),
(628,827,o),
(500,827,cs),
(372,827,o),
(268,723,o),
(268,595,cs),
(268,493,o),
(333,407,o),
(424,375,c),
(427,330,l),
(141,282,l),
(141,273,l),
(435,200,l),
(448,-54,l)
);
},
{
closed = 1;
nodes = (
(433,470,o),
(374,527,o),
(374,596,cs),
(374,665,o),
(433,722,o),
(500,722,cs),
(568,722,o),
(626,665,o),
(626,596,cs),
(626,527,o),
(568,470,o),
(500,470,cs)
);
}
);
vertWidth = 1000;
width = 1000;
}
);
unicode = 9792;
}
{
glyphname = heartWhiteSuit;
layers = (
{
layerId = master01;
shapes = (
{
closed = 1;
nodes = (
(701,53,o),
(924,304,o),
(924,504,cs),
(924,655,o),
(817,766,o),
(682,766,cs),
(614,766,o),
(547,743,o),
(500,677,c),
(453,743,o),
(390,766,o),
(322,766,cs),
(187,766,o),
(80,655,o),
(80,504,cs),
(80,304,o),
(299,53,o),
(500,-59,c)
);
},
{
closed = 1;
nodes = (
(333,95,o),
(129,325,o),
(129,506,cs),
(129,624,o),
(209,720,o),
(322,720,cs),
(384,720,o),
(450,689,o),
(502,601,c),
(553,687,o),
(620,720,o),
(682,720,cs),
(795,720,o),
(875,624,o),
(875,506,cs),
(875,325,o),
(667,95,o),
(500,-5,c)
);
}
);
vertWidth = 1000;
width = 1000;
}
);
unicode = 9825;
}
{
glyphname = diamondWhiteSuit;
layers = (
{
layerId = master01;
shapes = (
{
closed = 1;
nodes = (
(912,378,l),
(500,842,l),
(88,378,l),
(500,-79,l)
);
},
{
closed = 1;
nodes = (
(146,378,l),
(500,771,l),
(854,378,l),
(500,-9,l)
);
}
);
vertWidth = 1000;
width = 1000;
}
);
unicode = 9826;
}
{
glyphname = clubBlackSuit;
layers = (
{
layerId = master01;
shapes = (
{
closed = 1;
nodes = (
(419,-46,o),
(441,-46,o),
(500,-46,cs),
(559,-46,o),
(583,-46,o),
(652,-59,c),
(542,-3,o),
(529,69,o),
(524,167,cs),
(522,208,o),
(521,236,o),
(521,264,c),
(548,260,o),
(573,247,o),
(584,228,cs),
(624,159,o),
(673,105,o),
(754,105,cs),
(862,105,o),
(931,185,o),
(931,282,cs),
(931,379,o),
(862,459,o),
(754,459,cs),
(673,459,o),
(624,404,o),
(584,336,cs),
(572,316,o),
(549,301,o),
(521,298,c),
(524,381,o),
(536,422,o),
(568,442,cs),
(637,485,o),
(683,531,o),
(683,612,cs),
(683,720,o),
(598,789,o),
(501,789,cs),
(404,789,o),
(319,720,o),
(319,612,cs),
(319,531,o),
(363,487,o),
(434,442,cs),
(469,420,o),
(480,381,o),
(482,299,c),
(453,304,o),
(430,314,o),
(417,336,cs),
(377,404,o),
(328,459,o),
(247,459,cs),
(139,459,o),
(70,379,o),
(70,282,cs),
(70,185,o),
(139,105,o),
(247,105,cs),
(328,105,o),
(377,159,o),
(417,228,cs),
(429,249,o),
(452,259,o),
(482,264,c),
(478,167,ls),
(473,69,o),
(460,-3,o),
(350,-59,c)
);
}
);
vertWidth = 1000;
width = 1000;
}
);
unicode = 9827;
}
{
glyphname = spadeWhiteSuit;
layers = (
{
layerId = master01;
shapes = (
{
closed = 1;
nodes = (
(602,-59,l),
(602,-59,o),
(571,27,o),
(565,129,c),
(574,129,l),
(606,87,o),
(671,67,o),
(722,67,cs),
(834,67,o),
(921,159,o),
(921,272,cs),
(921,287,o),
(920,304,o),
(916,320,cs),
(873,520,o),
(642,722,o),
(502,824,c),
(360,722,o),
(129,520,o),
(86,320,cs),
(82,304,o),
(81,287,o),
(81,272,cs),
(81,159,o),
(168,67,o),
(280,67,cs),
(331,67,o),
(396,87,o),
(428,129,c),
(435,129,l),
(429,27,o),
(398,-59,o),
(398,-59,c)
);
},
{
closed = 1;
nodes = (
(466,22,o),
(473,77,o),
(479,174,c),
(403,174,l),
(376,126,o),
(317,111,o),
(276,111,cs),
(194,111,o),
(126,188,o),
(126,275,cs),
(126,287,o),
(128,299,o),
(130,311,cs),
(167,488,o),
(370,666,o),
(502,769,c),
(632,666,o),
(835,488,o),
(872,311,cs),
(874,299,o),
(876,287,o),
(876,275,cs),
(876,188,o),
(808,111,o),
(726,111,cs),
(685,111,o),
(626,126,o),
(599,174,c),
(524,174,l),
(528,80,o),
(534,23,o),
(542,-16,c),
(458,-16,l)
);
}
);
vertWidth = 1000;
width = 1000;
}
);
unicode = 9828;
}
{
glyphname = heartBlackSuit;
layers = (
{
layerId = master01;
shapes = (
{
closed = 1;
nodes = (
(575,201,o),
(918,247,o),
(918,508,cs),
(918,651,o),
(802,741,o),
(690,741,cs),
(612,741,o),
(536,698,o),
(501,599,c),
(498,599,l),
(459,698,o),
(383,741,o),
(306,741,cs),
(194,741,o),
(82,651,o),
(82,508,cs),
(82,247,o),
(424,203,o),
(500,-59,c)
);
}
);
vertWidth = 1000;
width = 1000;
}
);
unicode = 9829;
}
{
glyphname = clubWhiteSuit;
layers = (
{
layerId = master01;
shapes = (
{
closed = 1;
nodes = (
(602,-59,l),
(602,-59,o),
(565,39,o),
(565,153,c),
(593,100,o),
(658,66,o),
(726,66,cs),
(839,66,o),
(922,139,o),
(922,262,cs),
(922,365,o),
(839,448,o),
(726,448,cs),
(694,448,o),
(656,432,o),
(625,414,c),
(688,454,o),
(702,524,o),
(702,591,cs),
(702,710,o),
(608,792,o),
(500,792,cs),
(392,792,o),
(288,710,o),
(288,591,cs),
(288,524,o),
(311,459,o),
(374,414,c),
(342,433,o),
(306,448,o),
(274,448,cs),
(161,448,o),
(78,365,o),
(78,262,cs),
(78,145,o),
(161,66,o),
(274,66,cs),
(342,66,o),
(401,98,o),
(434,152,c),
(429,41,o),
(398,-59,o),
(398,-59,c)
);
},
{
closed = 1;
nodes = (
(466,18,o),
(471,69,o),
(476,214,c),
(418,214,l),
(398,144,o),
(327,111,o),
(274,111,cs),
(187,111,o),
(123,172,o),
(123,262,cs),
(123,340,o),
(187,405,o),
(274,405,cs),
(299,405,o),
(349,389,o),
(394,362,c),
(433,420,l),
(351,472,o),
(333,538,o),
(333,591,cs),
(333,683,o),
(416,747,o),
(500,747,cs),
(584,747,o),
(657,683,o),
(657,591,cs),
(657,539,o),
(648,474,o),
(566,424,c),
(606,361,l),
(651,388,o),
(701,403,o),
(726,403,cs),
(813,403,o),
(877,340,o),
(877,262,cs),
(877,167,o),
(813,111,o),
(726,111,cs),
(673,111,o),
(604,142,o),
(583,215,c),
(525,215,l),
(525,75,o),
(531,20,o),
(540,-16,c),
(458,-16,l)
);
}
);
vertWidth = 1000;
width = 1000;
}
);
unicode = 9831;
}
{
glyphname = "note-musical";
layers = (
{
layerId = master01;
shapes = (
{
closed = 1;
nodes = (
(354,-61,o),
(393,-48,o),
(434,-17,cs),
(489,23,o),
(499,103,o),
(499,159,cs),
(499,562,l),
(521,552,o),
(578,515,o),
(610,488,cs),
(662,444,o),
(691,398,o),
(691,341,cs),
(691,280,o),
(657,208,o),
(582,116,c),
(599,101,l),
(740,218,o),
(790,315,o),
(790,397,cs),
(790,600,o),
(480,713,o),
(474,825,c),
(439,825,l),
(439,176,l),
(439,176,o),
(298,173,o),
(243,71,cs),
(234,54,o),
(230,38,o),
(230,22,cs),
(230,-23,o),
(266,-61,o),
(322,-61,cs)
);
}
);
vertWidth = 1000;
width = 1000;
}
);
unicode = 9834;
}
{
glyphname = "sharp-musical";
layers = (
{
layerId = master01;
shapes = (
{
closed = 1;
nodes = (
(412,-74,l),
(412,144,l),
(580,169,l),
(580,-50,l),
(656,-50,l),
(656,181,l),
(817,206,l),
(800,323,l),
(656,300,l),
(656,531,l),
(817,556,l),
(800,672,l),
(656,650,l),
(656,812,l),
(580,812,l),
(580,639,l),
(412,613,l),
(412,783,l),
(336,783,l),
(336,602,l),
(174,577,l),
(193,460,l),
(336,482,l),
(336,252,l),
(174,227,l),
(193,110,l),
(336,132,l),
(336,-74,l)
);
},
{
closed = 1;
nodes = (
(412,494,l),
(580,519,l),
(580,289,l),
(412,263,l)
);
}
);
vertWidth = 1000;
width = 1000;
}
);
unicode = 9839;
}
{
glyphname = four.blackCircled;
layers = (
{
layerId = master01;
shapes = (
{
closed = 1;
nodes = (
(774,-119,o),
(996,102,o),
(996,376,cs),
(996,650,o),
(774,872,o),
(500,872,cs),
(226,872,o),
(4,650,o),
(4,376,cs),
(4,102,o),
(226,-119,o),
(500,-119,cs)
);
},
{
closed = 1;
nodes = (
(535,161,l),
(210,161,l),
(453,710,l),
(590,690,l),
(316,228,l),
(530,260,l),
(518,537,l),
(644,537,l),
(632,275,l),
(722,288,l),
(722,161,l),
(627,161,l),
(623,68,l),
(539,68,l)
);
}
);
vertWidth = 1000;
width = 1000;
}
);
unicode = 10105;
}
{
glyphname = six.blackCircled;
layers = (
{
layerId = master01;
shapes = (
{
closed = 1;
nodes = (
(774,-119,o),
(996,102,o),
(996,376,cs),
(996,650,o),
(774,872,o),
(500,872,cs),
(226,872,o),
(4,650,o),
(4,376,cs),
(4,102,o),
(226,-119,o),
(500,-119,cs)
);
},
{
closed = 1;
nodes = (
(560,112,o),
(610,175,o),
(610,249,cs),
(610,338,o),
(571,378,o),
(522,378,cs),
(462,378,o),
(411,360,o),
(381,327,c),
(381,312,ls),
(381,205,o),
(449,112,o),
(509,112,cs)
);
},
{
closed = 1;
nodes = (
(350,56,o),
(249,179,o),
(249,288,cs),
(249,449,o),
(429,650,o),
(605,715,c),
(611,710,l),
(490,603,o),
(429,479,o),
(386,376,c),
(426,421,o),
(494,448,o),
(554,448,cs),
(638,448,o),
(731,366,o),
(731,263,cs),
(731,156,o),
(626,56,o),
(498,56,cs)
);
}
);
vertWidth = 1000;
width = 1000;
}
);
unicode = 10107;
}
{
glyphname = seven.blackCircled;
layers = (
{
layerId = master01;
shapes = (
{
closed = 1;
nodes = (
(774,-119,o),
(996,102,o),
(996,376,cs),
(996,650,o),
(774,872,o),
(500,872,cs),
(226,872,o),
(4,650,o),
(4,376,cs),
(4,102,o),
(226,-119,o),
(500,-119,cs)
);
},
{
closed = 1;
nodes = (
(395,63,l),
(573,633,l),
(295,567,l),
(271,687,l),
(721,666,l),
(484,52,l)
);
}
);
vertWidth = 1000;
width = 1000;
}
);
unicode = 10108;
}
{
glyphname = eight.blackCircled;
layers = (
{
layerId = master01;
shapes = (
{
closed = 1;
nodes = (
(774,-119,o),
(996,102,o),
(996,376,cs),
(996,650,o),
(774,872,o),
(500,872,cs),
(226,872,o),
(4,650,o),
(4,376,cs),
(4,102,o),
(226,-119,o),
(500,-119,cs)
);
},
{
closed = 1;
nodes = (
(551,99,o),
(616,154,o),
(616,202,cs),
(616,264,o),
(543,315,o),
(464,361,c),
(413,306,o),
(380,256,o),
(380,216,cs),
(380,145,o),
(451,99,o),
(505,99,cs)
);
},
{
closed = 1;
nodes = (
(373,46,o),
(256,119,o),
(256,216,cs),
(256,258,o),
(310,327,o),
(395,400,c),
(347,428,o),
(304,454,o),
(282,481,cs),
(275,490,o),
(272,502,o),
(272,515,cs),
(272,586,o),
(366,703,o),
(481,703,cs),
(565,703,o),
(667,663,o),
(734,596,c),
(663,505,l),
(657,515,o),
(651,524,o),
(644,533,c),
(602,496,o),
(561,459,o),
(524,423,c),
(624,376,o),
(741,313,o),
(741,229,cs),
(741,127,o),
(629,46,o),
(505,46,cs)
);
},
{
closed = 1;
nodes = (
(508,489,o),
(563,527,o),
(622,561,c),
(577,614,o),
(524,653,o),
(493,656,cs),
(487,656,ls),
(428,656,o),
(379,574,o),
(379,522,cs),
(379,506,o),
(384,492,o),
(394,485,cs),
(406,476,o),
(430,465,o),
(459,452,c)
);
}
);
vertWidth = 1000;
width = 1000;
}
);
unicode = 10109;
}
{
glyphname = nine.blackCircled;
layers = (
{
layerId = master01;
shapes = (
{
closed = 1;
nodes = (
(774,-119,o),
(996,102,o),
(996,376,cs),
(996,650,o),
(774,872,o),
(500,872,cs),
(226,872,o),
(4,650,o),
(4,376,cs),
(4,102,o),
(226,-119,o),
(500,-119,cs)
);
},
{
closed = 1;
nodes = (
(377,49,l),
(499,156,o),
(560,280,o),
(603,383,c),
(563,338,o),
(494,311,o),
(434,311,cs),
(350,311,o),
(257,393,o),
(257,496,cs),
(257,603,o),
(362,703,o),
(491,703,cs),
(638,703,o),
(740,580,o),
(740,471,cs),
(740,310,o),
(560,109,o),
(384,44,c)
);
},
{
closed = 1;
nodes = (
(526,381,o),
(577,399,o),
(608,432,c),
(608,445,ls),
(608,553,o),
(540,647,o),
(480,647,cs),
(429,647,o),
(378,584,o),
(378,510,cs),
(378,421,o),
(417,381,o),
(467,381,cs)
);
}
);
vertWidth = 1000;
width = 1000;
}
);
unicode = 10110;
}
{
glyphname = rightTriangleBlackArrow;
layers = (
{
layerId = master01;
shapes = (
{
closed = 1;
nodes = (
(958,380,l),
(594,688,l),
(594,510,l),
(110,510,l),
(110,249,l),
(594,249,l),
(594,71,l)
);
}
);
userData = {
public.verticalOrigin = "880";
};
vertWidth = 1000;
width = 1000;
}
);
unicode = (10145,11157);
}
{
color = (255,255,153,255);
glyphname = uni2E89;
layers = (
{
layerId = master01;
shapes = (
{
closed = 1;
nodes = (
(916,812,l),
(745,812,l),
(747,98,l),
(539,68,l),
(539,52,l),
(870,-76,l)
);
},
{
closed = 1;
nodes = (
(617,179,l),
(647,725,l),
(478,725,l),
(499,179,l)
);
}
);
userData = {
public.verticalOrigin = "880";
};
vertWidth = 1000;
width = 1000;
}
);
unicode = (11913,20994);
}
{
glyphname = uni2E92;
layers = (
{
layerId = master01;
shapes = (
{
closed = 1;
nodes = (
(928,-26,l),
(848,276,l),
(834,276,l),
(794,129,l),
(280,85,l),
(284,327,l),
(685,412,l),
(687,315,l),
(807,315,l),
(838,797,l),
(289,704,l),
(290,772,l),
(125,772,l),
(158,-35,l)
);
},
{
closed = 1;
nodes = (
(286,472,l),
(289,677,l),
(681,642,l),
(685,436,l)
);
}
);
userData = {
public.verticalOrigin = "880";
};
vertWidth = 1000;
width = 1000;
}
);
unicode = (11922,24051);
}
{
color = (255,255,153,255);
glyphname = uni2E98;
layers = (
{
layerId = master01;
shapes = (
{
closed = 1;
nodes = (
(398,332,l),
(546,395,l),
(546,411,l),
(401,398,l),
(410,590,l),
(562,619,l),
(562,633,l),
(412,646,l),
(420,825,l),
(253,825,l),
(257,660,l),
(81,676,l),
(81,529,l),
(259,562,l),
(263,385,l),
(57,366,l),
(93,203,l),
(265,276,l),
(270,76,l),
(98,38,l),
(98,22,l),
(380,-79,l)
);
}
);
userData = {
public.verticalOrigin = "880";
};
vertWidth = 1000;
width = 1000;
}
);
unicode = (11928,25164);
}
{
color = (255,255,153,255);
glyphname = uni2EA6;
layers = (
{
layerId = master01;
shapes = (
{
closed = 1;
nodes = (
(690,-74,l),
(710,825,l),
(542,825,l),
(557,375,l),
(190,193,l),
(309,39,l),
(558,354,l),
(572,-74,l)
);
},
{
closed = 1;
nodes = (
(533,573,l),
(266,730,l),
(256,722,l),
(389,454,l)
);
}
);
userData = {
public.verticalOrigin = "880";
};
vertWidth = 1000;
width = 1000;
}
);
unicode = (11942,20012);
}
{
color = (255,255,153,255);
glyphname = uni2EB0;
layers = (
{
layerId = master01;
shapes = (
{
closed = 1;
nodes = (
(496,285,l),
(496,297,l),
(224,306,l),
(531,567,l),
(371,635,l),
(310,521,l),
(176,570,l),
(423,758,l),
(229,817,l),
(153,579,l),
(96,600,l),
(103,441,l),
(301,504,l),
(196,307,l),
(94,310,l),
(114,149,l)
);
},
{
closed = 1;
nodes = (
(528,107,l),
(528,120,l),
(52,100,l),
(80,-69,l)
);
}
);
userData = {
public.verticalOrigin = "880";
};
vertWidth = 1000;
width = 1000;
}
);
unicode = (11952,32415);
}
{
color = (255,255,153,255);
glyphname = uni2EBA;
layers = (
{
layerId = master01;
shapes = (
{
closed = 1;
nodes = (
(555,-74,l),
(564,258,l),
(702,277,l),
(703,187,l),
(815,188,l),
(834,449,l),
(986,452,l),
(986,464,l),
(837,482,l),
(857,751,l),
(577,734,l),
(579,825,l),
(419,825,l),
(422,724,l),
(170,709,l),
(170,697,l),
(424,656,l),
(427,532,l),
(60,576,l),
(60,436,l),
(429,442,l),
(433,318,l),
(170,338,l),
(170,205,l),
(435,241,l),
(443,-74,l)
);
},
{
closed = 1;
nodes = (
(565,307,l),
(569,445,l),
(699,447,l),
(701,297,l)
);
},
{
closed = 1;
nodes = (
(571,514,l),
(574,631,l),
(697,611,l),
(699,499,l)
);
}
);
userData = {
public.verticalOrigin = "880";
};
vertWidth = 1000;
width = 1000;
}
);
unicode = (11962,32896);
}
{
color = (255,255,153,255);
glyphname = uni2EC2;
layers = (
{
layerId = master01;
shapes = (
{
closed = 1;
nodes = (
(311,-74,l),
(345,342,l),
(474,144,l),
(546,284,l),
(409,334,l),
(544,422,l),
(436,488,l),
(387,342,l),
(346,357,l),
(351,416,l),
(284,416,l),
(532,635,l),
(378,710,l),
(331,641,l),
(318,644,l),
(350,825,l),
(190,825,l),
(201,673,l),
(87,701,l),
(87,541,l),
(313,615,l),
(50,227,l),
(58,217,l),
(190,334,l),
(197,-74,l)
);
}
);
userData = {
public.verticalOrigin = "880";
};
vertWidth = 1000;
width = 1000;
}
);
unicode = (11970,34916);
}
{
glyphname = uni2EC4;
layers = (
{
layerId = master01;
shapes = (
{
closed = 1;
nodes = (
(251,-75,l),
(252,-33,l),
(742,53,l),
(743,-65,l),
(859,-65,l),
(891,571,l),
(652,530,l),
(663,681,l),
(541,681,l),
(960,720,l),
(960,733,l),
(62,791,l),
(62,636,l),
(334,661,l),
(339,477,l),
(263,465,l),
(265,537,l),
(112,537,l),
(132,-75,l)
);
},
{
closed = 1;
nodes = (
(256,109,l),
(263,441,l),
(340,438,l),
(342,362,l),
(286,133,l),
(300,127,l),
(428,272,l),
(456,434,l),
(515,431,l),
(520,152,l),
(741,229,l),
(742,75,l)
);
},
{
closed = 1;
nodes = (
(488,630,l),
(363,664,l),
(511,678,l),
(514,507,l),
(465,499,l)
);
},
{
closed = 1;
nodes = (
(634,291,l),
(645,426,l),
(740,422,l),
(741,253,l)
);
}
);
userData = {
public.verticalOrigin = "880";
};
vertWidth = 1000;
width = 1000;
}
);
unicode = (11972,35199);
}
{
color = (255,255,153,255);
glyphname = uni2EC8;
layers = (
{
layerId = master01;
shapes = (
{
closed = 1;
nodes = (
(535,180,l),
(528,192,l),
(372,162,l),
(389,518,l),
(56,452,l),
(56,440,l),
(222,375,l),
(234,136,l),
(151,121,l),
(210,-80,l)
);
},
{
closed = 1;
nodes = (
(397,670,l),
(172,810,l),
(158,799,l),
(250,535,l)
);
}
);
userData = {
public.verticalOrigin = "880";
};
vertWidth = 1000;
width = 1000;
}
);
unicode = (11976,35744);
}
{
glyphname = uni2ED8;
layers = (
{
layerId = master01;
shapes = (
{
closed = 1;
nodes = (
(854,427,l),
(309,353,l),
(311,397,l),
(151,397,l),
(183,-64,l),
(295,-64,l),
(300,71,l),
(701,128,l),
(704,44,l),
(488,18,l),
(488,8,l),
(816,-84,l)
);
},
{
closed = 1;
nodes = (
(303,156,l),
(304,202,l),
(697,230,l),
(700,145,l)
);
},
{
closed = 1;
nodes = (
(307,289,l),
(309,335,l),
(694,316,l),
(697,247,l)
);
},
{
closed = 1;
nodes = (
(940,466,l),
(940,479,l),
(555,503,l),
(561,582,l),
(848,601,l),
(848,614,l),
(565,629,l),
(571,706,l),
(908,732,l),
(908,745,l),
(575,762,l),
(580,826,l),
(420,826,l),
(424,770,l),
(102,787,l),
(102,670,l),
(428,695,l),
(432,636,l),
(167,650,l),
(167,555,l),
(436,573,l),
(440,511,l),
(59,535,l),
(59,420,l)
);
}
);
userData = {
public.verticalOrigin = "880";
};
vertWidth = 1000;
width = 1000;
}
);
unicode = (11992,12205,38738);
}
{
color = (255,102,102,255);
glyphname = uni2ED9;
layers = (
{
layerId = master01;
shapes = (
{
closed = 1;
nodes = (
(558,-74,l),
(567,234,l),
(775,221,l),
(771,123,l),
(603,99,l),
(603,86,l),
(880,-14,l),
(941,376,l),
(569,337,l),
(572,444,l),
(859,484,l),
(859,498,l),
(574,509,l),
(578,632,l),
(913,666,l),
(913,680,l),
(579,697,l),
(583,826,l),
(415,826,l),
(418,706,l),
(112,722,l),
(112,584,l),
(421,616,l),
(424,514,l),
(165,523,l),
(165,386,l),
(426,423,l),
(429,322,l),
(62,284,l),
(62,267,l),
(431,243,l),
(440,-74,l)
);
}
);
userData = {
public.verticalOrigin = "880";
};
vertWidth = 1000;
width = 1000;
}
);
unicode = (11993,38886);
}
{
color = (153,255,154,255);
glyphname = uni2EDC;
layers = (
{
layerId = master01;
shapes = (
{
closed = 1;
nodes = (
(939,100,l),
(932,110,l),
(693,104,l),
(682,798,l),
(500,798,l),
(507,726,l),
(63,799,l),
(63,617,l),
(509,701,l),
(582,-75,l)
);
},
{
closed = 1;
nodes = (
(939,310,l),
(728,454,l),
(715,444,l),
(799,201,l)
);
},
{
closed = 1;
nodes = (
(924,591,l),
(804,712,l),
(697,496,l),
(711,485,l)
);
}
);
userData = {
public.verticalOrigin = "880";
};
vertWidth = 1000;
width = 1000;
}
);
unicode = (11996,39134);
}
{
color = (255,255,153,255);
glyphname = uni2EE0;
layers = (
{
layerId = master01;
shapes = (
{
closed = 1;
nodes = (
(481,138,l),
(474,152,l),
(299,126,l),
(318,455,l),
(149,455,l),
(172,107,l),
(66,91,l),
(134,-80,l)
);
},
{
closed = 1;
nodes = (
(213,609,l),
(341,571,l),
(327,481,l),
(343,473,l),
(513,603,l),
(386,690,l),
(229,632,l),
(329,777,l),
(133,806,l),
(51,404,l),
(66,398,l)
);
}
);
userData = {
public.verticalOrigin = "880";
};
vertWidth = 1000;
width = 1000;
}
);
unicode = (12000,39267);
}
{
color = (153,255,154,255);
glyphname = uni2EE3;
layers = (
{
layerId = master01;
shapes = (
{
closed = 1;
nodes = (
(826,370,l),
(909,370,l),
(935,569,l),
(814,553,l),
(848,817,l),
(319,749,l),
(319,807,l),
(158,807,l),
(188,549,l),
(74,549,l),
(94,370,l),
(178,370,l),
(196,-65,l),
(316,-65,l),
(322,83,l),
(675,123,l),
(678,49,l),
(523,15,l),
(523,1,l),
(794,-87,l)
);
},
{
closed = 1;
nodes = (
(326,166,l),
(328,217,l),
(671,222,l),
(674,143,l)
);
},
{
closed = 1;
nodes = (
(331,299,l),
(333,347,l),
(668,299,l),
(670,240,l)
);
},
{
closed = 1;
nodes = (
(231,522,l),
(318,522,l),
(318,605,l),
(439,581,l),
(445,505,l),
(229,477,l)
);
},
{
closed = 1;
nodes = (
(336,419,l),
(226,419,l),
(228,460,l),
(776,443,l),
(780,424,l),
(334,367,l)
);
},
{
closed = 1;
nodes = (
(591,670,l),
(318,623,l),
(319,731,l),
(685,701,l),
(684,548,l),
(773,548,l),
(574,522,l)
);
}
);
userData = {
public.verticalOrigin = "880";
};
vertWidth = 1000;
width = 1000;
}
);
unicode = (12003,12219,39592);
}
{
color = (153,255,154,255);
glyphname = uni2EE6;
layers = (
{
layerId = master01;
shapes = (
{
closed = 1;
nodes = (
(929,346,l),
(745,346,l),
(746,308,l),
(323,354,l),
(326,622,l),
(662,599,l),
(668,465,l),
(576,432,l),
(576,420,l),
(789,365,l),
(824,726,l),
(400,653,l),
(609,807,l),
(383,826,l),
(369,647,l),
(326,640,l),
(327,709,l),
(158,709,l),
(187,229,l),
(746,285,l),
(750,57,l),
(572,22,l),
(572,9,l),
(879,-74,l)
);
},
{
closed = 1;
nodes = (
(718,148,l),
(718,161,l),
(63,184,l),
(63,28,l)
);
},
{
closed = 1;
nodes = (
(590,476,l),
(411,586,l),
(399,578,l),
(456,379,l)
);
}
);
userData = {
public.verticalOrigin = "880";
};
vertWidth = 1000;
width = 1000;
}
);
unicode = (12006,40479);
}
{
color = (153,255,154,255);
glyphname = uni2EE7;
layers = (
{
layerId = master01;
shapes = (
{
closed = 1;
nodes = (
(241,-74,l),
(242,-34,l),
(746,13,l),
(747,-61,l),
(875,-61,l),
(908,599,l),
(540,550,l),
(555,695,l),
(843,627,l),
(843,796,l),
(557,721,l),
(568,825,l),
(392,825,l),
(410,548,l),
(516,547,l),
(262,514,l),
(265,586,l),
(89,586,l),
(113,-74,l)
);
},
{
closed = 1;
nodes = (
(246,84,l),
(261,491,l),
(739,451,l),
(746,30,l)
);
},
{
closed = 1;
nodes = (
(729,193,l),
(583,284,l),
(706,359,l),
(591,458,l),
(486,344,l),
(307,457,l),
(297,446,l),
(433,286,l),
(272,112,l),
(281,101,l),
(485,225,l),
(624,61,l)
);
}
);
userData = {
public.verticalOrigin = "880";
};
vertWidth = 1000;
width = 1000;
}
);
unicode = (12007,21348);
}
{
glyphname = uni2EEF;
layers = (
{
layerId = master01;
shapes = (
{
closed = 1;
nodes = (
(930,-46,l),
(883,204,l),
(869,204,l),
(827,84,l),
(536,50,l),
(544,123,l),
(693,148,l),
(693,104,l),
(814,104,l),
(854,479,l),
(297,417,l),
(298,451,l),
(137,451,l),
(171,60,l),
(414,101,l),
(415,-55,l)
);
},
{
closed = 1;
nodes = (
(294,183,l),
(295,249,l),
(412,254,l),
(413,179,l)
);
},
{
closed = 1;
nodes = (
(296,340,l),
(297,399,l),
(532,378,l),
(411,378,l),
(411,325,l)
);
},
{
closed = 1;
nodes = (
(549,175,l),
(559,261,l),
(692,267,l),
(693,170,l)
);
},
{
closed = 1;
nodes = (
(563,305,l),
(571,375,l),
(692,364,l),
(692,287,l)
);
},
{
closed = 1;
nodes = (
(378,574,l),
(499,644,l),
(293,671,l),
(614,697,l),
(559,565,l)
);
},
{
closed = 1;
nodes = (
(952,534,l),
(952,547,l),
(595,564,l),
(806,657,l),
(643,700,l),
(906,721,l),
(906,734,l),
(563,759,l),
(583,825,l),
(415,825,l),
(429,769,l),
(121,791,l),
(121,657,l),
(245,667,l),
(334,576,l),
(74,588,l),
(74,451,l)
);
}
);
userData = {
public.verticalOrigin = "880";
};
vertWidth = 1000;
width = 1000;
}
);
unicode = (12015,31452);
}
{
color = (153,255,154,255);
glyphname = uni2EF0;
layers = (
{
layerId = master01;
shapes = (
{
closed = 1;
nodes = (
(399,470,l),
(940,534,l),
(940,548,l),
(458,579,l),
(561,771,l),
(371,824,l),
(298,590,l),
(92,604,l),
(92,433,l),
(256,453,l),
(95,-64,l),
(107,-74,l)
);
},
{
closed = 1;
nodes = (
(934,-37,l),
(842,274,l),
(828,274,l),
(800,114,l),
(517,86,l),
(527,163,l),
(840,366,l),
(730,468,l),
(542,290,l),
(558,427,l),
(399,427,l),
(393,150,l),
(219,-15,l),
(228,-30,l),
(392,76,l),
(389,-46,l)
);
},
{
closed = 1;
nodes = (
(874,695,l),
(632,773,l),
(622,763,l),
(747,579,l)
);
}
);
userData = {
public.verticalOrigin = "880";
};
vertWidth = 1000;
width = 1000;
}
);
unicode = (12016,40857);
}
{
glyphname = uni2F01;
layers = (
{
layerId = master01;
shapes = (
{
closed = 1;
nodes = (
(564,-71,l),
(591,817,l),
(404,817,l),
(432,-71,l)
);
}
);
userData = {
public.verticalOrigin = "880";
};
vertWidth = 1000;
width = 1000;
}
);
unicode = (12033,20008);
}
{
glyphname = uni2F02;
layers = (
{
layerId = master01;
shapes = (
{
closed = 1;
nodes = (
(777,206,l),
(301,702,l),
(289,694,l),
(599,67,l)
);
}
);
userData = {
public.verticalOrigin = "880";
};
vertWidth = 1000;
width = 1000;
}
);
unicode = (12034,20022);
}
{
glyphname = uni2F03;
layers = (
{
layerId = master01;
shapes = (
{
closed = 1;
nodes = (
(731,267,l),
(765,805,l),
(567,805,l),
(591,357,l),
(162,-60,l),
(172,-74,l)
);
}
);
userData = {
public.verticalOrigin = "880";
};
vertWidth = 1000;
width = 1000;
}
);
unicode = (12035,20031);
}
{
glyphname = uni2F0A;
layers = (
{
layerId = master01;
shapes = (
{
closed = 1;
nodes = (
(951,65,l),
(553,782,l),
(161,716,l),
(162,702,l),
(510,620,l),
(564,483,l),
(404,560,l),
(94,-47,l),
(104,-55,l),
(569,471,l),
(784,-81,l)
);
}
);
userData = {
public.verticalOrigin = "880";
};
vertWidth = 1000;
width = 1000;
}
);
unicode = (12042,20837);
}
{
glyphname = uni2F0C;
layers = (
{
layerId = master01;
shapes = (
{
closed = 1;
nodes = (
(895,796,l),
(273,691,l),
(274,775,l),
(104,775,l),
(137,-55,l),
(261,-55,l),
(272,667,l),
(725,631,l),
(736,80,l),
(552,42,l),
(552,28,l),
(860,-75,l)
);
}
);
userData = {
public.verticalOrigin = "880";
};
vertWidth = 1000;
width = 1000;
}
);
unicode = (12044,20866);
}
{
color = (255,255,153,255);
glyphname = uni2F0E;
layers = (
{
layerId = master01;
shapes = (
{
closed = 1;
nodes = (
(504,425,l),
(490,433,l),
(48,93,l),
(188,-66,l)
);
},
{
closed = 1;
nodes = (
(450,635,l),
(116,805,l),
(106,795,l),
(322,493,l)
);
}
);
userData = {
public.verticalOrigin = "880";
};
vertWidth = 1000;
width = 1000;
}
);
unicode = (12046,20907);
}
{
glyphname = uni2F10;
layers = (
{
layerId = master01;
shapes = (
{
closed = 1;
nodes = (
(262,-74,l),
(263,-15,l),
(739,52,l),
(741,-64,l),
(861,-64,l),
(894,774,l),
(724,774,l),
(738,75,l),
(265,129,l),
(273,740,l),
(103,740,l),
(142,-74,l)
);
}
);
userData = {
public.verticalOrigin = "880";
};
vertWidth = 1000;
width = 1000;
}
);
unicode = (12048,20981);
}
{
glyphname = uni2F12;
layers = (
{
layerId = master01;
shapes = (
{
closed = 1;
nodes = (
(899,664,l),
(552,633,l),
(630,764,l),
(448,826,l),
(375,621,l),
(94,596,l),
(94,581,l),
(348,545,l),
(138,-38,l),
(152,-49,l),
(491,528,l),
(720,498,l),
(696,108,l),
(409,100,l),
(409,84,l),
(817,-74,l)
);
}
);
userData = {
public.verticalOrigin = "880";
};
vertWidth = 1000;
width = 1000;
}
);
unicode = (12050,21147);
}
{
glyphname = uni2F13;
layers = (
{
layerId = master01;
shapes = (
{
closed = 1;
nodes = (
(896,744,l),
(349,666,l),
(460,804,l),
(260,824,l),
(106,386,l),
(116,376,l),
(327,638,l),
(723,576,l),
(693,78,l),
(436,54,l),
(436,38,l),
(812,-73,l)
);
}
);
userData = {
public.verticalOrigin = "880";
};
vertWidth = 1000;
width = 1000;
}
);
unicode = (12051,21241);
}
{
glyphname = uni2F1C;
layers = (
{
layerId = master01;
shapes = (
{
closed = 1;
nodes = (
(908,102,l),
(613,292,l),
(903,720,l),
(715,795,l),
(681,728,l),
(102,797,l),
(102,623,l),
(667,701,l),
(497,366,l),
(176,572,l),
(166,560,l),
(450,282,l),
(108,-60,l),
(116,-74,l),
(540,195,l),
(820,-77,l)
);
}
);
userData = {
public.verticalOrigin = "880";
};
vertWidth = 1000;
width = 1000;
}
);
unicode = (12060,21448);
}
{
glyphname = uni2F1D;
layers = (
{
layerId = master01;
shapes = (
{
closed = 1;
nodes = (
(262,-54,l),
(263,10,l),
(728,94,l),
(730,-44,l),
(845,-44,l),
(879,763,l),
(285,673,l),
(286,743,l),
(123,743,l),
(147,-54,l)
);
},
{
closed = 1;
nodes = (
(267,147,l),
(284,656,l),
(721,614,l),
(728,113,l)
);
}
);
userData = {
public.verticalOrigin = "880";
};
vertWidth = 1000;
width = 1000;
}
);
unicode = (12061,21475);
}
{
glyphname = uni2F20;
layers = (
{
layerId = master01;
shapes = (
{
closed = 1;
nodes = (
(905,69,l),
(905,81,l),
(568,104,l),
(581,481,l),
(952,534,l),
(952,546,l),
(583,559,l),
(592,825,l),
(415,825,l),
(423,565,l),
(74,578,l),
(74,408,l),
(427,459,l),
(438,113,l),
(125,135,l),
(125,-34,l)
);
}
);
userData = {
public.verticalOrigin = "880";
};
vertWidth = 1000;
width = 1000;
}
);
unicode = (12064,22763);
}
{
glyphname = uni2F21;
layers = (
{
layerId = master01;
shapes = (
{
closed = 1;
nodes = (
(932,86,l),
(568,313,l),
(897,582,l),
(755,726,l),
(412,654,l),
(564,800,l),
(368,822,l),
(94,372,l),
(104,360,l),
(243,493,l),
(423,320,l),
(84,-59,l),
(92,-75,l),
(494,253,l),
(840,-77,l)
);
},
{
closed = 1;
nodes = (
(258,507,l),
(381,625,l),
(652,578,l),
(471,374,l)
);
}
);
userData = {
public.verticalOrigin = "880";
};
vertWidth = 1000;
width = 1000;
}
);
unicode = (12065,22786);
}
{
glyphname = uni2F24;
layers = (
{
layerId = master01;
shapes = (
{
closed = 1;
nodes = (
(529,375,l),
(824,-75,l),
(929,105,l),
(546,397,l),
(556,470,l),
(971,522,l),
(971,538,l),
(570,562,l),
(607,804,l),
(428,820,l),
(408,572,l),
(62,593,l),
(62,408,l),
(400,450,l),
(84,-69,l),
(94,-77,l)
);
}
);
userData = {
public.verticalOrigin = "880";
};
vertWidth = 1000;
width = 1000;
}
);
unicode = (12068,22823);
}
{
color = (255,255,153,255);
glyphname = uni2F27;
layers = (
{
layerId = master01;
shapes = (
{
closed = 1;
nodes = (
(230,438,l),
(245,634,l),
(750,583,l),
(772,438,l),
(900,438,l),
(930,745,l),
(577,697,l),
(598,825,l),
(415,825,l),
(439,678,l),
(246,652,l),
(252,729,l),
(72,729,l),
(102,438,l)
);
}
);
userData = {
public.verticalOrigin = "880";
};
vertWidth = 1000;
width = 1000;
}
);
unicode = (12071,23424);
}
{
glyphname = uni2F2C;
layers = (
{
layerId = master01;
shapes = (
{
closed = 1;
nodes = (
(552,228,l),
(560,301,l),
(753,331,l),
(758,207,l),
(873,207,l),
(902,738,l),
(737,738,l),
(752,360,l),
(568,373,l),
(614,804,l),
(425,826,l),
(418,385,l),
(244,398,l),
(264,720,l),
(99,720,l),
(116,187,l),
(231,187,l),
(235,251,l),
(406,277,l),
(128,-60,l),
(137,-74,l)
);
}
);
userData = {
public.verticalOrigin = "880";
};
vertWidth = 1000;
width = 1000;
}
);
unicode = (12076,23662);
}
{
glyphname = uni2F2E;
layers = (
{
layerId = master01;
shapes = (
{
closed = 1;
nodes = (
(430,4,l),
(119,410,l),
(448,748,l),
(284,804,l),
(60,372,l),
(74,364,l),
(107,398,l),
(268,-49,l)
);
},
{
closed = 1;
nodes = (
(688,-5,l),
(380,390,l),
(694,734,l),
(530,790,l),
(322,350,l),
(336,342,l),
(369,378,l),
(526,-59,l)
);
},
{
closed = 1;
nodes = (
(932,22,l),
(641,427,l),
(940,728,l),
(776,784,l),
(582,390,l),
(596,382,l),
(629,415,l),
(770,-31,l)
);
}
);
userData = {
public.verticalOrigin = "880";
};
vertWidth = 1000;
width = 1000;
}
);
unicode = (12078,24027);
}
{
glyphname = uni2F36;
layers = (
{
layerId = master01;
shapes = (
{
closed = 1;
nodes = (
(318,395,l),
(600,431,l),
(612,-64,l),
(734,-64,l),
(751,450,l),
(975,478,l),
(975,490,l),
(753,500,l),
(762,785,l),
(592,785,l),
(599,507,l),
(353,518,l),
(429,787,l),
(259,815,l),
(230,524,l),
(53,532,l),
(53,362,l),
(217,383,l),
(172,-70,l),
(185,-75,l)
);
}
);
userData = {
public.verticalOrigin = "880";
};
vertWidth = 1000;
width = 1000;
}
);
unicode = (12086,24318);
}
{
glyphname = uni2F37;
layers = (
{
layerId = master01;
shapes = (
{
closed = 1;
nodes = (
(952,243,l),
(941,253,l),
(792,133,l),
(587,244,l),
(546,482,l),
(917,561,l),
(917,575,l),
(532,565,l),
(488,825,l),
(320,813,l),
(379,561,l),
(64,553,l),
(74,381,l),
(404,452,l),
(471,166,l),
(813,-75,l)
);
},
{
closed = 1;
nodes = (
(846,685,l),
(633,792,l),
(625,784,l),
(710,581,l)
);
}
);
userData = {
public.verticalOrigin = "880";
};
vertWidth = 1000;
width = 1000;
}
);
unicode = (12087,24331);
}
{
glyphname = uni2F38;
layers = (
{
layerId = master01;
shapes = (
{
closed = 1;
nodes = (
(897,392,l),
(284,305,l),
(326,466,l),
(689,505,l),
(690,414,l),
(810,414,l),
(852,798,l),
(170,736,l),
(169,722,l),
(685,661,l),
(688,524,l),
(183,602,l),
(111,178,l),
(241,148,l),
(278,284,l),
(716,240,l),
(698,83,l),
(389,59,l),
(389,48,l),
(806,-75,l)
);
}
);
userData = {
public.verticalOrigin = "880";
};
vertWidth = 1000;
width = 1000;
}
);
unicode = (12088,24339);
}
{
glyphname = uni2F3B;
layers = (
{
layerId = master01;
shapes = (
{
closed = 1;
nodes = (
(567,-74,l),
(605,374,l),
(513,374,l),
(801,505,l),
(672,624,l),
(184,238,l),
(192,228,l),
(430,336,l),
(438,-74,l)
);
},
{
closed = 1;
nodes = (
(729,719,l),
(580,826,l),
(204,534,l),
(212,524,l)
);
}
);
userData = {
public.verticalOrigin = "880";
};
vertWidth = 1000;
width = 1000;
}
);
unicode = (12091,24435);
}
{
color = (153,255,154,255);
glyphname = uni2F3E;
layers = (
{
layerId = master01;
shapes = (
{
closed = 1;
nodes = (
(204,277,l),
(712,373,l),
(713,231,l),
(852,231,l),
(885,714,l),
(583,672,l),
(607,825,l),
(437,825,l),
(455,670,l),
(567,670,l),
(328,637,l),
(348,696,l),
(156,726,l),
(70,-62,l),
(85,-71,l)
);
},
{
closed = 1;
nodes = (
(255,425,l),
(318,609,l),
(709,553,l),
(711,394,l)
);
}
);
userData = {
public.verticalOrigin = "880";
};
vertWidth = 1000;
width = 1000;
}
);
unicode = (12094,25143);
}
{
glyphname = uni2F3F;
layers = (
{
layerId = master01;
shapes = (
{
closed = 1;
nodes = (
(610,236,l),
(978,275,l),
(978,291,l),
(614,309,l),
(621,449,l),
(899,482,l),
(899,498,l),
(625,521,l),
(632,657,l),
(488,657,l),
(880,698,l),
(723,829,l),
(114,632,l),
(116,618,l),
(455,654,l),
(459,535,l),
(191,558,l),
(191,398,l),
(463,430,l),
(466,317,l),
(56,337,l),
(56,177,l),
(470,221,l),
(474,88,l),
(247,60,l),
(247,44,l),
(593,-86,l)
);
}
);
userData = {
public.verticalOrigin = "880";
};
vertWidth = 1000;
width = 1000;
}
);
unicode = (12095,25163);
}
{
glyphname = uni2F41;
layers = (
{
layerId = master01;
shapes = (
{
closed = 1;
nodes = (
(910,92,l),
(677,179,l),
(913,438,l),
(725,513,l),
(680,444,l),
(454,464,l),
(535,464,l),
(548,646,l),
(882,570,l),
(882,728,l),
(549,672,l),
(560,825,l),
(392,825,l),
(417,467,l),
(112,495,l),
(112,327,l),
(197,341,l),
(466,161,l),
(120,-60,l),
(128,-74,l),
(571,90,l),
(822,-77,l)
);
},
{
closed = 1;
nodes = (
(229,347,l),
(665,420,l),
(542,230,l)
);
}
);
userData = {
public.verticalOrigin = "880";
};
vertWidth = 1000;
width = 1000;
}
);
unicode = (12097,25908);
}
{
glyphname = uni2F45;
layers = (
{
layerId = master01;
shapes = (
{
closed = 1;
nodes = (
(858,508,l),
(391,410,l),
(416,551,l),
(275,566,l),
(961,631,l),
(961,645,l),
(555,673,l),
(587,825,l),
(417,825,l),
(430,682,l),
(74,707,l),
(74,547,l),
(248,563,l),
(224,250,l),
(73,-53,l),
(83,-59,l),
(356,208,l),
(387,385,l),
(679,354,l),
(651,88,l),
(443,60,l),
(443,44,l),
(749,-76,l)
);
}
);
userData = {
public.verticalOrigin = "880";
};
vertWidth = 1000;
width = 1000;
}
);
unicode = (12101,26041);
}
{
glyphname = uni2F47;
layers = (
{
layerId = master01;
shapes = (
{
closed = 1;
nodes = (
(271,-74,l),
(273,-22,l),
(716,67,l),
(719,-64,l),
(837,-64,l),
(869,789,l),
(299,688,l),
(301,769,l),
(131,769,l),
(153,-74,l)
);
},
{
closed = 1;
nodes = (
(278,124,l),
(285,324,l),
(709,387,l),
(716,89,l)
);
},
{
closed = 1;
nodes = (
(291,474,l),
(298,665,l),
(704,636,l),
(709,408,l)
);
}
);
userData = {
public.verticalOrigin = "880";
};
vertWidth = 1000;
width = 1000;
}
);
unicode = (12103,26085);
}
{
glyphname = uni2F4C;
layers = (
{
layerId = master01;
shapes = (
{
closed = 1;
nodes = (
(977,37,l),
(977,53,l),
(632,83,l),
(634,422,l),
(900,400,l),
(900,576,l),
(634,449,l),
(636,825,l),
(455,825,l),
(497,95,l),
(349,108,l),
(351,651,l),
(179,651,l),
(220,119,l),
(64,133,l),
(64,-49,l)
);
}
);
userData = {
public.verticalOrigin = "880";
};
vertWidth = 1000;
width = 1000;
}
);
unicode = (12108,27490);
}
{
glyphname = uni2F4D;
layers = (
{
layerId = master01;
shapes = (
{
closed = 1;
nodes = (
(706,100,l),
(896,562,l),
(375,504,l),
(535,631,l),
(385,669,l),
(952,728,l),
(952,742,l),
(80,796,l),
(80,638,l),
(342,665,l),
(108,312,l),
(118,301,l),
(344,480,l),
(649,404,l),
(580,192,l),
(114,-59,l),
(120,-73,l)
);
},
{
closed = 1;
nodes = (
(509,272,l),
(221,369,l),
(211,358,l),
(371,129,l)
);
}
);
userData = {
public.verticalOrigin = "880";
};
vertWidth = 1000;
width = 1000;
}
);
unicode = (12109,27513);
}
{
color = (205,153,255,255);
glyphname = uni2F4E;
layers = (
{
layerId = master01;
shapes = (
{
closed = 1;
nodes = (
(888,92,l),
(656,152,l),
(873,374,l),
(695,449,l),
(656,389,l),
(132,431,l),
(132,263,l),
(641,366,l),
(525,186,l),
(210,268,l),
(200,256,l),
(447,118,l),
(130,-60,l),
(138,-74,l),
(554,59,l),
(800,-77,l)
);
},
{
closed = 1;
nodes = (
(353,545,l),
(414,734,l),
(588,679,l),
(584,444,l),
(926,507,l),
(926,524,l),
(721,570,l),
(770,808,l),
(422,757,l),
(432,789,l),
(243,809,l),
(232,608,l),
(63,437,l),
(74,426,l)
);
}
);
userData = {
public.verticalOrigin = "880";
};
vertWidth = 1000;
width = 1000;
}
);
unicode = (12110,27571);
}
{
color = (255,102,102,255);
glyphname = uni2F4F;
layers = (
{
layerId = master01;
shapes = (
{
closed = 1;
nodes = (
(515,107,l),
(683,101,l),
(682,71,l),
(495,49,l),
(495,37,l),
(800,-75,l),
(813,96,l),
(925,92,l),
(925,242,l),
(823,227,l),
(840,444,l),
(970,459,l),
(970,470,l),
(842,476,l),
(867,798,l),
(347,743,l),
(354,788,l),
(185,813,l),
(158,505,l),
(50,510,l),
(50,355,l),
(146,366,l),
(122,90,l),
(243,74,l),
(250,118,l),
(360,113,l),
(178,-76,l),
(186,-86,l)
);
},
{
closed = 1;
nodes = (
(291,382,l),
(420,396,l),
(404,163,l),
(254,141,l)
);
},
{
closed = 1;
nodes = (
(564,413,l),
(695,428,l),
(687,206,l),
(530,182,l)
);
},
{
closed = 1;
nodes = (
(309,499,l),
(344,723,l),
(561,677,l),
(439,690,l),
(426,493,l)
);
},
{
closed = 1;
nodes = (
(575,487,l),
(601,669,l),
(703,648,l),
(697,482,l)
);
}
);
userData = {
public.verticalOrigin = "880";
};
vertWidth = 1000;
width = 1000;
}
);
unicode = (12111,27595);
}
{
glyphname = uni2F50;
layers = (
{
layerId = master01;
shapes = (
{
closed = 1;
nodes = (
(492,174,l),
(488,186,l),
(285,158,l),
(295,443,l),
(495,400,l),
(495,565,l),
(296,464,l),
(309,813,l),
(139,813,l),
(164,141,l),
(58,126,l),
(96,-63,l)
);
},
{
closed = 1;
nodes = (
(948,-32,l),
(886,322,l),
(872,322,l),
(838,136,l),
(638,68,l),
(660,368,l),
(932,514,l),
(876,692,l),
(662,393,l),
(691,793,l),
(520,793,l),
(512,-41,l)
);
}
);
userData = {
public.verticalOrigin = "880";
};
vertWidth = 1000;
width = 1000;
}
);
unicode = (12112,27604);
}
{
glyphname = uni2F52;
layers = (
{
layerId = master01;
shapes = (
{
closed = 1;
nodes = (
(930,197,l),
(919,207,l),
(788,161,l),
(621,361,l),
(888,331,l),
(888,491,l),
(573,455,l),
(590,661,l),
(430,639,l),
(438,440,l),
(278,421,l),
(282,659,l),
(862,682,l),
(738,824,l),
(282,680,l),
(283,757,l),
(123,757,l),
(159,116,l),
(52,104,l),
(84,-69,l),
(534,146,l),
(532,158,l),
(274,129,l),
(278,399,l),
(456,379,l),
(749,-79,l)
);
}
);
userData = {
public.verticalOrigin = "880";
};
vertWidth = 1000;
width = 1000;
}
);
unicode = (12114,27663);
}
{
glyphname = uni2F55;
layers = (
{
layerId = master01;
shapes = (
{
closed = 1;
nodes = (
(537,271,l),
(812,-73,l),
(920,100,l),
(555,293,l),
(600,811,l),
(409,826,l),
(396,360,l),
(80,-61,l),
(86,-75,l)
);
},
{
closed = 1;
nodes = (
(351,465,l),
(104,712,l),
(92,706,l),
(179,376,l)
);
},
{
closed = 1;
nodes = (
(927,594,l),
(755,687,l),
(616,402,l),
(626,392,l)
);
}
);
userData = {
public.verticalOrigin = "880";
};
vertWidth = 1000;
width = 1000;
}
);
unicode = (12117,28779);
}
{
glyphname = uni2F5D;
layers = (
{
layerId = master01;
shapes = (
{
closed = 1;
nodes = (
(519,340,l),
(792,-75,l),
(897,105,l),
(534,365,l),
(545,442,l),
(951,489,l),
(951,503,l),
(558,533,l),
(596,810,l),
(417,826,l),
(404,544,l),
(62,570,l),
(62,385,l),
(395,424,l),
(128,-69,l),
(138,-77,l)
);
},
{
closed = 1;
nodes = (
(906,674,l),
(668,784,l),
(658,778,l),
(788,556,l)
);
}
);
userData = {
public.verticalOrigin = "880";
};
vertWidth = 1000;
width = 1000;
}
);
unicode = (12125,29356);
}
{
glyphname = uni2F5F;
layers = (
{
layerId = master01;
shapes = (
{
closed = 1;
nodes = (
(930,59,l),
(930,71,l),
(559,91,l),
(571,375,l),
(824,413,l),
(824,425,l),
(574,444,l),
(583,668,l),
(453,668,l),
(872,710,l),
(872,722,l),
(133,786,l),
(133,636,l),
(417,664,l),
(426,456,l),
(204,473,l),
(204,319,l),
(430,353,l),
(441,97,l),
(94,115,l),
(94,-34,l)
);
},
{
closed = 1;
nodes = (
(856,188,l),
(652,326,l),
(642,318,l),
(722,94,l)
);
}
);
userData = {
public.verticalOrigin = "880";
};
vertWidth = 1000;
width = 1000;
}
);
unicode = (12127,29577);
}
{
glyphname = uni2F65;
layers = (
{
layerId = master01;
shapes = (
{
closed = 1;
nodes = (
(239,-75,l),
(240,-33,l),
(763,40,l),
(765,-65,l),
(877,-65,l),
(907,781,l),
(257,691,l),
(258,756,l),
(98,756,l),
(127,-75,l)
);
},
{
closed = 1;
nodes = (
(243,117,l),
(248,328,l),
(430,341,l),
(440,96,l)
);
},
{
closed = 1;
nodes = (
(560,83,l),
(574,351,l),
(758,364,l),
(763,61,l)
);
},
{
closed = 1;
nodes = (
(251,467,l),
(256,675,l),
(559,642,l),
(419,642,l),
(427,438,l)
);
},
{
closed = 1;
nodes = (
(577,414,l),
(589,639,l),
(754,621,l),
(758,385,l)
);
}
);
userData = {
public.verticalOrigin = "880";
};
vertWidth = 1000;
width = 1000;
}
);
unicode = (12133,30000);
}
{
glyphname = uni2F69;
layers = (
{
layerId = master01;
shapes = (
{
closed = 1;
nodes = (
(283,-74,l),
(284,-18,l),
(717,66,l),
(717,-64,l),
(835,-64,l),
(881,709,l),
(414,613,l),
(622,762,l),
(424,826,l),
(370,604,l),
(294,588,l),
(295,670,l),
(125,670,l),
(165,-74,l)
);
},
{
closed = 1;
nodes = (
(286,123,l),
(289,288,l),
(716,347,l),
(717,90,l)
);
},
{
closed = 1;
nodes = (
(291,430,l),
(293,567,l),
(716,554,l),
(716,368,l)
);
}
);
userData = {
public.verticalOrigin = "880";
};
vertWidth = 1000;
width = 1000;
}
);
unicode = (12137,30333);
}
{
glyphname = uni2F6C;
layers = (
{
layerId = master01;
shapes = (
{
closed = 1;
nodes = (
(281,-74,l),
(283,-22,l),
(717,69,l),
(719,-64,l),
(837,-64,l),
(873,799,l),
(305,699,l),
(307,772,l),
(137,772,l),
(163,-74,l)
);
},
{
closed = 1;
nodes = (
(287,125,l),
(291,236,l),
(714,273,l),
(717,89,l)
);
},
{
closed = 1;
nodes = (
(295,372,l),
(297,446,l),
(710,494,l),
(713,294,l)
);
},
{
closed = 1;
nodes = (
(301,585,l),
(304,680,l),
(708,646,l),
(710,511,l)
);
}
);
userData = {
public.verticalOrigin = "880";
};
vertWidth = 1000;
width = 1000;
}
);
unicode = (12140,30446);
}
{
glyphname = uni2F70;
layers = (
{
layerId = master01;
shapes = (
{
closed = 1;
nodes = (
(601,397,l),
(457,397,l),
(951,445,l),
(951,459,l),
(76,525,l),
(76,360,l),
(431,395,l),
(455,64,l),
(256,34,l),
(256,20,l),
(577,-88,l)
);
},
{
closed = 1;
nodes = (
(374,243,l),
(207,315,l),
(75,10,l),
(85,-1,l)
);
},
{
closed = 1;
nodes = (
(925,133,l),
(662,341,l),
(651,330,l),
(801,5,l)
);
},
{
closed = 1;
nodes = (
(831,720,l),
(831,734,l),
(206,786,l),
(206,619,l)
);
}
);
userData = {
public.verticalOrigin = "880";
};
vertWidth = 1000;
width = 1000;
}
);
unicode = (12144,31034);
}
{
color = (255,153,204,255);
glyphname = uni2F71;
layers = (
{
layerId = master01;
shapes = (
{
closed = 1;
nodes = (
(915,713,l),
(530,647,l),
(591,800,l),
(422,827,l),
(400,624,l),
(253,599,l),
(255,703,l),
(90,703,l),
(121,-65,l),
(240,-65,l),
(253,576,l),
(393,568,l),
(363,292,l),
(282,295,l),
(308,116,l),
(582,266,l),
(610,137,l),
(743,204,l),
(549,488,l),
(535,484,l),
(578,284,l),
(388,291,l),
(496,562,l),
(750,548,l),
(763,68,l),
(572,38,l),
(572,24,l),
(882,-87,l)
);
}
);
userData = {
public.verticalOrigin = "880";
};
vertWidth = 1000;
width = 1000;
}
);
unicode = (12145,31160);
}
{
glyphname = uni2F74;
layers = (
{
layerId = master01;
shapes = (
{
closed = 1;
nodes = (
(950,17,l),
(950,31,l),
(572,70,l),
(830,492,l),
(644,546,l),
(554,72,l),
(62,123,l),
(62,-36,l)
);
},
{
closed = 1;
nodes = (
(476,208,l),
(224,504,l),
(212,498,l),
(302,120,l)
);
},
{
closed = 1;
nodes = (
(909,624,l),
(909,638,l),
(555,661,l),
(576,815,l),
(416,815,l),
(436,669,l),
(104,690,l),
(104,530,l)
);
}
);
userData = {
public.verticalOrigin = "880";
};
vertWidth = 1000;
width = 1000;
}
);
unicode = (12148,31435);
}
{
glyphname = uni2F75;
layers = (
{
layerId = master01;
shapes = (
{
closed = 1;
nodes = (
(844,548,l),
(950,511,l),
(950,671,l),
(675,639,l),
(784,788,l),
(610,824,l),
(507,527,l),
(507,671,l),
(256,602,l),
(370,776,l),
(184,806,l),
(48,310,l),
(60,300,l),
(240,577,l),
(373,544,l),
(238,544,l),
(254,-65,l),
(366,-65,l),
(398,538,l),
(502,512,l),
(448,356,l),
(460,346,l),
(656,614,l),
(827,554,l),
(678,554,l),
(703,98,l),
(507,70,l),
(507,54,l),
(821,-76,l)
);
}
);
userData = {
public.verticalOrigin = "880";
};
vertWidth = 1000;
width = 1000;
}
);
unicode = (12149,31481);
}
{
glyphname = uni2F76;
layers = (
{
layerId = master01;
shapes = (
{
closed = 1;
nodes = (
(558,-74,l),
(572,336,l),
(796,6,l),
(914,152,l),
(573,357,l),
(573,381,l),
(943,420,l),
(943,432,l),
(576,454,l),
(588,819,l),
(419,819,l),
(426,463,l),
(78,484,l),
(78,328,l),
(268,348,l),
(91,2,l),
(101,-7,l),
(419,270,l),
(286,350,l),
(428,365,l),
(437,-74,l)
);
},
{
closed = 1;
nodes = (
(392,602,l),
(154,752,l),
(142,744,l),
(258,494,l)
);
},
{
closed = 1;
nodes = (
(881,687,l),
(723,770,l),
(622,491,l),
(633,485,l)
);
}
);
userData = {
public.verticalOrigin = "880";
};
vertWidth = 1000;
width = 1000;
}
);
unicode = (12150,31859);
}
{
glyphname = uni2F78;
layers = (
{
layerId = master01;
shapes = (
{
closed = 1;
nodes = (
(278,-74,l),
(280,-18,l),
(720,63,l),
(726,-64,l),
(838,-64,l),
(868,304,l),
(708,304,l),
(719,86,l),
(558,99,l),
(570,365,l),
(950,406,l),
(950,418,l),
(573,438,l),
(581,616,l),
(855,575,l),
(855,726,l),
(320,673,l),
(430,782,l),
(244,826,l),
(120,494,l),
(132,486,l),
(304,657,l),
(558,619,l),
(417,619,l),
(425,446,l),
(66,465,l),
(66,311,l),
(429,350,l),
(439,108,l),
(286,121,l),
(292,272,l),
(132,272,l),
(166,-74,l)
);
}
);
userData = {
public.verticalOrigin = "880";
};
vertWidth = 1000;
width = 1000;
}
);
unicode = (12152,32566);
}
{
glyphname = uni2F79;
layers = (
{
layerId = master01;
shapes = (
{
closed = 1;
nodes = (
(926,805,l),
(232,709,l),
(234,785,l),
(74,785,l),
(102,-64,l),
(214,-64,l),
(232,687,l),
(342,682,l),
(309,523,l),
(244,588,l),
(234,576,l),
(294,452,l),
(224,118,l),
(234,112,l),
(350,338,l),
(418,198,l),
(516,318,l),
(399,434,l),
(502,636,l),
(373,680,l),
(589,669,l),
(554,494,l),
(484,564,l),
(474,552,l),
(539,420,l),
(466,54,l),
(476,48,l),
(596,305,l),
(664,168,l),
(762,288,l),
(643,406,l),
(748,630,l),
(612,668,l),
(766,660,l),
(766,64,l),
(606,38,l),
(606,26,l),
(878,-84,l)
);
}
);
userData = {
public.verticalOrigin = "880";
};
vertWidth = 1000;
width = 1000;
}
);
unicode = (12153,32593);
}
{
glyphname = uni2F7D;
layers = (
{
layerId = master01;
shapes = (
{
closed = 1;
nodes = (
(903,584,l),
(388,493,l),
(596,637,l),
(447,669,l),
(958,721,l),
(958,735,l),
(66,791,l),
(66,631,l),
(408,666,l),
(348,486,l),
(259,470,l),
(262,546,l),
(95,546,l),
(123,-65,l),
(238,-65,l),
(258,444,l),
(316,442,l),
(322,-31,l),
(429,-31,l),
(469,435,l),
(526,433,l),
(535,-33,l),
(642,-33,l),
(647,35,l),
(865,-85,l)
);
},
{
closed = 1;
nodes = (
(677,427,l),
(744,424,l),
(752,80,l),
(649,54,l)
);
}
);
userData = {
public.verticalOrigin = "880";
};
vertWidth = 1000;
width = 1000;
}
);
unicode = (12157,32780);
}
